<?xml version="1.0" standalone="no"?>
<!DOCTYPE svg PUBLIC "-//W3C//DTD SVG 20010904//EN"
 "http://www.w3.org/TR/2001/REC-SVG-20010904/DTD/svg10.dtd">
<svg version="1.0" xmlns="http://www.w3.org/2000/svg"
 width="1080.000000pt" height="1080.000000pt" viewBox="0 0 1080.000000 1080.000000"
 preserveAspectRatio="xMidYMid meet">
<metadata>
Created by potrace 1.11, written by Peter Selinger 2001-2013
</metadata>
<g transform="translate(0.000000,1080.000000) scale(0.100000,-0.100000)"
fill="#000000" stroke="none">
<path d="M0 5405 l0 -5395 5395 0 5395 0 0 5395 0 5395 -5395 0 -5395 0 0
-5395z m1488 201 c117 -184 212 -337 212 -340 0 -3 -28 -6 -62 -6 l-63 0 -40
65 -39 65 -226 0 -225 0 -40 -65 -39 -65 -64 0 c-35 0 -62 4 -60 8 10 26 422
672 428 672 4 0 102 -150 218 -334z m3288 94 c71 -132 131 -240 134 -240 3 0
63 108 134 240 70 132 131 240 135 240 5 0 116 -286 258 -667 4 -10 -11 -13
-54 -13 l-59 0 -79 215 c-44 118 -82 215 -85 215 -3 -1 -59 -97 -125 -215 -66
-118 -122 -215 -125 -215 -3 0 -59 95 -124 211 -66 115 -123 212 -127 214 -3
3 -42 -92 -85 -210 l-78 -215 -59 0 c-43 0 -58 3 -55 13 100 271 254 667 259
667 4 0 65 -108 135 -240z m-2798 -62 l2 -278 240 0 240 0 0 -50 0 -50 -300 0
-300 0 0 330 0 331 58 -3 57 -3 3 -277z m1177 227 l0 -50 -152 -3 -153 -3 0
-274 0 -275 -60 0 -60 0 0 275 0 274 -157 3 -158 3 -3 39 c-6 71 -32 67 375
64 l368 -3 0 -50z m775 0 l0 -55 -260 0 -260 0 0 -225 0 -225 260 0 260 0 0
-50 0 -50 -320 0 -320 0 0 330 0 330 320 0 320 0 0 -55z m2275 0 l0 -50 -262
-3 -263 -2 0 -225 0 -225 263 -2 262 -3 3 -47 3 -48 -325 0 -326 0 0 323 c0
178 3 327 7 330 4 4 149 6 322 5 l316 -3 0 -50z m345 -275 l0 -330 -60 0 -60
0 0 323 c0 178 3 327 7 330 3 4 30 7 60 7 l53 0 0 -330z m805 275 l0 -50 -243
-5 c-241 -5 -244 -5 -263 -29 -21 -26 -25 -78 -6 -102 26 -35 54 -39 244 -39
210 0 245 -9 296 -69 25 -30 47 -87 47 -121 0 -37 -24 -94 -53 -127 -53 -61
-67 -63 -362 -63 l-265 0 0 50 0 50 251 0 251 0 29 29 c36 37 38 79 5 118
l-24 28 -214 5 -215 5 -42 28 c-97 65 -109 210 -23 290 55 52 84 57 347 54
l240 -2 0 -50z m910 0 l0 -50 -157 -3 -158 -3 0 -274 0 -275 -55 0 -55 0 0
275 0 274 -157 3 -158 3 -3 39 c-6 71 -32 67 375 64 l368 -3 0 -50z m775 0 l0
-55 -265 0 -265 0 0 -225 0 -225 265 0 265 0 0 -50 0 -50 -320 0 -320 0 0 330
0 330 320 0 320 0 0 -55z m774 31 c144 -72 134 -278 -17 -341 -28 -11 -36 -19
-29 -28 14 -18 145 -197 171 -234 l22 -33 -68 0 -68 0 -100 140 -100 139 -152
1 -153 0 0 -140 0 -140 -55 0 -55 0 0 331 0 330 283 -3 c254 -3 286 -5 321
-22z m-5894 -306 l0 -50 -205 0 -205 0 0 50 0 50 205 0 205 0 0 -50z m2280 0
l0 -50 -210 0 -210 0 0 50 0 50 210 0 210 0 0 -50z m2830 0 l0 -50 -205 0
-205 0 0 50 0 50 205 0 205 0 0 -50z"/>
<path d="M1188 5622 l-77 -127 80 -3 c43 -2 115 -2 158 0 l80 3 -77 127 c-42
70 -79 127 -82 127 -3 0 -40 -57 -82 -127z"/>
<path d="M9320 5725 l0 -85 211 0 211 0 29 29 c37 38 39 82 4 116 -24 25 -24
25 -240 25 l-215 0 0 -85z"/>
</g>
</svg>
