<svg version="1.1" xmlns="http://www.w3.org/2000/svg" xmlns:xlink="http://www.w3.org/1999/xlink" x="0px"
	 y="0px" viewBox="0 0 303.22 25.61" width="303.22" height="25.61" style="enable-background:new 0 0 303.22 25.61;" xml:space="preserve">
<style type="text/css">
	.st0{enable-background:new    ;}
	.st1{fill:#FFFFFF;}
</style>
<g class="st0">
	<path class="st1" d="M0,8.6C-0.02,8.34,0.09,8.2,0.31,8.15C2.66,7.28,4.9,6.08,6.95,4.82c0.87-0.48,1.23,0.11,0.56,0.87
		C5.77,7.39,3.73,8.6,2.24,9.55c-0.03,0.76-0.2,1.6-0.7,1.6C0.96,11.14,0.28,10.02,0,8.6z M9.47,23.58c-0.08,0.45-0.84,0.39-1.6,0.2
		c-1.99,0.9-4.26,1.6-6.89,1.79C0.37,25.62,0.17,25,0.82,24.7c2.52-0.84,4.03-1.51,5.94-2.97C7,21.53,7.09,21.5,7.4,21.62
		C8.38,22.15,9.58,23.04,9.47,23.58z M2.24,1.32C1.85,0.9,2.02,0.39,2.69,0.48C4.2,0.7,5.83,1.48,6.02,2.72
		c0.11,0.7-0.25,1.23-0.95,1.34C4.4,4.17,4.01,3.61,3.48,2.83C3.11,2.32,2.66,1.76,2.24,1.32z M18.06,11.23
		c0.36-0.5,0.84-1.04,1.12-1.04c0.56,0,2.16,1.18,2.16,1.76c0,0.31-0.39,0.56-0.84,0.76c-0.08,2.07,0.03,6.92,0.03,7.98
		c0,0.87-0.45,1.06-1.23,1.06c-0.64,0-0.84-0.48-0.87-0.9H6.98v0.2c0,0.62-0.45,0.87-1.26,0.87c-0.5,0-0.78-0.25-0.78-0.76
		c0.03-1.99,0.2-7.84-0.08-10.5c-0.03-0.22,0.17-0.39,0.39-0.36c0.45,0.06,1.6,0.48,2.3,0.92H18.06z M18.48,12.35H7.51
		C7.34,12.4,7.17,12.43,7,12.46c-0.03,0.34-0.03,0.92-0.06,1.57h11.54V12.35z M6.95,16.83h11.51l0.03-1.68H6.95v1.2V16.83z
		 M6.98,19.74h11.45l0.03-1.79H6.95L6.98,19.74z M11.93,3.84c-0.98,1.4-2.3,2.88-4.09,3.92c-0.7,0.42-1.2-0.11-0.67-0.73
		c2.16-2.1,3.58-4.4,4.14-6.69c0.11-0.28,0.28-0.39,0.64-0.31c0.98,0.22,2.46,0.87,2.44,1.34C14.37,1.76,14,1.93,13.14,1.93
		c-0.14,0.25-0.28,0.5-0.45,0.78h8.09c0.48-0.53,1.09-1.12,1.4-1.09c0.5,0,2.18,1.48,2.18,2.32c-0.06,0.53-0.78,0.59-1.51,0.76
		c-0.81,0.64-1.76,1.43-2.44,1.9C19.83,7,19.24,6.5,19.66,5.88c0.48-0.7,0.92-1.4,1.23-2.04H11.93z M24.98,9.58
		c-0.67,0.28-0.9,0.53-1.15,0.84c-0.36,0.48-0.48,0.7-1.37,0.48c-3.25-0.56-5.6-1.93-6.94-4.51c-0.48,0.87-1.06,1.57-1.76,2.16
		c-1.37,1.18-3.08,2.02-5.8,2.35C7.12,11,7.09,10.16,7.82,10.02c2.1-0.53,3.47-1.4,4.4-2.21c1.04-0.92,1.76-2.16,2.07-3.42
		c0.08-0.22,0.17-0.5,0.39-0.5c1.12,0,2.52,0.53,2.52,1.09c0,0.25-0.28,0.45-0.95,0.53c1.6,2.35,4.45,3,8.6,3.25
		C25.74,8.82,25.54,9.35,24.98,9.58z M22.99,23.58c0.64,0.76,0.36,1.57-0.2,1.88c-0.53,0.28-1.06,0.2-1.57-0.22
		c-0.5-0.36-1.12-0.76-1.79-1.15c-0.7-0.42-1.46-0.81-2.44-1.23c-0.59-0.22-0.53-0.84,0.14-0.9c1.12-0.03,2.46,0.17,3.3,0.36
		C21.37,22.57,22.46,22.99,22.99,23.58z"/>
	<path class="st1" d="M34.92,12.63c0,1.93,0.11,10.58,0.11,11.76c0,0.62-0.39,0.98-1.29,0.98c-0.53,0-0.84-0.31-0.84-0.84
		c0-0.9,0.14-5.38,0.2-8.54c-1.23,2.04-3.02,4.14-5.07,5.6c-0.76,0.53-1.34-0.06-0.7-0.78c2.44-2.69,4.34-5.85,5.38-9.07h-4.34
		c-0.36,0-0.62-0.11-0.62-0.56c0-0.42,0.25-0.56,0.62-0.56h4.79c0.03-2.97-0.03-7.53-0.36-9.49c-0.03-0.25,0.11-0.39,0.36-0.39
		c1.79,0,3.25,0.17,3.25,0.84c0,0.48-0.56,0.76-1.43,0.95c-0.03,1.4-0.06,5.52-0.06,8.09h1.9c0.59-0.9,1.29-1.9,1.68-1.9
		c0.59,0,2.24,1.74,2.24,2.38c0,0.42-0.59,0.64-1.23,0.64h-4.59V12.63z M28.17,4.87c-0.25-0.59,0.14-1.09,0.78-0.7
		c1.48,0.92,2.74,2.35,2.52,3.58c-0.11,0.73-0.64,1.18-1.37,1.06c-0.7-0.14-0.87-0.9-1.15-1.88C28.76,6.24,28.48,5.52,28.17,4.87z
		 M37.16,15.96c-0.31-0.53-0.73-1.09-1.12-1.62c-0.39-0.48-0.14-1.04,0.59-0.87c1.54,0.39,3.08,1.26,3.19,2.52
		c0.06,0.76-0.36,1.29-1.12,1.34C38,17.39,37.66,16.74,37.16,15.96z M36.21,7.95c0.53-1.29,0.95-2.63,1.23-4.06
		c0.03-0.25,0.22-0.48,0.5-0.39c1.01,0.28,2.55,1.18,2.52,1.68c0,0.42-0.42,0.56-1.26,0.5c-0.56,0.87-1.2,1.88-2.1,2.8
		C36.49,8.99,35.9,8.68,36.21,7.95z M50.57,16.41c0.42-0.92,0.98-1.96,1.34-2.02c0.5-0.08,2.35,1.34,2.44,1.96
		c0.06,0.42-0.45,0.7-1.06,0.78l-3.5,0.53c0.03,2.86,0.08,5.94,0.08,6.61c0,0.62-0.5,0.98-1.43,0.98c-0.56,0-0.9-0.31-0.9-0.84
		c0-0.73,0.08-3.67,0.17-6.44l-9.1,1.34c-0.34,0.06-0.62,0-0.67-0.45c-0.06-0.42,0.17-0.59,0.53-0.64l9.27-1.4
		c0.03-1.54,0.06-2.91,0.06-3.67c0-1.18,0.08-8.9-0.36-11.65c-0.03-0.25,0.11-0.42,0.39-0.42c1.85,0,3.44,0.17,3.44,0.87
		c0,0.48-0.59,0.81-1.46,1.01c-0.08,1.9-0.08,8.74-0.08,9.8c0,0.67,0.03,2.13,0.03,3.75L50.57,16.41z M41.58,11.4
		c-0.42-0.48-0.2-1.06,0.56-0.92c1.68,0.39,3.36,1.32,3.53,2.66c0.11,0.76-0.31,1.34-1.04,1.43c-0.73,0.11-1.15-0.56-1.71-1.43
		C42.54,12.54,42.06,11.93,41.58,11.4z M42.31,5.32c-0.39-0.48-0.17-1.04,0.59-0.87c1.65,0.39,3.36,1.34,3.5,2.69
		c0.08,0.78-0.36,1.34-1.12,1.43c-0.73,0.08-1.12-0.59-1.65-1.46C43.24,6.5,42.79,5.88,42.31,5.32z"/>
	<path class="st1" d="M62.44,5.66c0.5-0.76,1.12-1.6,1.48-1.6c0.5,0,2.21,1.54,2.21,2.13c0,0.39-0.5,0.59-1.29,0.59H56.2
		c-0.36,0-0.62-0.11-0.62-0.56c0-0.42,0.25-0.56,0.62-0.56H62.44z M57.4,3.47c-0.36,0-0.62-0.11-0.62-0.56
		c0-0.42,0.25-0.56,0.62-0.56h4.4c0.5-0.73,1.12-1.48,1.46-1.48c0.48,0,2.24,1.46,2.24,2.04c0.03,0.39-0.45,0.56-1.34,0.56H57.4z
		 M61.97,16.44c0.42-0.56,0.92-1.12,1.23-1.12c0.59,0,2.3,1.29,2.3,1.9c0,0.39-0.53,0.64-1.09,0.87c-0.06,1.57,0,4.34,0,5.15
		c0,0.87-0.42,1.06-1.2,1.06c-0.64,0-0.84-0.5-0.84-0.95v-0.53h-3.47v1.46c0,0.62-0.42,0.87-1.2,0.87c-0.48,0-0.73-0.28-0.73-0.76
		c0-1.76,0.14-6.1-0.11-8.51c-0.03-0.22,0.17-0.39,0.42-0.34c0.45,0.06,1.54,0.45,2.16,0.9H61.97z M57.57,13.72
		c-0.36,0-0.62-0.11-0.62-0.56c0-0.42,0.25-0.56,0.62-0.56h3.95c0.48-0.67,1.04-1.4,1.37-1.4c0.48,0,2.16,1.43,2.18,1.99
		c0,0.36-0.45,0.53-1.32,0.53H57.57z M57.63,10.16c-0.36,0-0.62-0.11-0.62-0.56c0-0.42,0.25-0.56,0.62-0.56h3.86
		c0.48-0.67,1.04-1.4,1.37-1.4c0.48,0,2.16,1.43,2.16,1.99c0.03,0.36-0.42,0.53-1.29,0.53H57.63z M62.39,21.7
		c0-1.37,0.03-3.16,0.03-4.14h-3.33l-0.17,0.03c-0.03,0.64-0.06,2.49-0.06,3.08v1.04H62.39z M77.84,9.91
		c0.53-0.76,1.15-1.57,1.51-1.57c0.5,0,2.27,1.51,2.27,2.13c0,0.36-0.45,0.56-1.34,0.56H66.17c-0.36,0-0.62-0.11-0.62-0.56
		c0-0.42,0.25-0.56,0.62-0.56h6.02c0.03-0.7,0.03-1.51,0.03-2.32h-4.26c-0.36,0-0.62-0.11-0.62-0.56c0-0.42,0.25-0.56,0.62-0.56
		h4.26c0-0.73-0.03-1.43-0.03-2.13h-5.21c-0.36,0-0.62-0.11-0.62-0.56c0-0.42,0.25-0.56,0.62-0.56h5.18
		c-0.06-1.09-0.08-2.02-0.17-2.6c-0.03-0.25,0.14-0.39,0.39-0.39c0.48,0,3.08,0.08,3.08,0.78c0,0.56-0.59,0.78-1.43,0.98v1.23h3.56
		c0.5-0.73,1.09-1.51,1.46-1.51c0.48,0,2.18,1.48,2.18,2.07c0,0.39-0.42,0.56-1.29,0.56h-5.91v2.13h2.74c0.5-0.7,1.06-1.43,1.4-1.43
		c0.48,0,2.13,1.43,2.13,2.02c0,0.36-0.42,0.53-1.26,0.53h-5.01v2.32H77.84z M76.16,13.08c0.42-0.59,1.01-1.26,1.23-1.26
		c0.7,0,2.46,1.51,2.46,2.04c0,0.39-0.56,0.67-1.15,0.9c-0.06,2.16-0.03,5.54-0.06,8.4c0,1.65-1.34,2.35-2.46,2.35
		c-1.09,0-0.42-1.01-2.02-1.54c-0.59-0.22-0.5-0.9,0.03-0.9c0.22,0,1.18,0.11,1.62,0.11c0.64,0,0.9-0.25,0.95-0.9
		c0.03-0.45,0.03-1.01,0.06-1.6h-6.8l0.03,3.86c0,0.62-0.39,0.9-1.2,0.9c-0.5,0-0.78-0.28-0.78-0.78c0-0.64,0.08-4.65,0.08-5.77
		c0-1.4-0.03-4.65-0.22-6.41c-0.03-0.31,0.14-0.5,0.5-0.39c0.53,0.17,1.46,0.59,2.04,0.98H76.16z M76.84,19.57v-1.71v-0.42h-6.8
		v1.43v0.7H76.84z M70.06,14.22v2.1h6.78V14.2H70.2L70.06,14.22z"/>
	<path class="st1" d="M97.64,7.42c0.62,2.72,1.46,5.1,2.63,7.08c1.65-1.46,3.3-3.11,4.56-5.24c0.17-0.22,0.28-0.45,0.62-0.31
		c0.98,0.36,2.38,1.32,2.32,1.88c-0.06,0.45-0.56,0.53-1.37,0.34c-1.32,1.43-3.39,2.86-5.6,4.23c1.88,2.8,4.51,4.7,8.2,5.54
		c0.81,0.22,0.62,0.67,0.06,0.84c-0.59,0.2-0.84,0.42-1.09,0.76c-0.34,0.45-0.56,0.59-1.29,0.31c-4.54-1.65-7.48-5.8-9.04-11.59
		c0,3.92,0.03,8.15,0.03,11.73c0,1.54-0.92,2.52-2.24,2.52c-1.06,0-0.56-0.95-2.8-1.65c-0.62-0.25-0.5-0.9,0.03-0.9
		c0.67,0.03,1.68,0.14,2.18,0.14c0.59,0,0.9-0.22,0.95-1.09c0.11-2.04,0.06-6.08,0.06-9.1c0-1.01,0-3.19-0.03-5.49H84.76
		c-0.36,0-0.62-0.11-0.62-0.56c0-0.42,0.25-0.56,0.62-0.56h11.03c-0.06-2.18-0.14-4.34-0.28-5.52c-0.06-0.39,0.08-0.53,0.53-0.53
		c1.96,0,3.16,0.36,3.16,0.9c0,0.45-0.59,0.7-1.51,0.95c-0.03,1.18-0.06,2.6-0.06,4.2h7.11c0.59-0.87,1.34-1.88,1.76-1.88
		c0.56,0,2.6,1.68,2.6,2.35c0,0.39-0.45,0.64-1.54,0.64H97.64z M86.86,21.95c0.03,0.7-0.03,1.32-0.5,1.34
		c-0.53,0.03-1.4-0.98-1.79-2.32c-0.06-0.22,0.08-0.34,0.28-0.42c3.5-1.32,6.19-2.77,8.71-4.14c1.01-0.48,1.43,0.17,0.59,0.9
		C92.04,19.04,89.63,20.47,86.86,21.95z M89.21,12.85c-0.39-0.76-0.9-1.46-1.37-2.07c-0.42-0.59-0.11-1.2,0.7-0.92
		c1.85,0.62,3.56,1.85,3.61,3.33c0.03,0.81-0.42,1.4-1.23,1.43C90.11,14.67,89.8,13.86,89.21,12.85z M100.64,2.16
		c-0.48-0.53-0.2-1.18,0.64-1.01c1.6,0.45,3.14,1.23,3.28,2.49c0.11,0.78-0.31,1.4-1.09,1.48c-0.76,0.08-1.09-0.59-1.62-1.37
		C101.48,3.22,101.06,2.66,100.64,2.16z"/>
	<path class="st1" d="M115.39,14.22c0-1.23,1.01-2.24,2.24-2.24s2.24,1.01,2.24,2.24c0,1.23-1.01,2.24-2.24,2.24
		S115.39,15.45,115.39,14.22z"/>
</g>
<g class="st0">
	<path class="st1" d="M146.55,3.98c-0.52-0.21-0.63-0.58-0.2-0.94c0.35-0.3,0.82-0.43,1.25-0.43c0.73,0,2.76,0.23,2.76,1.17
		c0,0.64-0.32,1.65-0.65,3.3c0.33,0.77,0.78,0.87,1.33,0.77c0.61-0.11,1.04-0.43,1.63-0.49c0.5-0.04,1,0.14,1.04,0.67
		c0.03,0.33-0.08,0.76-0.69,1.1c-0.64,0.35-2.16,0.98-3.81,1.5c-0.1,1.12-0.17,2.42-0.17,3.9c0,0.25,0,0.5,0,0.74
		c2.17-1.19,4.74-2.22,7.72-2.22c2.94,0,4.99,1.67,4.99,3.91c0,2.65-1.79,5.19-5.69,5.19c-2.86,0-4.95-2.59-3.63-5.97
		c0.3-0.79,1.16-0.69,1.04,0.14c-0.26,1.8-0.15,3.83,2.57,3.83c2.33,0,3.77-1.45,3.77-3.23c0-1.6-1.32-2.6-3.64-2.6
		c-2.41,0-4.69,1.22-7.09,2.77c0.07,2.07,0.19,3.69,0.19,4.32c0,1.11-0.09,1.72-0.36,2.17c-0.28,0.48-0.66,0.94-1.24,0.94
		c-0.53,0-0.93-0.73-1.37-1.23c-0.79-0.89-1.63-1.46-2.59-2.1c-0.51,0.48-1.02,0.94-1.37,0.94c-0.66,0-1.52-0.73-1.52-1.6
		c0-0.7,0.26-0.89,0.7-0.99c0.79-0.17,1.47-0.51,1.92-0.79c1.39-0.89,2.78-1.8,4.12-2.61c0-0.48,0-0.99,0-1.54
		c0-1.05,0.05-2.29,0.12-3.53c-0.71,0.17-1.39,0.3-2,0.35c-1.7,0.15-2.18,0.11-2.94-0.25c-1.11-0.52-1.99-1.88-2.08-2.85
		c-0.06-0.64,0.31-0.9,0.92-0.39c1.21,1.02,2.12,1.77,3.8,1.72c0.6-0.02,1.6-0.24,2.41-0.45c0.11-1.69,0.22-3.17,0.22-3.92
		C148,4.45,147.51,4.37,146.55,3.98L146.55,3.98z M147.43,21.1c0.1-0.71,0.12-1.69,0.12-3c-1.04,0.72-2.01,1.46-2.95,2.27
		c0.74,0.41,1.54,0.83,2.01,1.01C147.13,21.58,147.37,21.58,147.43,21.1z M156.5,8.37c2.46-1.2,5.19-0.9,6.78,0.2
		c0.73,0.5,1.12,1.07,0.92,1.76c-0.28,0.98-1.2,1.04-1.88,0.53c-1.34-1.01-2.55-1.99-5.66-1.62C156.05,9.31,155.91,8.66,156.5,8.37z
		"/>
</g>
<g class="st0">
	<path class="st1" d="M171.06,12.68c0,1.01,0.06,10.64,0.06,11.79c0,0.64-0.39,1.01-1.29,1.01c-0.56,0-0.78-0.31-0.78-0.84
		c0-3.53,0.36-19.26-0.11-23.52c-0.03-0.17,0.14-0.39,0.39-0.39c0.36,0.03,2.07,0.59,2.74,1.18h4.45c0.39-0.53,0.87-1.12,1.18-1.12
		c0.53,0,2.13,1.2,2.13,1.82c0,0.36-0.48,0.62-0.95,0.78c-0.03,1.85,0.03,6.08,0.03,7.03c0,0.87-0.42,1.06-1.15,1.06
		c-0.67,0-0.84-0.5-0.84-0.95v-0.31h-5.85V12.68z M176.91,9.1l0.03-2.58h-5.85c0,0.84,0,1.74-0.03,2.58H176.91z M171.2,3.05
		c-0.03,0.53-0.06,1.37-0.08,2.35h5.85c0-0.95,0-1.79,0-2.38h-5.6L171.2,3.05z M182.93,13.92c0.39-0.53,0.92-1.12,1.23-1.12
		c0.56,0,2.21,1.23,2.21,1.85c0,0.36-0.48,0.62-0.98,0.81c-0.03,1.65,0.03,4.76,0.03,5.6c0,0.87-0.45,1.09-1.2,1.09
		c-0.67,0-0.87-0.5-0.87-0.95v-0.81h-5.68v1.23c0,0.62-0.42,0.87-1.23,0.87c-0.5,0-0.76-0.25-0.76-0.76c0-1.74,0.14-6.02-0.11-8.43
		c-0.03-0.22,0.17-0.39,0.39-0.36c0.48,0.06,1.68,0.5,2.35,0.98H182.93z M183.38,19.26c0-1.43,0.03-3.25,0.03-4.23h-5.57l-0.14,0.03
		c-0.03,0.62-0.03,2.46-0.03,3v1.2H183.38z M189.82,1.9c0.45-0.56,1.09-1.23,1.29-1.23c0.67,0,2.52,1.54,2.52,2.07
		c0,0.36-0.53,0.64-1.12,0.87c-0.17,4.82-0.11,12.96-0.14,19.26c0,1.85-1.48,2.55-2.55,2.55c-1.04,0-0.45-1.2-2.18-1.74
		c-0.59-0.2-0.48-0.9,0.06-0.9c0.22,0,1.18,0.11,1.71,0.11c0.67,0,0.95-0.25,1.01-1.12c0.11-1.96,0.06-6.08,0.06-8.96v-2.6h-6.1
		v0.42c0,0.59-0.42,0.87-1.26,0.87c-0.48,0-0.73-0.28-0.73-0.76c0-1.88,0.17-7-0.11-9.55c-0.03-0.22,0.17-0.39,0.39-0.36
		c0.5,0.06,1.82,0.56,2.44,1.06H189.82z M184.38,3.02c-0.03,0.5-0.03,1.54-0.06,2.38h6.13V3.02H184.38z M190.46,9.1V6.52h-6.13
		l0.03,2.58H190.46z"/>
</g>
<g class="st0">
	<path class="st1" d="M204.76,16c0.42-0.75,1.21-0.5,1.02,0.35c-0.11,0.51-0.56,1.79-0.65,2.39c-0.09,0.58-0.15,1.08,0.01,1.65
		c0.28,1-0.04,1.51-1.21,1.49c-2.47-0.04-5.08-2.91-5.57-6.05c-0.36-2.28-0.11-4.52-0.11-5.67c0-1.28-0.18-1.97-1.35-3.45
		c-0.65-0.82-0.2-1.34,0.76-0.93c2.26,0.96,2.92,2.36,2.92,3.64c0,1.22-0.81,3.52-0.46,5.96c0.25,1.7,1.48,3.42,2.45,3.42
		c0.38,0,0.72-0.3,1-0.73C203.81,17.71,204.49,16.47,204.76,16L204.76,16z M212.71,8.49c3.91,0.98,5.53,4.75,5.49,6.88
		c-0.02,1.15-0.64,1.92-1.5,1.91c-0.68-0.01-0.99-0.4-1.15-1.85c-0.29-2.58-1.33-4.51-3.36-5.83
		C211.21,8.97,211.49,8.18,212.71,8.49z"/>
</g>
<g class="st0">
	<path class="st1" d="M249.54,10.5c-0.7,0.28-0.92,0.5-1.18,0.84c-0.36,0.56-0.59,0.73-1.32,0.5c-3.64-1.2-7.53-4.34-9.91-9.04
		c-2.63,4.23-7.06,8.4-12.54,11.09c-0.7,0.34-1.15-0.48-0.48-0.9c5.1-3.36,8.96-7.17,11.45-12.46c0.14-0.28,0.31-0.36,0.64-0.31
		c1.06,0.2,2.46,0.73,2.46,1.2c0,0.25-0.22,0.36-0.84,0.42c2.6,4.26,7,6.8,11.56,7.76C250.3,9.77,250.1,10.28,249.54,10.5z
		 M241.34,15.51c0.45-0.59,1.01-1.23,1.34-1.23c0.59,0,2.32,1.26,2.32,1.88c0,0.36-0.48,0.62-0.98,0.84c-0.08,2.1,0,6.1,0.03,7.17
		c0,0.87-0.5,1.06-1.32,1.06c-0.67,0-0.9-0.5-0.9-0.95v-0.95h-10.19v1.29c0,0.62-0.48,0.9-1.32,0.9c-0.5,0-0.78-0.28-0.78-0.78
		c0-1.9,0.17-7.31-0.11-9.88c-0.03-0.22,0.17-0.39,0.39-0.36c0.48,0.03,1.85,0.53,2.52,1.04H241.34z M231.56,12.04
		c-0.36,0-0.62-0.11-0.62-0.56c0-0.42,0.25-0.56,0.62-0.56h6.64c0.59-0.9,1.34-1.93,1.79-1.93c0.56,0,2.49,1.71,2.49,2.41
		c0,0.39-0.59,0.64-1.46,0.64H231.56z M241.87,22.2c0-1.82,0.03-4.31,0.03-5.57h-10.08l-0.14,0.03c-0.06,0.76-0.06,3.05-0.06,3.61
		v1.93H241.87z"/>
</g>
<g class="st0">
	<path class="st1" d="M256.02,11.71c-0.5,0.37-0.85,0.78-1.24,0.78c-0.72,0-1.57-1.02-1.57-1.85c0-0.63,0.24-0.97,0.64-0.86
		c0.6,0.15,0.74,0.28,1.47,0c0.93-0.35,2.91-1.45,3.99-2.07c0.12-1.48,0.22-2.87,0.22-3.58c0-0.75-0.3-1.22-1.25-1.94
		c-0.43-0.33-0.21-0.92,0.29-0.88c0.66,0.04,1.22,0.2,1.74,0.45c1.06,0.52,1.79,1.32,1.79,2.02c0,0.55-0.39,1.41-0.61,2.22
		c-0.16,0.6-0.34,1.21-0.51,1.88c0.1,0.08,0.21,0.17,0.32,0.27c0.51,0.46,0.58,1.02,0.17,1.45c-0.28,0.3-0.65,0.81-1,1.33
		c-0.02,0.23-0.03,0.46-0.04,0.71c3.01-2.15,5.77-3.23,8.3-3.23l0,0c4.06,0,6.58,2.95,6.58,6.19c0,5.67-5.67,8.36-9.65,9.4
		c-0.68,0.18-0.95-0.5-0.34-0.83c3.26-1.77,7.46-3.7,7.46-9.18c0-2.56-1.91-4.12-4.82-4.12c-2.45,0-5.08,1.31-7.55,3.28
		c0.05,3.57,0.53,6.78,0.53,8.7c0,1.56-0.59,2.72-1.4,2.72c-0.74,0-0.84-0.57-1.01-1.41c-0.3-1.48-1.12-3.19-2.03-4.77
		c-0.88,1.46-1.6,2.69-1.71,2.87c-0.42,0.69-0.81,0.98-1.27,0.98c-0.54,0-0.95-0.51-0.95-1.18c0-0.68,0.33-1.11,0.86-1.8
		c0.68-0.89,3.65-4.77,5.5-7.45c0.05-0.61,0.12-1.35,0.19-2.14C258.32,10.19,256.39,11.44,256.02,11.71L256.02,11.71z M258.98,19.67
		c0.08-0.72-0.05-3.35-0.12-5.07c-0.51,0.79-1.13,1.8-1.74,2.79c0.62,0.9,1.53,2.23,1.61,2.34
		C258.9,19.97,258.96,19.89,258.98,19.67z"/>
	<path class="st1" d="M295.07,5.54c-0.04-0.57-0.39-0.86-1.6-1.49c-0.44-0.23-0.47-0.57-0.15-0.82s0.9-0.43,1.29-0.43
		c1.09,0.02,2.65,0.77,2.66,1.7c0.01,0.7-0.26,2.78-0.47,4.45c1.77-0.31,2.78-0.42,3.56-0.42c1.62,0,2.86,0.67,2.86,1.4
		c0,0.56-0.28,0.95-1.32,0.95c-1.22,0-2.62-0.44-5.3-0.19c-0.18,1.57-0.5,3.65-0.78,4.75c-0.38,1.5-1.2,2.7-2.37,2.68
		c-0.59-0.01-1-0.68-1.22-0.96c-0.43-0.56-0.64-0.73-1.17-1.22c-0.4-0.38-0.15-0.78,0.4-0.63c0.62,0.17,1.26,0.25,1.8,0.26
		c0.36,0.01,0.69-0.17,0.86-0.56c0.45-1.07,0.6-2.57,0.75-4.09c-2.46,0.41-5.07,1.09-7.02,1.71c-0.04,1.22-0.21,4.63-0.05,5.9
		c0.21,1.63,0.89,2.47,3.4,2.47c3.74,0,4.86-0.39,5.79-0.39c0.96,0,1.71,0.33,1.71,1.18c0,1.21-2.35,1.37-5.35,1.37
		c-4.25,0-6.77-1.13-7.03-4.05c-0.16-1.86-0.23-4.16-0.29-5.86c-2.89,1.01-4.59,1.68-5.37,1.68c-1.23,0-2.35-1.43-2.35-2.52
		c0-0.42,0.22-0.56,0.62-0.45c0.31,0.08,1.37,0.62,2.18,0.62c0.76,0,2.96-0.57,4.86-1.11c-0.06-2.01-0.09-3.33-0.21-4.08
		c-0.1-0.59-0.45-0.63-1.14-0.98c-0.35-0.18-0.39-0.53-0.04-0.81l0,0c0.39-0.28,0.94-0.47,1.38-0.47c1,0,2.21,0.55,2.21,1.57
		c0,0.24-0.15,2.6-0.24,4.21c2.1-0.57,4.84-1.19,7.07-1.63C295.09,7.95,295.12,6.32,295.07,5.54L295.07,5.54z"/>
</g>
</svg>
