<svg version="1.1" id="contact" xmlns="http://www.w3.org/2000/svg" xmlns:xlink="http://www.w3.org/1999/xlink" x="0px" y="0px"
	 viewBox="0 0 275 35" width="275" heighht="35" style="enable-background:new 0 0 275 35;" xml:space="preserve">
<style type="text/css">
	.st0{fill:#FFFFFF;}
</style>
<g id="g_4_">
	<path id="path_5_" class="st0" d="M76.7,6.2C76.1,6,76,5.5,76.5,5.1c0.4-0.3,0.9-0.5,1.4-0.5C78.7,4.6,81,4.9,81,6
		c0,0.7-0.4,1.9-0.8,3.8c0.4,0.9,0.9,1,1.5,0.9c0.7-0.1,1.2-0.5,1.9-0.6c0.6-0.1,1.1,0.2,1.2,0.8c0,0.4-0.1,0.9-0.8,1.3
		c-0.7,0.4-2.5,1.1-4.4,1.7c-0.1,1.3-0.2,2.8-0.2,4.5c0,0.3,0,0.6,0,0.8c2.5-1.4,5.4-2.5,8.8-2.5c3.4,0,5.7,1.9,5.7,4.5
		c0,3-2,5.9-6.5,5.9c-3.3,0-5.7-3-4.2-6.8c0.3-0.9,1.3-0.8,1.2,0.2c-0.3,2.1-0.2,4.4,2.9,4.4c2.7,0,4.3-1.6,4.3-3.7
		c0-1.8-1.5-3-4.2-3c-2.8,0-5.4,1.4-8.1,3.2c0.1,2.4,0.2,4.2,0.2,4.9c0,1.3-0.1,2-0.4,2.5c-0.3,0.5-0.8,1.1-1.4,1.1
		c-0.6,0-1.1-0.8-1.6-1.4c-0.9-1-1.9-1.7-3-2.4c-0.6,0.5-1.2,1.1-1.6,1.1c-0.8,0-1.7-0.8-1.7-1.8c0-0.8,0.3-1,0.8-1.1
		c0.9-0.2,1.7-0.6,2.2-0.9l0,0c1.6-1,3.2-2,4.7-3c0-0.5,0-1.1,0-1.8c0-1.2,0.1-2.6,0.1-4c-0.8,0.2-1.6,0.3-2.3,0.4
		c-1.9,0.2-2.5,0.1-3.4-0.3c-1.3-0.6-2.3-2.2-2.4-3.3c-0.1-0.7,0.4-1,1.1-0.4c1.4,1.2,2.4,2,4.3,2c0.7,0,1.8-0.3,2.8-0.5
		c0.1-1.9,0.2-3.6,0.2-4.5C78.3,6.7,77.8,6.7,76.7,6.2L76.7,6.2z M77.7,25.8c0.1-0.8,0.1-1.9,0.1-3.4c-1.2,0.8-2.3,1.7-3.4,2.6
		c0.8,0.5,1.8,1,2.3,1.2C77.4,26.3,77.6,26.3,77.7,25.8z M88.1,11.2c2.8-1.4,5.9-1,7.7,0.2c0.8,0.6,1.3,1.2,1.1,2
		c-0.3,1.1-1.4,1.2-2.1,0.6c-1.5-1.1-2.9-2.3-6.5-1.9C87.5,12.3,87.4,11.5,88.1,11.2z"/>
</g>
<g id="g_3_">
	<path id="path_4_" class="st0" d="M104.7,16.1c0,1.1,0.1,12.2,0.1,13.5c0,0.7-0.4,1.1-1.5,1.1c-0.6,0-0.9-0.4-0.9-1
		c0-4,0.4-22-0.1-26.9c0-0.2,0.2-0.5,0.4-0.5c0.4,0,2.4,0.7,3.1,1.3h5.1c0.4-0.6,1-1.3,1.3-1.3c0.6,0,2.4,1.4,2.4,2.1
		c0,0.4-0.5,0.7-1.1,0.9c0,2.1,0,6.9,0,8c0,1-0.5,1.2-1.3,1.2c-0.8,0-1-0.6-1-1.1v-0.4h-6.7L104.7,16.1L104.7,16.1z M111.4,12.1
		l0-2.9h-6.7c0,1,0,2,0,2.9C104.7,12.1,111.4,12.1,111.4,12.1z M104.9,5.1c0,0.6-0.1,1.6-0.1,2.7h6.7c0-1.1,0-2.1,0-2.7H105
		L104.9,5.1z M118.3,17.5c0.4-0.6,1.1-1.3,1.4-1.3c0.6,0,2.5,1.4,2.5,2.1c0,0.4-0.5,0.7-1.1,0.9c0,1.9,0,5.4,0,6.4
		c0,1-0.5,1.2-1.4,1.2c-0.8,0-1-0.6-1-1.1v-0.9h-6.5v1.4c0,0.7-0.5,1-1.4,1c-0.6,0-0.9-0.3-0.9-0.9c0-2,0.2-6.9-0.1-9.6
		c0-0.3,0.2-0.5,0.4-0.4c0.5,0.1,1.9,0.6,2.7,1.1H118.3z M118.8,23.7c0-1.6,0-3.7,0-4.8h-6.4l-0.2,0c0,0.7,0,2.8,0,3.4v1.4H118.8z
		 M126.1,3.8c0.5-0.6,1.2-1.4,1.5-1.4c0.8,0,2.9,1.8,2.9,2.4c0,0.4-0.6,0.7-1.3,1c-0.2,5.5-0.1,14.8-0.2,22c0,2.1-1.7,2.9-2.9,2.9
		c-1.2,0-0.5-1.4-2.5-2c-0.7-0.2-0.5-1,0.1-1c0.3,0,1.3,0.1,1.9,0.1c0.8,0,1.1-0.3,1.2-1.3c0.1-2.2,0.1-6.9,0.1-10.2v-3h-7v0.5
		c0,0.7-0.5,1-1.4,1c-0.5,0-0.8-0.3-0.8-0.9c0-2.1,0.2-8-0.1-10.9c0-0.3,0.2-0.5,0.4-0.4c0.6,0.1,2.1,0.6,2.8,1.2
		C120.7,3.8,126.1,3.8,126.1,3.8z M119.9,5.1c0,0.6,0,1.8-0.1,2.7h7V5.1H119.9z M126.9,12.1V9.1h-7l0,2.9
		C119.9,12,126.9,12,126.9,12.1z"/>
</g>
<g id="g_2_">
	<path id="path_3_" class="st0" d="M143.2,19.9c0.5-0.9,1.4-0.6,1.2,0.4c-0.1,0.6-0.6,2-0.7,2.7c-0.1,0.7-0.2,1.2,0,1.9
		c0.3,1.1-0.1,1.7-1.4,1.7c-2.8,0-5.8-3.3-6.4-6.9c-0.4-2.6-0.1-5.2-0.1-6.5c0-1.5-0.2-2.2-1.5-3.9c-0.7-0.9-0.2-1.5,0.9-1.1
		c2.6,1.1,3.3,2.7,3.3,4.2c0,1.4-0.9,4-0.5,6.8c0.3,1.9,1.7,3.9,2.8,3.9c0.4,0,0.8-0.3,1.1-0.8C142.1,21.9,142.9,20.5,143.2,19.9
		L143.2,19.9z M151.7,12.6c-1.1-0.7-0.8-1.6,0.6-1.3c4.5,1.1,6.3,5.4,6.3,7.9c0,1.3-0.7,2.2-1.7,2.2c-0.8,0-1.1-0.5-1.3-2.1
		C155.2,16.3,154,14.1,151.7,12.6L151.7,12.6z"/>
</g>
<g id="g_1_">
	<path id="path_2_" class="st0" d="M194.4,13.6c-0.8,0.3-1.1,0.6-1.3,1c-0.4,0.6-0.7,0.8-1.5,0.6c-4.2-1.4-8.6-5-11.3-10.3
		c-3,4.8-8.1,9.6-14.3,12.7c-0.8,0.4-1.3-0.5-0.5-1c5.8-3.8,10.2-8.2,13.1-14.2c0.2-0.3,0.4-0.4,0.7-0.4c1.2,0.2,2.8,0.8,2.8,1.4
		c0,0.3-0.3,0.4-1,0.5c3,4.9,8,7.8,13.2,8.9C195.2,12.8,195,13.4,194.4,13.6z M185,19.4c0.5-0.7,1.1-1.4,1.5-1.4
		c0.7,0,2.7,1.4,2.7,2.1c0,0.4-0.5,0.7-1.1,1c-0.1,2.4,0,7,0,8.2c0,1-0.6,1.2-1.5,1.2c-0.8,0-1-0.6-1-1.1v-1.1H174v1.5
		c0,0.7-0.5,1-1.5,1c-0.6,0-0.9-0.3-0.9-0.9c0-2.2,0.2-8.4-0.1-11.3c0-0.3,0.2-0.5,0.4-0.4c0.5,0,2.1,0.6,2.9,1.2L185,19.4L185,19.4
		z M173.8,15.4c-0.4,0-0.7-0.1-0.7-0.6c0-0.5,0.3-0.6,0.7-0.6h7.6c0.7-1,1.5-2.2,2.1-2.2c0.6,0,2.9,1.9,2.9,2.8
		c0,0.4-0.7,0.7-1.7,0.7C184.7,15.4,173.8,15.4,173.8,15.4z M185.6,27c0-2.1,0-4.9,0-6.4h-11.5l-0.2,0c-0.1,0.9-0.1,3.5-0.1,4.1V27
		C173.9,27,185.6,27,185.6,27z"/>
</g>
<g id="g">
	<path id="path_1_" class="st0" d="M201.8,15c-0.6,0.4-1,0.9-1.4,0.9c-0.8,0-1.8-1.2-1.8-2.1c0-0.7,0.3-1.1,0.7-1
		c0.7,0.2,0.8,0.3,1.7,0c1.1-0.4,3.3-1.7,4.6-2.4c0.1-1.7,0.2-3.3,0.2-4.1c0-0.9-0.4-1.4-1.4-2.2c-0.5-0.4-0.2-1,0.3-1
		c0.8,0,1.4,0.2,2,0.5c1.2,0.6,2.1,1.5,2.1,2.3c0,0.6-0.4,1.6-0.7,2.5c-0.2,0.7-0.4,1.4-0.6,2.1c0.1,0.1,0.2,0.2,0.4,0.3
		c0.6,0.5,0.7,1.2,0.2,1.6c-0.3,0.4-0.7,0.9-1.1,1.5c0,0.3,0,0.5-0.1,0.8c3.4-2.5,6.6-3.7,9.5-3.7l0,0c4.6,0,7.5,3.4,7.5,7.1
		c0,6.5-6.5,9.6-11,10.7c-0.8,0.2-1.1-0.6-0.4-1c3.7-2,8.5-4.2,8.5-10.5c0-2.9-2.2-4.7-5.5-4.7c-2.8,0-5.8,1.5-8.6,3.7
		c0.1,4.1,0.6,7.8,0.6,9.9c0,1.8-0.7,3.1-1.6,3.1c-0.8,0-1-0.6-1.1-1.6c-0.3-1.7-1.3-3.6-2.3-5.4c-1,1.7-1.8,3.1-2,3.3
		c-0.5,0.8-0.9,1.1-1.4,1.1c-0.6,0-1.1-0.6-1.1-1.3c0-0.8,0.4-1.3,1-2.1c0.8-1,4.2-5.5,6.3-8.5c0.1-0.7,0.1-1.6,0.2-2.4
		C204.4,13.3,202.2,14.7,201.8,15L201.8,15z M205.2,24.1c0.1-0.8-0.1-3.8-0.1-5.8c-0.6,0.9-1.3,2.1-2,3.2c0.7,1,1.8,2.5,1.8,2.7
		C205.1,24.5,205.2,24.4,205.2,24.1z"/>
	<path id="path" class="st0" d="M246.4,8c0-0.7-0.4-1-1.8-1.7c-0.5-0.3-0.5-0.7-0.2-0.9c0.4-0.3,1-0.5,1.5-0.5c1.2,0,3,0.9,3,1.9
		c0,0.8-0.3,3.2-0.5,5.1c2-0.4,3.2-0.5,4.1-0.5c1.9,0,3.3,0.8,3.3,1.6c0,0.6-0.3,1.1-1.5,1.1c-1.4,0-3-0.5-6.1-0.2
		c-0.2,1.8-0.6,4.2-0.9,5.4c-0.4,1.7-1.4,3.1-2.7,3.1c-0.7,0-1.1-0.8-1.4-1.1c-0.5-0.6-0.7-0.8-1.3-1.4c-0.5-0.4-0.2-0.9,0.5-0.7
		c0.7,0.2,1.4,0.3,2.1,0.3c0.4,0,0.8-0.2,1-0.6c0.5-1.2,0.7-2.9,0.9-4.7c-2.8,0.5-5.8,1.2-8,2c-0.1,1.4-0.2,5.3-0.1,6.8
		c0.2,1.9,1,2.8,3.9,2.8c4.3,0,5.6-0.5,6.6-0.5c1.1,0,1.9,0.4,1.9,1.3c0,1.4-2.7,1.6-6.1,1.6c-4.9,0-7.7-1.3-8-4.6
		c-0.2-2.1-0.3-4.8-0.3-6.7c-3.3,1.2-5.2,1.9-6.1,1.9c-1.4,0-2.7-1.6-2.7-2.9c0-0.5,0.2-0.6,0.7-0.5l0,0c0.4,0.1,1.6,0.7,2.5,0.7
		c0.9,0,3.4-0.6,5.6-1.3c-0.1-2.3-0.1-3.8-0.2-4.7c-0.1-0.7-0.5-0.7-1.3-1.1c-0.4-0.2-0.4-0.6-0.1-0.9l0,0c0.4-0.3,1.1-0.5,1.6-0.5
		c1.1,0,2.5,0.6,2.5,1.8c0,0.3-0.2,3-0.3,4.8c2.4-0.6,5.5-1.4,8.1-1.9C246.4,10.7,246.5,8.9,246.4,8L246.4,8z"/>
</g>
<path id="icon" class="st0" d="M43.3,0h-41c-1.1,0-2,0.9-2,2v31c0,1.1,0.9,2,2,2h41c1.1,0,2-0.9,2-2V2C45.3,0.9,44.4,0,43.3,0z
	 M42.3,3v1.3L22.7,17.7L3.3,4.4V3H42.3z M3.3,32V8l18.6,12.7c0.3,0.2,0.5,0.3,0.9,0.3s0.6-0.1,0.9-0.3L42.3,8v24H3.3z"/>
</svg>
