<svg version="1.1" id="catalog" xmlns="http://www.w3.org/2000/svg" xmlns:xlink="http://www.w3.org/1999/xlink" x="0px" y="0px"
	 viewBox="0 0 275 48.5" width="275" height="48.5" style="enable-background:new 0 0 275 48.5;" xml:space="preserve">
<style type="text/css">
	.st0{fill:#0075C2;}
	.st1{fill:#3E8AC9;}
</style>
<g id="g_1_">
	<path id="p_9_" class="st0" d="M78.4,12.2c0-0.4,1-1.1,1.9-1.1c1.5,0,3.3,1.1,3.3,1.9c0,0.4-0.4,1.2-0.6,1.9
		c-0.2,1-0.5,2.1-0.8,3.2c1.5-0.2,2.8-0.4,3.4-0.5c1.1-0.2,1.2-0.8,1.9-0.8c1.1,0,3.5,1.4,3.5,2.4c0,0.8-1,1.5-1.2,2.7
		c-0.4,2.2-1.4,6.6-2.8,9c-0.4,0.8-0.8,1.2-1.3,1.7c-0.7,0.7-1.9,1.2-3,1.2c-0.9,0-1.3-0.7-1.7-1.5c-0.4-0.8-0.9-1.2-1.4-1.7l0,0
		c-0.6-0.6,0-1.3,0.7-0.9c0.7,0.4,2.2,1.3,2.8,1.3c0.8,0,1.1-0.2,1.7-1.1c1.8-2.7,2.7-8.5,2.7-9.9c0-0.9-0.1-1-1.2-0.9
		c-1,0.1-2.8,0.4-4.7,0.8c-2.1,6.7-6.4,12-12.8,15c-1,0.4-1.5-0.5-0.6-1.1c5.5-3.6,9-8.3,10.8-13.4c-0.7,0.1-1.4,0.3-2,0.4
		c-1.5,0.3-3.2,0.7-4.1,0.7c-1.2,0-2.4-1.8-2.4-3.2c0-0.7,0.5-0.8,0.9-0.4c1.1,0.8,1.4,1,2.6,1c0.9,0,3.2-0.2,5.5-0.5
		c0.3-1.4,0.6-2.9,0.7-3.9c0.1-0.8-0.1-1.1-0.8-1.4C78.9,12.7,78.4,12.5,78.4,12.2L78.4,12.2z"/>
	<path id="p_8_" class="st0" d="M106.7,13.5c0.2-0.4,0.1-0.7-0.3-1.1c-0.5-0.5-1-0.8-1-1.1c0-0.3,0.4-0.5,1-0.5c1.4,0,4,1.1,4,1.9
		c0,0.5-0.8,1.3-1.4,2.1c0,0.1-0.1,0.1-0.1,0.1c0.2,0,0.4,0,0.5,0c0.9,0,2.5-0.1,3.6-0.4c1.1-0.2,1.5-0.8,2.2-0.8
		c1,0,3.3,1.4,3.3,2.3c0,0.7-1.2,1.4-2.1,2.7c-1.2,1.8-2.3,3.5-3.6,5c1,1,1.7,2.1,1.7,3.2c0,1.1-0.5,1.8-1.3,1.8
		c-0.5,0-0.9-0.4-1.3-1.1c-0.3-0.5-0.6-1.1-0.9-1.5c-3.6,4-7.8,7.1-13,9.7c-0.8,0.4-1.4-0.6-0.7-1.1l0,0c4.6-2.9,8.8-6.4,12.2-10.4
		c-1.8-1.9-3.7-2.9-5.3-3.8c-1.6,1.5-3.5,2.9-5.3,3.9c-0.9,0.5-1.5-0.5-0.7-1.1C101.5,20.9,105.6,16.5,106.7,13.5z M107.8,16.5
		c-0.7,1-1.6,2-2.6,3.1c2,0.7,4.2,1.7,5.9,2.8c1.4-1.8,2.6-3.6,3.5-5.5c0.4-0.7,0.2-1-0.6-0.9c-1,0.1-2.4,0.5-3.4,0.7
		c-0.6,0.1-1.1,0.3-1.6,0.3C108.6,17.1,108.2,16.8,107.8,16.5z"/>
	<path id="p_7_" class="st0" d="M129.4,17.1c0.2,0.1,0.4,0.2,0.5,0.3c3.3-0.1,7.9-0.7,9-0.9c1.1-0.2,1.6-0.8,2.3-0.8
		c1,0,3.4,1.5,3.4,2.7c0,0.7-1,1.5-1.4,2.8c-0.4,1.4-0.8,3.5-1.3,5.5c0.8,0.3,1.4,0.9,1.4,1.6c0,0.6-0.3,0.9-1.1,0.9
		c-0.5,0-2-0.1-3.3-0.1c-1.8,0-4.7,0.2-5.9,0.4c-0.7,0.1-1.2,0.2-1.5,0.2c-0.2,0-0.5-0.1-0.8-0.2c0,0.3,0,0.6,0,0.8
		c0,1.1-0.6,1.5-1.2,1.5c-0.9,0-1.4-1.2-1.4-2.5c0-1.2,0.1-2,0-3.5c-0.1-1.6-0.3-4.4-0.7-5.8c-0.3-1-0.9-1.7-1.8-2.8
		c-0.4-0.5-0.1-1.1,0.6-0.9C127,16.2,128.5,16.7,129.4,17.1z M130.3,19c0.1,2.1,0.3,5.9,0.4,8.5c2.6-0.1,6.2-0.4,7.9-0.6
		c0.4,0,0.7-0.1,1.1-0.2c0.5-2.4,1.1-6.2,1.2-7.4c0.1-0.8-0.1-0.9-0.7-0.9c-2.9,0.2-6.7,1-8.3,1C131.2,19.4,130.7,19.2,130.3,19z"/>
	<path id="p_6_" class="st0" d="M151.4,23.8c3.2-2.4,7.4-6.6,8.5-9.5c0.2-0.4,0-0.7-0.4-1.1c-0.5-0.5-0.9-0.8-0.9-1.1
		c0-0.3,0.4-0.5,1-0.5c1.4,0,4,1.1,4,1.9c0,0.5-0.7,1.2-1.3,2.1c-0.2,0.3-0.4,0.5-0.6,0.8h0c0.9,0,2.9-0.2,4.2-0.3
		c1.1-0.2,1.5-0.7,2.2-0.7c1,0,3.3,1.3,3.3,2.2c0,0.7-1.3,1.4-2.2,2.7c-4.2,6.6-9.6,12.1-17.5,15.8c-0.9,0.4-1.4-0.7-0.6-1.2l0,0
		c7-4.4,13-10.4,15.9-16.6c0.2-0.5,0-0.8-0.6-0.7c-1.1,0.1-2.5,0.3-3.3,0.5c-0.6,0.1-1.5,0.4-1.9,0.4c-0.3,0-0.6-0.1-0.9-0.4
		c-2.1,2.5-5.2,5.1-8.3,6.8C151.2,25.4,150.5,24.5,151.4,23.8L151.4,23.8z M170.1,12.6c-0.6-0.4-0.4-0.9,0.4-0.8
		c1.6,0.2,2.8,0.6,3.6,1.3c0.8,0.7,1.1,1.2,1,2.1c0,0.6-0.5,1-1.1,1c-0.5,0-0.9-0.5-1.6-1.4C171.8,14,171.1,13.4,170.1,12.6z
		 M175.5,12c-0.6-0.7-1.3-1.3-2.4-1.9c-0.7-0.4-0.5-0.9,0.2-0.9c1.5,0,2.8,0.4,3.7,1.1c0.7,0.6,1,1.1,1,1.9c0,0.6-0.4,1.1-1.1,1.1
		C176.5,13.4,176.2,13,175.5,12L175.5,12z"/>
</g>
<g id="g">
	<path id="p_5_" class="st0" d="M203.8,14.1c0.6-0.9,1.3-1.8,1.7-1.8c0.6,0,2.5,1.8,2.5,2.4c0,0.4-0.6,0.7-1.5,0.7h-9.9
		c-0.4,0-0.7-0.1-0.7-0.6c0-0.5,0.3-0.6,0.7-0.6H203.8z M198,11.6c-0.4,0-0.7-0.1-0.7-0.6c0-0.5,0.3-0.6,0.7-0.6h5
		c0.6-0.8,1.3-1.7,1.7-1.7c0.5,0,2.6,1.7,2.6,2.3c0,0.4-0.5,0.6-1.5,0.6L198,11.6L198,11.6z M203.2,26.4c0.5-0.6,1.1-1.3,1.4-1.3
		c0.7,0,2.6,1.5,2.6,2.2c0,0.5-0.6,0.7-1.2,1c-0.1,1.8,0,5,0,5.9c0,1-0.5,1.2-1.4,1.2c-0.7,0-1-0.6-1-1.1v-0.6h-4v1.7
		c0,0.7-0.5,1-1.4,1c-0.5,0-0.8-0.3-0.8-0.9c0-2,0.2-7-0.1-9.7c0-0.3,0.2-0.5,0.5-0.4c0.5,0.1,1.8,0.5,2.5,1
		C200.3,26.4,203.2,26.4,203.2,26.4z M198.2,23.3c-0.4,0-0.7-0.1-0.7-0.6c0-0.5,0.3-0.6,0.7-0.6h4.5c0.5-0.8,1.2-1.6,1.6-1.6
		c0.5,0,2.5,1.6,2.5,2.3c0,0.4-0.5,0.6-1.5,0.6C205.3,23.3,198.2,23.3,198.2,23.3z M198.3,19.3c-0.4,0-0.7-0.1-0.7-0.6
		c0-0.5,0.3-0.6,0.7-0.6h4.4c0.5-0.8,1.2-1.6,1.6-1.6c0.5,0,2.5,1.6,2.5,2.3c0,0.4-0.5,0.6-1.5,0.6
		C205.3,19.3,198.3,19.3,198.3,19.3z M203.7,32.5c0-1.6,0-3.6,0-4.7h-3.8l-0.2,0c0,0.7-0.1,2.9-0.1,3.5v1.2L203.7,32.5L203.7,32.5z
		 M221.4,19c0.6-0.9,1.3-1.8,1.7-1.8c0.6,0,2.6,1.7,2.6,2.4c0,0.4-0.5,0.6-1.5,0.6H208c-0.4,0-0.7-0.1-0.7-0.6
		c0-0.5,0.3-0.6,0.7-0.6h6.9c0-0.8,0-1.7,0-2.7h-4.9c-0.4,0-0.7-0.1-0.7-0.6c0-0.5,0.3-0.6,0.7-0.6h4.9c0-0.8,0-1.6,0-2.4H209
		c-0.4,0-0.7-0.1-0.7-0.6c0-0.5,0.3-0.6,0.7-0.6h5.9c-0.1-1.2-0.1-2.3-0.2-3c0-0.3,0.2-0.4,0.4-0.4c0.5,0,3.5,0.1,3.5,0.9
		c0,0.6-0.7,0.9-1.6,1.1v1.4h4.1c0.6-0.8,1.2-1.7,1.7-1.7c0.5,0,2.5,1.7,2.5,2.4c0,0.4-0.5,0.6-1.5,0.6H217V15h3.1
		c0.6-0.8,1.2-1.6,1.6-1.6c0.5,0,2.4,1.6,2.4,2.3c0,0.4-0.5,0.6-1.4,0.6H217V19H221.4z M219.5,22.6c0.5-0.7,1.1-1.4,1.4-1.4
		c0.8,0,2.8,1.7,2.8,2.3c0,0.5-0.6,0.8-1.3,1c-0.1,2.5,0,6.3-0.1,9.6c0,1.9-1.5,2.7-2.8,2.7c-1.2,0-0.5-1.2-2.3-1.8
		c-0.7-0.3-0.6-1,0-1c0.3,0,1.3,0.1,1.9,0.1c0.7,0,1-0.3,1.1-1c0-0.5,0-1.1,0.1-1.8h-7.8l0,4.4c0,0.7-0.4,1-1.4,1
		c-0.6,0-0.9-0.3-0.9-0.9c0-0.7,0.1-5.3,0.1-6.6c0-1.6,0-5.3-0.3-7.3c0-0.4,0.2-0.6,0.6-0.5c0.6,0.2,1.7,0.7,2.3,1.1L219.5,22.6
		L219.5,22.6z M220.2,30v-2v-0.5h-7.8v1.6V30C212.5,30,220.2,30,220.2,30z M212.5,23.9v2.4h7.7v-2.4h-7.6L212.5,23.9z"/>
	<path id="p_4_" class="st0" d="M244,16.1c0.7,3.1,1.7,5.8,3,8.1c1.9-1.7,3.8-3.5,5.2-6c0.2-0.3,0.3-0.5,0.7-0.4
		c1.1,0.4,2.7,1.5,2.7,2.1c-0.1,0.5-0.6,0.6-1.6,0.4c-1.5,1.6-3.9,3.3-6.4,4.8c2.1,3.2,5.1,5.4,9.4,6.3c0.9,0.3,0.7,0.8,0.1,1
		c-0.7,0.2-1,0.5-1.3,0.9c-0.4,0.5-0.6,0.7-1.5,0.3c-5.2-1.9-8.5-6.6-10.3-13.2c0,4.5,0,9.3,0,13.4c0,1.8-1.1,2.9-2.6,2.9
		c-1.2,0-0.6-1.1-3.2-1.9c-0.7-0.3-0.6-1,0-1c0.8,0,1.9,0.2,2.5,0.2c0.7,0,1-0.3,1.1-1.2c0.1-2.3,0.1-6.9,0.1-10.4
		c0-1.1,0-3.6,0-6.3h-12.6c-0.4,0-0.7-0.1-0.7-0.6c0-0.5,0.3-0.6,0.7-0.6h12.6c-0.1-2.5-0.2-5-0.3-6.3c-0.1-0.4,0.1-0.6,0.6-0.6
		c2.2,0,3.6,0.4,3.6,1c0,0.5-0.7,0.8-1.7,1.1c0,1.3-0.1,3-0.1,4.8h8.1c0.7-1,1.5-2.1,2-2.1c0.6,0,3,1.9,3,2.7c0,0.4-0.5,0.7-1.8,0.7
		C255.4,16.1,244,16.1,244,16.1z M231.7,32.7c0,0.8,0,1.5-0.6,1.5c-0.6,0-1.6-1.1-2.1-2.7c-0.1-0.3,0.1-0.4,0.3-0.5
		c4-1.5,7.1-3.2,9.9-4.7c1.1-0.5,1.6,0.2,0.7,1C237.6,29.4,234.9,31,231.7,32.7z M234.4,22.3c-0.4-0.9-1-1.7-1.6-2.4
		c-0.5-0.7-0.1-1.4,0.8-1.1c2.1,0.7,4.1,2.1,4.1,3.8c0,0.9-0.5,1.6-1.4,1.6C235.4,24.4,235.1,23.5,234.4,22.3z M247.4,10.1
		c-0.5-0.6-0.2-1.3,0.7-1.1c1.8,0.5,3.6,1.4,3.7,2.8c0.1,0.9-0.4,1.6-1.2,1.7c-0.9,0.1-1.2-0.7-1.9-1.6
		C248.4,11.3,247.9,10.7,247.4,10.1z"/>
</g>
<g id="icon">
	<path id="p_3_" class="st1" d="M40.2,0H6.5c-1.1,0-2,0.9-2,2v44.5c0,1.1,0.9,2,2,2h33.7c1.1,0,2-0.9,2-2V2C42.2,0.9,41.3,0,40.2,0z
		 M39.2,45.5H7.5V3h31.7V45.5z"/>
	<rect id="p_2_" x="11.4" y="9.1" class="st1" width="23.9" height="3"/>
	<rect id="p_1_" x="11.4" y="16.9" class="st1" width="23.9" height="3"/>
	<rect id="p" x="11.4" y="25.6" class="st1" width="23.9" height="14.3"/>
</g>
</svg>
