<svg version="1.1" xmlns="http://www.w3.org/2000/svg" xmlns:xlink="http://www.w3.org/1999/xlink" x="0px"
	 y="0px" viewBox="0 0 70.35 45.91" width="70.35" height="45.91" style="enable-background:new 0 0 70.35 45.91;" xml:space="preserve">
<style type="text/css">
	.st0{fill:#3E8AC9;}
</style>
<path class="st0" d="M17.41,35.61c0.09,0,0.18,0.01,0.27,0.01c4.81-0.03,8.68-3.95,8.65-8.76c0-0.09,0-0.18-0.01-0.27
	c0-4.72-4.68-8.5-8.65-10.75c-3.97,2.26-8.65,6.03-8.65,10.75C8.85,31.38,12.6,35.43,17.41,35.61z"/>
<path class="st0" d="M56.96,13.7c4.35,2.91,8.55,7.31,8.55,12.87c-0.06,7.13-5.82,12.9-12.95,12.96
	c-7.09-0.08-12.78-5.87-12.74-12.96c0-5.56,4-9.96,8.34-12.87c-4.12-1.7-8.54-2.56-12.99-2.54c-4.46-0.02-8.87,0.84-12.99,2.54
	c4.35,2.91,8.34,7.31,8.34,12.87c0.04,7.09-5.65,12.88-12.74,12.96c-7.15-0.05-12.95-5.81-13.05-12.96c0-5.56,4.3-9.96,8.65-12.87
	C9.12,12,4.58,11.14,0,11.16v34.75h70.35V11.16h-0.01C65.76,11.14,61.21,12,56.96,13.7z"/>
<path class="st0" d="M0,0v7.15c6.16-0.06,12.24,1.31,17.77,4.02c5.39-2.71,11.36-4.08,17.39-4.02c6.03-0.07,12,1.31,17.39,4.02
	c5.54-2.7,11.62-4.08,17.78-4.02h0.01V0H0z"/>
<path class="st0" d="M52.56,35.5c0.09,0,0.18,0.01,0.27,0.01c4.81-0.03,8.68-3.95,8.65-8.76c0-0.09,0-0.18-0.01-0.27
	c0-4.72-4.67-8.5-8.65-10.76c-3.97,2.26-8.65,6.03-8.65,10.76C44,31.28,47.75,35.32,52.56,35.5z"/>
</svg>
