<svg version="1.1" id="icon-mail-wh" xmlns="http://www.w3.org/2000/svg" xmlns:xlink="http://www.w3.org/1999/xlink" x="0px"
	 y="0px" viewBox="0 0 45 35" width="45" height="35" style="enable-background:new 0 0 45 35;" xml:space="preserve">
<style type="text/css">
	.st0{fill:#FFFFFF;}
</style>
<path class="st0" d="M43,0H2C0.9,0,0,0.9,0,2v31c0,1.1,0.9,2,2,2h41c1.1,0,2-0.9,2-2V2C45,0.9,44.1,0,43,0z M42,3v1.33L22.47,17.68
	L3,4.37V3H42z M3,32V8l18.63,12.74c0.26,0.17,0.55,0.26,0.85,0.26s0.59-0.09,0.85-0.26L42,7.97V32H3z"/>
</svg>
