<svg version="1.1" id="icon-fb" xmlns="http://www.w3.org/2000/svg" xmlns:xlink="http://www.w3.org/1999/xlink" x="0px"
	 y="0px" viewBox="0 0 54.34 54" width="54.34" height="54" style="enable-background:new 0 0 54.34 54;" xml:space="preserve">
<style type="text/css">
	.st0{fill:#575757;}
</style>
<path id="path_16" class="st0" d="M27.16,0C12.16,0,0,12.17,0,27.17C0,40.53,9.72,51.91,22.92,54V35.02h-6.9v-7.85h6.9v-5.98
	c0-6.81,4.06-10.57,10.26-10.57c2.04,0.03,4.07,0.21,6.08,0.53v6.69h-3.42c-3.38,0-4.43,2.09-4.43,4.24v5.1h7.53l-1.2,7.85h-6.33V54
	C46.24,51.65,56.35,37.74,54,22.92C51.92,9.72,40.54,0,27.16,0L27.16,0z"/>
</svg>
