<svg version="1.1" id="icon-mail" xmlns="http://www.w3.org/2000/svg" xmlns:xlink="http://www.w3.org/1999/xlink" x="0px"
	 y="0px" viewBox="0 0 69 54" width="69" height="54" style="enable-background:new 0 0 69 54;" xml:space="preserve">
<style type="text/css">
	.st0{fill:#3E8AC9;}
</style>
<path class="st0" d="M66.5,0h-64C1.12,0,0,1.12,0,2.5v49C0,52.88,1.12,54,2.5,54h64c1.38,0,2.5-1.12,2.5-2.5v-49
	C69,1.12,67.88,0,66.5,0z M64.5,4.5v2.17L34.25,27.36L4.5,7.02V4.5H64.5z M4.5,49.5V12.47l28.48,19.47
	c0.38,0.26,0.83,0.39,1.27,0.39s0.89-0.13,1.27-0.39L64.5,12.13V49.5H4.5z"/>
</svg>
