<svg version="1.1" xmlns="http://www.w3.org/2000/svg" xmlns:xlink="http://www.w3.org/1999/xlink" x="0px"
	 y="0px" viewBox="0 0 16 12" width="16" height="12" style="enable-background:new 0 0 16 12;" xml:space="preserve">
<style type="text/css">
	.st0{fill:#575757;}
	.st1{fill:#FFFFFF;}
</style>
<path id="長方形_95" class="st0" d="M0.5,0h15C15.78,0,16,0.22,16,0.5v11c0,0.28-0.22,0.5-0.5,0.5h-15C0.22,12,0,11.78,0,11.5
	v-11C0,0.22,0.22,0,0.5,0z"/>
<path class="st1" d="M7.98,7.21c-0.07,0-0.14-0.02-0.2-0.06L0.93,3.14C0.74,3.03,0.68,2.78,0.79,2.59C0.9,2.4,1.15,2.34,1.34,2.45
	l6.64,3.9l6.7-3.9c0.19-0.11,0.44-0.05,0.55,0.14c0.11,0.19,0.05,0.44-0.14,0.55l-6.9,4.02C8.12,7.19,8.05,7.21,7.98,7.21z"/>
</svg>
