<?xml version="1.0" encoding="utf-8"?>
<!-- Generator: Adobe Illustrator 24.2.1, SVG Export Plug-In . SVG Version: 6.00 Build 0)  -->
<svg version="1.1" id="レイヤー_1" xmlns="http://www.w3.org/2000/svg" xmlns:xlink="http://www.w3.org/1999/xlink" x="0px"
	 y="0px" width="103.74" height="13.58" viewBox="0 0 103.74 13.58" style="enable-background:new 0 0 103.74 13.58;" xml:space="preserve">
<style type="text/css">
	.st0{enable-background:new    ;}
	.st1{fill:#575757;}
</style>
<g class="st0">
	<path class="st1" d="M1.02,0.32c0.54,0,0.9,0.04,1.48,0.04c0.78,0,2.14-0.06,2.62-0.06c0.36,0,0.5,0.08,0.5,0.22
		c0,0.14-0.16,0.26-0.46,0.34C4,1.12,3.86,1.34,3.82,1.64C3.7,2.54,3.7,4.56,3.7,7.52c0,1.56,0.06,3.48,0.14,4.14
		c0.04,0.28,0.52,0.74,0.68,0.76c0.52,0.08,1.26,0.1,1.92,0.1c0.56,0,1.12-0.02,1.42-0.06c0.16-0.02,0.4-0.02,0.8-0.38
		c0.28-0.28,0.6-0.58,1.14-1.34c0.22-0.36,0.4-0.44,0.5-0.44s0.16,0.22,0.08,0.54c-0.32,0.98-0.46,1.4-0.62,2.16
		c-0.02,0.22-0.4,0.34-0.48,0.34c-0.24,0-2.06-0.12-6.12-0.12c-1.36,0-2.3,0.1-2.58,0.1C0.2,13.32,0,13.28,0,13.1
		c0-0.14,0.16-0.3,0.48-0.36c1.1-0.22,1.38-0.6,1.48-1.38c0.04-0.5,0.1-3.68,0.1-6.58c0-0.8,0-2.18-0.02-2.84
		c-0.02-0.44-0.12-0.82-1.06-1C0.58,0.86,0.42,0.7,0.42,0.56C0.42,0.42,0.58,0.32,1.02,0.32z"/>
	<path class="st1" d="M27.48,6.62c0,2.8-1.38,4.76-2.84,5.8c-1.26,0.88-2.92,1.16-3.94,1.16c-2.04,0-3.98-0.88-5.2-2.28
		c-1.06-1.18-1.66-2.8-1.66-4.52c0-2.46,1.08-4.16,2.6-5.38c0.98-0.8,2.7-1.4,4.1-1.4C24.38,0,27.48,2.82,27.48,6.62z M17.34,1.8
		c-0.88,0.86-1.56,2.36-1.56,4.7c0,2.98,2.2,6.4,5.4,6.4c1.66,0,2.42-0.72,2.64-0.96c0.8-0.72,1.7-2.34,1.7-4.72
		c0-2.18-0.94-4.28-2.42-5.48c-0.82-0.66-2.08-1.08-3-1.08C19.26,0.66,18.04,1.1,17.34,1.8z"/>
	<path class="st1" d="M37.7,0.52c0.16,0.54,0.5,1.44,0.88,2.48c1.04,2.92,2.54,6.88,2.88,7.7c0.66,1.64,0.98,1.8,1.88,2.02
		c0.32,0.1,0.48,0.2,0.48,0.34c0,0.14-0.14,0.26-0.64,0.26c-0.66,0-1.64-0.1-2.52-0.1c-0.64,0-0.92,0.04-1.42,0.04
		s-0.62-0.14-0.62-0.24s0.12-0.26,0.48-0.32c0.96-0.2,0.88-0.6,0.8-1.02c-0.16-0.82-0.66-2.14-1.12-3.42
		c-0.02-0.08-0.1-0.2-0.68-0.2c-1.1,0-2.86,0.02-3.28,0.08c-0.08,0-0.18,0.1-0.22,0.16c-0.52,1.3-1.04,3-1.04,3.5
		c0,0.24,0.08,0.58,0.98,0.86c0.34,0.1,0.54,0.22,0.54,0.36c0,0.2-0.3,0.26-0.56,0.26c-0.34,0-0.84-0.06-1.58-0.06
		s-1.78,0.1-2.08,0.1c-0.36,0-0.46-0.08-0.46-0.2s0.14-0.3,0.44-0.4c1-0.34,1.26-0.4,1.84-1.7c0.46-1.02,2.74-7.06,3.58-9.1
		c0.12-0.28,0.14-0.4,0.18-0.52c0.02-0.06,0.06-0.18,0.14-0.34c0.12-0.2,0.34-0.58,0.48-0.8C37.2,0.1,37.28,0,37.38,0
		C37.46,0,37.54,0.08,37.7,0.52z M38.34,7C38,5.98,36.96,2.98,36.78,2.7c-0.06-0.12-0.1-0.14-0.16,0c-0.36,0.96-1.4,3.76-1.56,4.38
		c-0.02,0.08,0.02,0.14,0.1,0.14c0.8-0.02,2.46,0,3.12-0.06C38.3,7.16,38.36,7.06,38.34,7z"/>
	<path class="st1" d="M58.34,2.12c1.08,1.04,1.82,2.84,1.82,4.42c0,2.9-1.8,5-3.2,5.78c-1.18,0.68-2.84,1.12-4.76,1.12
		c-0.82,0-2.6-0.06-3.92-0.16c-0.38-0.02-0.74-0.02-1.06-0.02c-0.46,0-0.64-0.14-0.64-0.3s0.2-0.26,0.44-0.28
		c1.38-0.16,1.48-0.54,1.54-2.12C48.6,9.62,48.62,9,48.62,7.82c0-1.14-0.04-3.5-0.1-5.14c-0.04-1.28-0.06-1.56-1.28-1.74
		c-0.22-0.04-0.46-0.18-0.46-0.32c0-0.16,0.18-0.26,0.48-0.26h0.56c1,0,3.26-0.18,4.98-0.18C55.6,0.18,57.54,1.38,58.34,2.12z
		 M50.54,0.96c-0.14,0.1-0.18,0.14-0.2,0.26c-0.04,0.24-0.08,2.02-0.08,3.8v2.9c0,1.4,0.02,2.58,0.08,3.46
		c0.06,0.62,0.38,0.9,0.44,0.94c0.38,0.28,1.2,0.52,1.64,0.52c0.92,0,2.62-0.36,3.74-1.3c1.2-1.02,2.06-2.76,2.06-5
		c0-1.72-0.86-3.6-2.14-4.56c-1-0.74-2.68-1.18-4.16-1.18C51.2,0.8,50.72,0.86,50.54,0.96z"/>
	<path class="st1" d="M65.82,2.32C65.76,1.4,65.76,1.1,64.64,0.9c-0.44-0.08-0.56-0.22-0.56-0.36c0-0.16,0.22-0.24,0.5-0.24
		c0.52,0,1.52,0.06,2.18,0.06c0.98,0,1.44-0.06,2.14-0.06c0.32,0,0.5,0.08,0.5,0.24s-0.2,0.28-0.52,0.34
		c-1.16,0.24-1.14,0.74-1.22,1.28c-0.1,0.66-0.12,1.96-0.12,5.88c0,1.1,0.02,2.34,0.06,2.98c0.06,1.08,0.16,1.46,1.46,1.72
		c0.36,0.06,0.52,0.2,0.52,0.34c0,0.16-0.3,0.26-0.54,0.26c-1.02,0-2.44-0.12-2.98-0.12c-0.6,0-0.78,0.04-1.52,0.04
		c-0.38,0-0.52-0.14-0.52-0.28c0-0.14,0.2-0.26,0.6-0.34c1-0.22,1.08-0.52,1.16-1.46c0.06-0.7,0.1-2.78,0.1-4.48
		C65.88,5.46,65.86,2.98,65.82,2.32z"/>
	<path class="st1" d="M73.24,0.3c0.44,0,1.42,0.06,2.44,0.06c0.12,0,0.3,0.14,0.42,0.26c0.3,0.36,0.8,0.96,1.58,1.98
		c0.9,1.14,5.3,5.94,6.64,7.4c0.12,0.12,0.2-0.08,0.2-0.14c0.1-0.64,0.04-2.8,0.04-5.68c0-0.68-0.04-1.38-0.1-2
		c-0.02-0.42-0.16-0.9-1.26-1.22c-0.4-0.12-0.54-0.28-0.54-0.44c0-0.14,0.28-0.18,0.52-0.18c0.52,0,1.08,0.02,1.72,0.02
		c0.72,0,1.36-0.08,1.88-0.08c0.34,0,0.46,0.06,0.46,0.22c0,0.12-0.12,0.3-0.48,0.4c-0.86,0.2-1.22,0.38-1.28,1.46
		c-0.04,0.72-0.22,4.66-0.22,8.1c0,0.84,0.14,2.34,0.14,2.66c0,0.2-0.1,0.42-0.28,0.42c-0.28,0-0.72-0.4-0.9-0.64
		c-0.34-0.42-0.7-0.94-1.24-1.6C81.1,9.06,77.64,5.16,75.84,3c-0.08-0.1-0.22-0.06-0.22,0.04c-0.02,0.54-0.08,1.1-0.1,2.66
		c0,1.8-0.06,4.88-0.02,5.5c0.08,0.92,0.3,1.22,1.26,1.5c0.42,0.1,0.5,0.24,0.5,0.36c0,0.2-0.26,0.26-0.64,0.26
		c-0.58,0-1.42-0.1-2.14-0.1c-0.44,0-0.96,0.04-1.3,0.04c-0.28,0-0.52-0.02-0.52-0.22c0-0.16,0.2-0.28,0.4-0.34
		c0.94-0.32,1.32-0.4,1.4-1.88c0.1-1.62,0.38-6.42,0.38-8.08c0-0.72-0.1-0.9-0.14-0.96c-0.56-0.66-0.78-0.68-1.68-0.92
		C72.8,0.8,72.58,0.7,72.58,0.54S72.78,0.3,73.24,0.3z"/>
	<path class="st1" d="M101.56,0.44c0.4,0.08,0.54,0.1,0.76,0.16c0.08,0,0.24,0.16,0.24,0.48c0.02,0.48,0.28,1.44,0.28,2.2
		c0,0.26-0.12,0.44-0.26,0.44c-0.12,0-0.24-0.16-0.36-0.46c-0.2-0.54-0.46-1.02-0.76-1.4c-0.44-0.54-1.6-1.24-3.2-1.24
		c-3.42,0-5.44,2.8-5.44,5.96c0,1.42,0.32,2.68,0.9,3.64c1.06,1.8,2.98,2.76,4.84,2.76c0.24,0,1.24-0.12,1.8-0.48
		c0.16-0.1,0.42-0.78,0.42-1.04c0-0.7-0.02-1.84-0.06-2.08c-0.14-0.46-0.3-0.84-1.8-0.94c-0.3-0.02-0.52-0.18-0.52-0.34
		c0-0.14,0.22-0.28,0.6-0.28c0.36,0,1.82,0.08,2.4,0.08c0.48,0,1.16-0.08,1.8-0.08c0.32,0,0.54,0.1,0.54,0.26
		c0,0.14-0.22,0.26-0.46,0.34c-0.6,0.18-0.64,0.4-0.72,0.62c-0.08,0.22-0.1,1.66-0.1,2.48c0,0.32,0.18,0.52,0.28,0.58
		c0.36,0.2,0.34,0.26,0.34,0.36c0,0.08-0.08,0.22-0.3,0.28c-0.36,0.1-1.04,0.26-1.82,0.48c-0.86,0.24-2.1,0.36-2.76,0.36
		c-2.24,0-4.1-0.72-5.32-1.82c-0.92-0.88-2.06-2.52-2.06-4.92c0-1.78,0.62-3.6,2.26-5.04C94.34,0.68,96.26,0,98.2,0
		C99.66,0,100.72,0.26,101.56,0.44z"/>
</g>
</svg>
