<?xml version="1.0" encoding="utf-8"?>
<!-- Generator: Adobe Illustrator 24.2.1, SVG Export Plug-In . SVG Version: 6.00 Build 0)  -->
<svg version="1.1" id="レイヤー_1" xmlns="http://www.w3.org/2000/svg" xmlns:xlink="http://www.w3.org/1999/xlink" x="0px"
	 y="0px" viewBox="0 0 61 61" style="enable-background:new 0 0 61 61;" xml:space="preserve">
<style type="text/css">
	.st0{fill:none;stroke:#ABABAB;stroke-linecap:round;stroke-linejoin:round;}
	.st1{opacity:0.97;fill:none;stroke:#ABABAB;stroke-linecap:round;stroke-linejoin:round;enable-background:new    ;}
	.st2{opacity:0.94;fill:none;stroke:#ABABAB;stroke-linecap:round;stroke-linejoin:round;enable-background:new    ;}
	.st3{opacity:0.91;fill:none;stroke:#ABABAB;stroke-linecap:round;stroke-linejoin:round;enable-background:new    ;}
	.st4{opacity:0.88;fill:none;stroke:#ABABAB;stroke-linecap:round;stroke-linejoin:round;enable-background:new    ;}
	.st5{opacity:0.85;fill:none;stroke:#ABABAB;stroke-linecap:round;stroke-linejoin:round;enable-background:new    ;}
	.st6{opacity:0.82;fill:none;stroke:#ABABAB;stroke-linecap:round;stroke-linejoin:round;enable-background:new    ;}
	.st7{opacity:0.79;fill:none;stroke:#ABABAB;stroke-linecap:round;stroke-linejoin:round;enable-background:new    ;}
	.st8{opacity:0.76;fill:none;stroke:#ABABAB;stroke-linecap:round;stroke-linejoin:round;enable-background:new    ;}
	.st9{opacity:0.73;fill:none;stroke:#ABABAB;stroke-linecap:round;stroke-linejoin:round;enable-background:new    ;}
	.st10{opacity:0.7;fill:none;stroke:#ABABAB;stroke-linecap:round;stroke-linejoin:round;enable-background:new    ;}
	.st11{opacity:0.67;fill:none;stroke:#ABABAB;stroke-linecap:round;stroke-linejoin:round;enable-background:new    ;}
	.st12{opacity:0.64;fill:none;stroke:#ABABAB;stroke-linecap:round;stroke-linejoin:round;enable-background:new    ;}
	.st13{opacity:0.61;fill:none;stroke:#ABABAB;stroke-linecap:round;stroke-linejoin:round;enable-background:new    ;}
	.st14{opacity:0.58;fill:none;stroke:#ABABAB;stroke-linecap:round;stroke-linejoin:round;enable-background:new    ;}
	.st15{opacity:0.55;fill:none;stroke:#ABABAB;stroke-linecap:round;stroke-linejoin:round;enable-background:new    ;}
	.st16{opacity:0.49;fill:none;stroke:#ABABAB;stroke-linecap:round;stroke-linejoin:round;enable-background:new    ;}
	.st17{opacity:0.46;fill:none;stroke:#ABABAB;stroke-linecap:round;stroke-linejoin:round;enable-background:new    ;}
	.st18{opacity:0.43;fill:none;stroke:#ABABAB;stroke-linecap:round;stroke-linejoin:round;enable-background:new    ;}
	.st19{opacity:0.4;fill:none;stroke:#ABABAB;stroke-linecap:round;stroke-linejoin:round;enable-background:new    ;}
</style>
<g id="コンポーネント_82_3" transform="translate(0.5 0.5)">
	<line id="線_40" class="st0" x1="48.66" y1="29.83" x2="60" y2="29.82"/>
	<line id="線_41" class="st1" x1="48.34" y1="26.6" x2="59.51" y2="24.62"/>
	<line id="線_42" class="st2" x1="47.47" y1="23.46" x2="58.13" y2="19.57"/>
	<line id="線_43" class="st3" x1="46.07" y1="20.53" x2="55.89" y2="14.85"/>
	<line id="線_44" class="st4" x1="44.18" y1="17.88" x2="52.87" y2="10.58"/>
	<line id="線_45" class="st5" x1="41.86" y1="15.6" x2="49.15" y2="6.91"/>
	<line id="線_46" class="st6" x1="39.18" y1="13.76" x2="44.85" y2="3.93"/>
	<line id="線_47" class="st7" x1="36.22" y1="12.41" x2="40.1" y2="1.75"/>
	<line id="線_48" class="st8" x1="33.07" y1="11.6" x2="35.03" y2="0.43"/>
	<line id="線_49" class="st9" x1="29.83" y1="11.34" x2="29.82" y2="0"/>
	<line id="線_50" class="st10" x1="26.6" y1="11.66" x2="24.62" y2="0.49"/>
	<line id="線_51" class="st11" x1="23.46" y1="12.53" x2="19.57" y2="1.87"/>
	<line id="線_52" class="st12" x1="20.53" y1="13.93" x2="14.85" y2="4.11"/>
	<line id="線_53" class="st13" x1="17.88" y1="15.82" x2="10.58" y2="7.13"/>
	<line id="線_54" class="st14" x1="15.6" y1="18.14" x2="6.91" y2="10.85"/>
	<line id="線_55" class="st15" x1="13.76" y1="20.82" x2="3.93" y2="15.15"/>
	<line id="線_56" class="st16" x1="12.41" y1="23.78" x2="1.75" y2="19.91"/>
	<line id="線_57" class="st17" x1="11.6" y1="26.93" x2="0.43" y2="24.97"/>
	<line id="線_58" class="st18" x1="11.34" y1="30.17" x2="0" y2="30.18"/>
	<line id="線_59" class="st19" x1="11.66" y1="33.4" x2="0.49" y2="35.38"/>
	<line id="線_60" class="st19" x1="12.53" y1="36.54" x2="1.87" y2="40.43"/>
	<line id="線_61" class="st19" x1="13.93" y1="39.47" x2="4.11" y2="45.15"/>
	<line id="線_62" class="st19" x1="15.82" y1="42.12" x2="7.13" y2="49.42"/>
	<line id="線_63" class="st19" x1="18.14" y1="44.4" x2="10.85" y2="53.09"/>
	<line id="線_64" class="st19" x1="20.82" y1="46.24" x2="15.15" y2="56.07"/>
	<line id="線_65" class="st19" x1="23.78" y1="47.59" x2="19.91" y2="58.25"/>
	<line id="線_66" class="st19" x1="26.93" y1="48.4" x2="24.96" y2="59.57"/>
	<line id="線_67" class="st19" x1="30.17" y1="48.66" x2="30.18" y2="60"/>
	<line id="線_68" class="st19" x1="33.4" y1="48.34" x2="35.38" y2="59.51"/>
	<line id="線_69" class="st19" x1="36.54" y1="47.47" x2="40.43" y2="58.13"/>
	<line id="線_70" class="st19" x1="39.47" y1="46.07" x2="45.15" y2="55.89"/>
	<line id="線_71" class="st19" x1="42.12" y1="44.18" x2="49.42" y2="52.87"/>
	<line id="線_72" class="st19" x1="44.4" y1="41.86" x2="53.09" y2="49.15"/>
	<line id="線_73" class="st19" x1="46.24" y1="39.18" x2="56.07" y2="44.85"/>
	<line id="線_74" class="st19" x1="47.59" y1="36.22" x2="58.25" y2="40.1"/>
	<line id="線_75" class="st19" x1="48.4" y1="33.08" x2="59.57" y2="35.04"/>
</g>
</svg>
