<svg version="1.1" id="logo" xmlns="http://www.w3.org/2000/svg" xmlns:xlink="http://www.w3.org/1999/xlink" x="0px"
	 y="0px" viewBox="0 0 501.5 38" width="501.5" height="38" style="enable-background:new 0 0 501.5 38;" xml:space="preserve">
<style type="text/css">
	.st0{fill:#3E8AC9;}
</style>
<path id="logo_path" class="st0" d="M238.72,0l-14.88,27.57L208.98,0l-14.25,37.87h6.25l8.93-24.28
	L223.86,38l13.88-24.41l8.99,24.28h6.28L238.72,0 M466.34,17.08V7.36h21.34c2.73-0.02,4.98,2.13,5.09,4.86
	c-0.07,2.71-2.3,4.87-5.02,4.86H466.34 M14.86,25.29l8.97-14.84l9.02,14.84H14.86 M169.43,17.05h-22.38v5.38h22.38L169.43,17.05
	 M294.37,17.05h-22.38v5.38h22.38L294.37,17.05 M450.14,17.05h-22.39v5.38h22.39L450.14,17.05 M62.57,2h-6.3v36L89.26,38v-5.4H62.57
	V2 M127.49,1.99H86.83v5.4h17.24V38h6.27V7.39h17.15V1.99 M408.19,1.99h-40.66v5.4h17.24V38h6.27V7.39h17.15L408.19,1.99
	 M488.68,1.98l-28.62,0.01V38h6.28V22.46h16.6L494.28,38h7.22l-11.41-15.65c5.6-0.73,9.55-5.87,8.82-11.47
	C498.23,5.76,493.84,1.94,488.68,1.98 M169.99,1.97h-35.15V38h35.15v-5.36h-28.87V7.36h28.87L169.99,1.97 M294.93,1.97h-35.14V38
	h35.14v-5.36h-28.86V7.36h28.86L294.93,1.97 M314.02,1.97h-6.27V38h6.27V1.97 M358.24,1.97h-25.11
	c-5.65-0.07-10.29,4.46-10.36,10.12c-0.07,5.65,4.46,10.29,10.12,10.36c0.07,0,0.13,0,0.2,0h17.82c2.8,0.04,5.04,2.35,5,5.15
	c-0.04,2.73-2.23,4.93-4.95,5l-25.71-0.01V38L351.81,38c5.78-0.1,10.39-4.86,10.29-10.64c-0.09-5.67-4.69-10.24-10.36-10.3h-17.7
	c-2.68-0.01-4.84-2.18-4.84-4.86s2.18-4.84,4.86-4.84h24.17L358.24,1.97 M450.7,1.97h-35.14V38h35.14v-5.36h-28.87V7.36h28.87
	L450.7,1.97 M23.81,0.13L0,38h6.88c1.3-2.09,2.91-4.64,4.6-7.34h24.76c1.71,2.69,3.3,5.23,4.63,7.34h6.91L23.81,0.13"/>
</svg>
