<svg version="1.1" xmlns="http://www.w3.org/2000/svg" xmlns:xlink="http://www.w3.org/1999/xlink" x="0px"
	 y="0px" viewBox="0 0 15.13 86.88" width="15.13" height="86.88" style="enable-background:new 0 0 15.13 86.88;" xml:space="preserve">
<style type="text/css">
	.st0{fill:#575757;}
</style>
<g id="page_top-2">
	<path id="パス_105" class="st0" d="M10.37,12.58c-1.62-0.08-3.15-0.74-4.31-1.87C4.89,9.67,4.22,8.19,4.18,6.63
		c0-0.65,0.24-1.29,0.67-1.78C4.12,4.62,3.4,4.41,2.66,4.18C2.3,4.07,1.93,3.99,1.57,3.93c-0.71,0-0.8,0.63-0.82,1.05
		c-0.02,0.38,0,0.78-0.29,0.78c-0.25,0-0.3-0.27-0.3-0.5c0-0.29,0.02-0.69,0.06-1.11c0.02-0.4,0.04-0.84,0.04-1.18
		S0.22,2.04,0.16,1.49c-0.04-0.55-0.1-1.03-0.1-1.16C0.06,0.13,0.13,0,0.33,0c0.32,0,0.36,0.44,0.4,0.86
		C0.8,1.89,1.36,1.98,2.79,2.4L11.7,5.1c0.07,0.04,0.11,0,0.1-0.08c-0.19-0.49-0.36-1-0.5-1.51c-0.01-0.12,0.08-0.22,0.2-0.23
		c0,0,0.01,0,0.01,0c0.25,0,0.38,0.34,0.48,0.51c0.19,0.44,0.34,0.9,0.52,1.37c0.06,0.15,0.08,0.19,0.25,0.23l1.49,0.46
		c0.4,0.13,0.55,0.17,0.61,0.42c0.04,0.23,0.05,0.46,0.04,0.69V7.5c-0.02,0.17-0.11,0.27-0.25,0.27c-0.12-0.02-0.24-0.05-0.36-0.09
		c-0.44-0.13-0.9-0.27-1.37-0.42c0.07,0.33,0.12,0.67,0.15,1.01c0.02,0.34,0.04,0.67,0.04,0.97c0,1.66-0.63,3.34-2.71,3.34
		L10.37,12.58z M12.45,8.61c-0.01-0.52-0.1-1.04-0.25-1.55l-1.15-0.34C9.74,6.32,8.4,5.92,7.08,5.5c-0.42-0.13-0.86-0.22-1.3-0.27
		C5.04,5.23,4.77,6,4.77,6.65c0,1.28,0.99,2.18,2.16,2.86c1.1,0.67,2.34,1.07,3.63,1.16c1.3,0,1.89-0.8,1.89-2.04L12.45,8.61z"/>
	<path id="パス_106" class="st0" d="M6.16,14.99c1.75,0.17,3.38,0.95,4.62,2.2c1.33,1.16,2.15,2.8,2.29,4.56
		c0.01,0.56-0.21,1.1-0.61,1.49c0,0.08,0.31,0.15,0.55,0.27c0.15,0.06,0.24,0.21,0.23,0.36c0.02,0.29,0.04,0.69,0.04,0.97
		c0,0.21-0.06,0.38-0.25,0.38c-0.16-0.02-0.31-0.06-0.46-0.11c-1.91-0.57-3.95-1.22-5.9-1.81c-0.23-0.09-0.46-0.15-0.71-0.17
		c-0.15,0-0.27,0.06-0.27,0.17c0,0.42,1.05,1.22,1.39,1.45c0.19,0.13,0.4,0.27,0.4,0.42c0,0.11-0.1,0.2-0.21,0.19c0,0,0,0,0,0
		c-0.65-0.24-1.24-0.62-1.72-1.13c-0.75-0.66-1.25-1.54-1.43-2.52c-0.01-0.34,0.26-0.63,0.6-0.64c0.03,0,0.07,0,0.1,0.01
		c0.37,0.01,0.73,0.09,1.07,0.21c1.11,0.34,2.25,0.71,3.42,1.07v-0.04c-1.85-1.11-5.21-3.59-5.21-5.75c0-1.01,0.95-1.58,2.02-1.58
		L6.16,14.99z M11.66,22.99c0.57,0,0.86-0.48,0.86-1.07c0-1.22-1.2-2.46-2.19-3.25c-1.06-0.87-2.34-1.43-3.7-1.62
		c-0.46,0-1.01,0.23-1.01,0.76c0,1.01,1.8,2.56,2.63,3.23c0.69,0.57,2.61,1.95,3.4,1.95L11.66,22.99z"/>
	<path id="パス_107" class="st0" d="M9.95,29.04c1.78,0,3.17,1.81,3.17,3.92c0.01,0.49-0.06,0.97-0.21,1.43
		c-0.08,0.18-0.14,0.37-0.17,0.57v2.12c0,0.38,0,0.5-0.11,0.5c-0.16-0.02-0.31-0.06-0.46-0.13c-0.15-0.08-0.17-0.15-0.17-0.48v-1.32
		c-0.5,0.51-1.19,0.81-1.91,0.82c-1.8,0-3.23-1.85-3.23-3.89c-0.02-0.74,0.2-1.46,0.63-2.06C7.35,30.22,7.08,30.03,6.76,30
		c-0.74,0-1.03,1.45-1.24,2.37c-0.36,1.41-1.05,3.53-2.6,3.53C1.43,35.9,0,34.1,0,31.22c0-2.08,1.01-4.58,2.52-4.58
		c1.57,0,1.93,2.19,2.23,3.34c0.29-0.65,0.71-1.26,1.45-1.26c0.76,0,1.26,0.84,1.6,1.38c0.52-0.64,1.3-1.02,2.12-1.05L9.95,29.04z
		 M0.52,31.6c0,1.09,0.52,2.65,1.74,2.65c0.9,0,1.24-0.9,1.51-1.64c0.23-0.65,0.44-1.41,0.67-2.04c-0.27-0.94-0.65-2.31-1.81-2.31
		c-1.49,0-2.1,1.99-2.1,3.32L0.52,31.6z M11,34.73c0.79,0.1,1.52-0.47,1.61-1.26c0.01-0.06,0.01-0.13,0.01-0.19
		c0-1.49-2.25-2.46-3.53-2.46c-0.84-0.1-1.61,0.5-1.71,1.35c0,0.03-0.01,0.06-0.01,0.08c0,1.47,2.23,2.48,3.61,2.48L11,34.73z"/>
	<path id="パス_108" class="st0" d="M11.26,48.13c-2.63,0-3.02-4.05-3.26-5.96c-0.04-0.11-0.04-0.23-0.08-0.35
		c-0.23-0.03-0.46-0.04-0.69-0.04c-0.97-0.13-1.86,0.55-1.99,1.52c-0.01,0.1-0.02,0.19-0.01,0.29c0.11,1.13,0.7,2.16,1.62,2.82
		c0.15,0.13,0.25,0.23,0.25,0.34c0.01,0.09-0.05,0.18-0.15,0.19c-0.01,0-0.03,0-0.04,0c-0.17,0-0.61-0.36-0.8-0.5
		c-1.17-0.94-1.89-2.32-1.98-3.82c-0.02-1.55,1.21-2.83,2.77-2.85c0.08,0,0.17,0,0.25,0.01c3.2,0.2,5.75,2.74,5.97,5.94
		c0,0.94-0.5,2.39-1.83,2.39L11.26,48.13z M12.62,45.51c0-1.74-2.23-3.11-4.16-3.59c0.17,1.39,0.57,3.26,1.58,4.03
		c0.46,0.35,1.02,0.55,1.6,0.57c0.5,0.04,0.94-0.34,0.97-0.84c0-0.05,0-0.1,0-0.16L12.62,45.51z"/>
	<path id="パス_109" class="st0" d="M5.19,57.96c0.6,0.06,1.19,0.19,1.76,0.4c1.74,0.54,3.47,1.07,5.19,1.57v-1.05
		c0-0.25,0.02-0.4,0.15-0.4c0.14,0.01,0.28,0.05,0.4,0.11c0.11,0.08,0.13,0.23,0.13,0.44v1.09l2,0.63c0.16,0.04,0.27,0.18,0.27,0.35
		c0.02,0.15,0.04,0.51,0.04,0.69c0,0.18,0,0.37-0.02,0.55c0,0.11-0.04,0.23-0.17,0.23c-0.16-0.02-0.31-0.05-0.46-0.1
		c-0.54-0.17-1.11-0.35-1.66-0.51v1.45c0,0.27-0.02,0.4-0.13,0.4c-0.13-0.01-0.25-0.05-0.36-0.11c-0.17-0.06-0.19-0.25-0.19-0.46
		v-1.47c-1.72-0.51-3.47-1.05-5.23-1.58c-0.32-0.11-0.65-0.19-0.99-0.23c-0.19,0-0.38,0.08-0.38,0.27c0,0.44,0.9,1.11,1.22,1.36
		c0.34,0.25,0.72,0.44,0.72,0.57c0,0.12-0.09,0.21-0.21,0.21c-0.38-0.13-0.74-0.33-1.05-0.59c-0.74-0.55-2.1-1.87-2.1-2.96
		c0.06-0.52,0.52-0.9,1.04-0.84c0,0,0.01,0,0.01,0L5.19,57.96z"/>
	<path id="パス_110" class="st0" d="M9.35,74.47c-1.34-0.04-2.6-0.6-3.53-1.57c-1.01-1.01-1.62-2.35-1.7-3.78
		c0.04-1.96,1.66-3.52,3.62-3.48c0.04,0,0.08,0,0.13,0c2.84,0.13,5.11,2.39,5.25,5.23c-0.02,2-1.66,3.61-3.67,3.59
		c-0.02,0-0.05,0-0.07,0L9.35,74.47z M10.42,72.71c1.07,0,2.14-0.38,2.14-1.66c-0.08-1-0.66-1.89-1.55-2.37
		c-1.19-0.76-2.57-1.19-3.99-1.22c-1.13,0-2.31,0.36-2.31,1.68c0.12,1.02,0.74,1.91,1.66,2.37c1.22,0.73,2.61,1.14,4.03,1.2
		L10.42,72.71z"/>
	<path id="パス_111" class="st0" d="M10.37,86.88c-1.62-0.08-3.15-0.74-4.31-1.87c-1.16-1.05-1.84-2.52-1.87-4.08
		c0-0.65,0.24-1.29,0.67-1.78c-0.73-0.23-1.45-0.44-2.19-0.67c-0.36-0.11-0.72-0.2-1.09-0.25c-0.71,0-0.8,0.63-0.82,1.05
		c-0.02,0.38,0,0.78-0.29,0.78c-0.25,0-0.3-0.27-0.3-0.5c0-0.29,0.02-0.69,0.06-1.11c0.02-0.4,0.04-0.84,0.04-1.18
		s-0.04-0.93-0.09-1.49c-0.04-0.55-0.1-1.03-0.1-1.16c0-0.19,0.08-0.32,0.27-0.32c0.32,0,0.36,0.44,0.4,0.86
		c0.08,1.03,0.63,1.12,2.06,1.54l8.92,2.69c0.07,0.04,0.11,0,0.1-0.08c-0.19-0.49-0.36-1-0.5-1.51c-0.01-0.12,0.08-0.22,0.2-0.23
		c0,0,0.01,0,0.01,0c0.25,0,0.38,0.34,0.48,0.51c0.19,0.44,0.34,0.9,0.52,1.37c0.06,0.15,0.08,0.19,0.25,0.23l1.49,0.46
		c0.4,0.14,0.55,0.17,0.61,0.42c0.04,0.23,0.05,0.46,0.04,0.69v0.54c-0.02,0.17-0.11,0.27-0.25,0.27c-0.12-0.02-0.24-0.05-0.36-0.09
		c-0.44-0.13-0.9-0.27-1.37-0.42c0.07,0.33,0.12,0.67,0.15,1.01c0.02,0.34,0.04,0.67,0.04,0.97c0,1.66-0.63,3.34-2.71,3.34
		L10.37,86.88z M12.45,82.91c-0.01-0.52-0.1-1.04-0.25-1.54l-1.15-0.34c-1.32-0.4-2.65-0.8-3.97-1.22c-0.42-0.13-0.86-0.22-1.3-0.27
		c-0.74,0-1.01,0.76-1.01,1.41c0,1.28,0.99,2.18,2.16,2.86c1.1,0.67,2.34,1.07,3.63,1.16c1.3,0,1.89-0.8,1.89-2.04L12.45,82.91z"/>
</g>
</svg>
