<?xml version="1.0" encoding="utf-8"?>
<!-- Generator: Adobe Illustrator 24.1.0, SVG Export Plug-In . SVG Version: 6.00 Build 0)  -->
<svg version="1.1" id="レイヤー_1" xmlns="http://www.w3.org/2000/svg" xmlns:xlink="http://www.w3.org/1999/xlink" x="0px"
	 y="0px" viewBox="0 0 55.58 13.44" style="enable-background:new 0 0 55.58 13.44;" xml:space="preserve">
<style type="text/css">
	.st0{fill:#575757;}
</style>
<path id="パス_112" class="st0" d="M6.58,10.71c-0.09,0.82-0.55,1.55-1.24,2c-0.74,0.47-1.61,0.72-2.5,0.72
	c-0.84-0.01-1.67-0.24-2.4-0.67c-0.23-0.11-0.4-0.33-0.44-0.59c0.03-0.24,0.09-0.48,0.17-0.71c0.08-0.22,0.19-0.74,0.52-0.74
	c0.23,0,0.38,0.19,0.59,0.55c0.4,0.67,0.95,1.59,2.02,1.59c0.76,0.03,1.41-0.54,1.49-1.3c0-0.8-0.76-1.41-1.53-2.08
	C2.45,8.94,1.9,8.09,1.74,7.13c0-1.64,1.58-2.69,3.43-2.69c0.5,0,2.48,0.12,2.48,0.86C7.63,5.52,7.57,5.74,7.48,5.95
	C7.38,6.16,7.29,6.56,7,6.56s-0.57-0.4-0.93-0.8C5.72,5.3,5.19,5.02,4.62,4.98c-0.65-0.04-1.2,0.46-1.24,1.1c0,0.02,0,0.04,0,0.06
	c0,0.71,0.67,1.28,1.56,2.06c0.88,0.56,1.48,1.46,1.65,2.49L6.58,10.71z"/>
<path id="パス_113" class="st0" d="M18.32,5.55c-0.04,0.43-0.41,0.75-0.84,0.73c-0.31,0.01-0.62-0.1-0.86-0.31
	c-0.18-0.17-0.34-0.37-0.46-0.59C16.04,5.16,15.82,5.02,15.57,5c-0.67,0-1.49,0.76-1.99,1.39c-0.88,1.09-1.39,2.42-1.47,3.82
	c0,1.15,0.57,2.02,1.7,2.02c0.92-0.05,1.79-0.44,2.42-1.11c0.55-0.5,0.9-0.97,1.09-0.97c0.1,0.01,0.17,0.09,0.17,0.19
	c0,0.29-0.55,0.94-0.76,1.18c-0.88,1.12-2.2,1.81-3.62,1.92c-1.68-0.02-3.03-1.41-3-3.09c0-0.03,0-0.07,0-0.1
	c0.08-1.48,0.72-2.87,1.79-3.89c1.12-1.14,2.62-1.83,4.22-1.91C17.05,4.45,18.32,4.81,18.32,5.55L18.32,5.55z"/>
<path id="パス_114" class="st0" d="M29.38,5.56c0.05,0.66-0.43,1.25-1.09,1.34c-0.16,0.01-0.31-0.03-0.44-0.11
	c-0.18-0.19-0.3-0.43-0.36-0.69c-0.02-0.09-0.11-0.16-0.21-0.15c-0.46,0-1.47,1.49-1.77,2.02c-0.85,1.39-1.56,2.86-2.12,4.39
	c-0.23,0.7-0.21,0.86-1.11,0.86c-0.4,0-0.84,0.02-0.84-0.32c0.03-0.21,0.08-0.42,0.15-0.63c0.54-1.72,1.07-3.44,1.59-5.15
	c0.12-0.33,0.2-0.68,0.23-1.03c0-0.17-0.06-0.38-0.25-0.38c-0.29,0-0.76,0.5-1.05,0.86c-0.21,0.27-0.29,0.4-0.46,0.61
	c-0.07,0.1-0.17,0.27-0.29,0.27c-0.11,0-0.19-0.09-0.19-0.19c0.23-0.59,0.58-1.11,1.03-1.55c0.53-0.64,1.27-1.08,2.08-1.24
	c0.55,0,0.88,0.59,0.88,1.18c-0.2,1.24-0.53,2.45-0.97,3.63h0.04c0.72-1.32,2.44-4.81,4.08-4.81c0.56-0.04,1.03,0.39,1.07,0.94
	C29.38,5.46,29.38,5.51,29.38,5.56L29.38,5.56z"/>
<path id="パス_115" class="st0" d="M39.74,8.21c-0.04,1.34-0.6,2.6-1.56,3.53c-1.01,1.01-2.36,1.62-3.78,1.7
	c-1.96-0.04-3.52-1.65-3.48-3.61c0-0.04,0-0.09,0-0.13c0.13-2.84,2.4-5.11,5.23-5.25c2,0.02,3.61,1.66,3.59,3.67
	c0,0.02,0,0.05,0,0.07V8.21z M37.99,7.14c0-1.07-0.38-2.14-1.66-2.14c-1,0.08-1.89,0.66-2.37,1.55c-0.76,1.19-1.19,2.57-1.22,3.99
	c0,1.13,0.36,2.31,1.68,2.31c1.02-0.12,1.91-0.74,2.37-1.66c0.73-1.22,1.14-2.61,1.2-4.03V7.14z"/>
<path id="パス_116" class="st0" d="M42.78,12.56c0.04-0.67,0.19-1.33,0.42-1.97c0.8-2.65,1.62-5.31,2.44-7.94
	c0.09-0.26,0.15-0.53,0.19-0.8c0-0.42-0.4-0.46-0.78-0.46c-0.32,0-0.54-0.02-0.54-0.25c0-0.27,0.29-0.31,0.69-0.32
	c0.81-0.04,1.6-0.25,2.33-0.61C47.66,0.1,47.82,0.03,47.99,0c0.1-0.01,0.2,0.06,0.21,0.17c0,0.01,0,0.03,0,0.04
	c-0.03,0.18-0.07,0.35-0.14,0.51c-1.03,3.35-2.06,6.7-3.09,10.07c-0.11,0.29-0.19,0.6-0.23,0.92c0,0.17,0.08,0.29,0.25,0.29
	c0.42,0,1.32-1.2,1.57-1.62c0.09-0.13,0.19-0.31,0.34-0.31c0.11,0,0.15,0.1,0.15,0.19c-0.17,0.54-0.47,1.04-0.86,1.45
	c-0.51,0.62-1.68,1.73-2.67,1.73c-0.63,0-0.75-0.42-0.75-0.86L42.78,12.56z"/>
<path id="パス_117" class="st0" d="M50.16,12.56c0.05-0.67,0.19-1.33,0.42-1.97c0.8-2.65,1.62-5.31,2.44-7.94
	c0.09-0.26,0.15-0.53,0.19-0.8c0-0.42-0.4-0.46-0.78-0.46c-0.32,0-0.54-0.02-0.54-0.25c0-0.27,0.29-0.31,0.69-0.32
	c0.81-0.04,1.6-0.25,2.33-0.61c0.13-0.1,0.29-0.18,0.46-0.21c0.1-0.01,0.2,0.06,0.21,0.17c0,0.01,0,0.03,0,0.04
	c-0.03,0.18-0.07,0.35-0.13,0.51c-1.03,3.34-2.06,6.69-3.09,10.06c-0.12,0.29-0.19,0.6-0.23,0.92c0,0.17,0.08,0.29,0.25,0.29
	c0.42,0,1.32-1.2,1.57-1.62c0.09-0.13,0.19-0.31,0.34-0.31c0.11,0,0.15,0.1,0.15,0.19c-0.17,0.54-0.47,1.04-0.86,1.45
	c-0.52,0.63-1.68,1.74-2.67,1.74c-0.63,0-0.75-0.42-0.75-0.86V12.56z"/>
</svg>
