<?xml version="1.0" encoding="utf-8"?>
<!-- Generator: Adobe Illustrator 25.1.0, SVG Export Plug-In . SVG Version: 6.00 Build 0)  -->
<svg version="1.1" id="レイヤー_1" xmlns="http://www.w3.org/2000/svg" xmlns:xlink="http://www.w3.org/1999/xlink" x="0px"
	 y="0px" viewBox="0 0 600 174.1" style="enable-background:new 0 0 600 174.1;" xml:space="preserve">
<style type="text/css">
	.st0{fill:#231815;}
</style>
<path id="タイトル" class="st0" d="M363,11.5c-0.2,0-0.5,0.1-1.4,1.1H354c-0.6,0-1.1-0.1-1.6-0.2c-0.1,0-0.2,0-0.2,0.1
	c0,0.1-0.1,0.1,0,0.2l0.3,0.9c0,0.1,0.1,0.2,0.2,0.1h0c0.5-0.1,1-0.1,1.5-0.1h10.5c0.4,0,0.5-0.2,0.5-0.4c0-0.2-0.1-0.3-0.6-0.7
	C363.5,11.6,363.2,11.5,363,11.5z M347.1,22.2c0,0,0.1,0,0.1,0c0,0,0,0,0,0c1.7-1.3,2.9-3,3.5-5c0.1-0.5,0.3-1,0.4-1.5h1.8v3.5
	c-0.3,0-0.5,0-0.6,0c-0.6,0-1.3,0-2,0c-0.1,0-0.1,0-0.2,0.1c0,0.1-0.1,0.1,0,0.2c0.3,1.2,0.5,2,0.6,2.2c0.1,0.2,0.2,0.6,0.6,0.6
	c0.3,0,0.6-0.3,0.7-0.8c2.6-0.5,5-1.3,7.3-2.5c0.1-0.1,0.2-0.2,0.2-0.3c0-0.1,0-0.2-0.1-0.3c-0.1-0.1-0.2-0.1-0.2,0
	c-1.3,0.3-2.5,0.5-3.8,0.6v-3.3h2.4c0.4,0.9,1,1.8,1.7,2.6c0.8,0.9,1.8,1.6,2.9,2.2c1,0.5,2,1,3,1.3c0.4,0.1,0.8,0.2,1.2,0.2
	c0.3,0,0.5-0.2,0.6-0.4c0.1-0.4,0.2-0.8,0.4-1.1c0.3-0.3,0.6-0.5,1-0.6c0.2,0,0.3-0.2,0.3-0.3c0-0.2-0.1-0.3-0.3-0.3c0,0,0,0,0,0
	c-2,0-3.9-0.3-5.8-0.9c-0.2-0.1-0.4-0.1-0.7-0.2c0.5-0.1,1.1-0.3,1.8-0.6h0.1c0.3,0,1,0,1-0.5c0-0.3-0.2-0.6-1.6-1.4h3.9
	c0.4,0,0.5-0.2,0.5-0.4c0-0.2-0.1-0.4-0.7-0.8c-1-0.8-1.4-0.9-1.6-0.9c-0.2,0-0.4,0.1-1.5,1.2h-12.8c0.1-0.8,0.1-1.7,0.1-2.5v-0.9
	h15.8c0.5,0,0.6-0.3,0.6-0.4c0-0.2-0.2-0.5-0.7-0.8c-1.1-0.7-1.4-0.8-1.6-0.8s-0.4,0.1-1.5,1.1h-12.5c-0.8-0.5-1.6-0.9-2.5-1.2
	c-0.1,0-0.1,0-0.2,0c-0.1,0-0.1,0.1-0.1,0.2c0,1,0.1,1.9,0.1,2.7c0,1.5,0,3-0.2,4.5c-0.1,0.9-0.3,1.7-0.6,2.5
	c-0.4,0.9-0.8,1.9-1.3,2.7c0,0,0,0.1,0,0.1C346.7,22,346.8,22.2,347.1,22.2C347.1,22.2,347.1,22.2,347.1,22.2L347.1,22.2z
	 M362.3,15.7c-0.2,0.3-0.4,0.6-0.6,0.9c-0.2,0.3-0.5,0.6-0.9,1c-0.8-0.5-1.5-1.1-2-1.8H362.3z M334.3,73.3h8.7
	c0.7,1.1,1.5,2.2,2.4,3.2c1.8,1.8,3.8,3.4,6,4.7c0.4,0.2,0.8,0.4,1.3,0.5c0.3,0,0.6-0.2,0.6-0.5c0.3-0.9,0.7-1.8,1.2-2.6
	c0.4-0.5,1-0.9,1.6-1c0.2-0.1,0.2-0.2,0.2-0.4c0-0.1-0.1-0.2-0.2-0.3c-3.3-0.5-6.4-1.7-9.2-3.5h7.7c0.4,0,0.7-0.2,0.7-0.5
	c0-0.3-0.4-0.8-1.3-1.5c-1.7-1.2-2.7-1.9-3-1.9c-0.4,0-1.4,0.9-2.9,2.7h-2.8c-1.7-1.4-3.1-3.1-4.2-4.9h11.4c0.4,0,0.7-0.2,0.7-0.5
	c0-0.3-0.4-0.8-1.2-1.4c-0.9-0.7-1.8-1.3-2.9-1.7c-0.4,0-1.3,0.8-2.6,2.4h-4.3c2-1.2,3.8-2.6,5.4-4.2c1.3-0.1,2-0.3,2-0.8
	c0-0.3-0.2-0.6-0.7-0.8c-0.5-0.3-2.1-1-4.7-2c-0.3,1.3-0.7,2.6-1.2,3.9c-0.6,1.3-1.2,2.6-2,4h-2.8c0.7-1.7,1.2-3.5,1.7-5.3
	c1.1-0.3,1.7-0.6,1.7-1c0-0.3-0.4-0.6-1.1-0.9c-1.7-0.5-3.4-0.8-5.2-1.1c-0.1,2.8-0.6,5.6-1.5,8.3h-4.9c-1,0-2-0.1-3-0.4l0.6,1.9
	c0.9-0.2,1.8-0.3,2.7-0.3h4.2c-0.6,1.7-1.4,3.3-2.2,4.9h-3.7c-1.1,0-2.3-0.1-3.4-0.4l0.6,1.9c1-0.2,2.1-0.3,3.1-0.3h2.8
	c-1.8,3-4.1,5.6-6.7,7.9c0,0-0.1,0.1-0.1,0.1c0,0.2,0.1,0.4,0.3,0.4c0,0,0.1,0,0.1,0c0,0,0.1,0,0.1,0c1.5-0.8,3-1.8,4.3-2.9
	c1,1.2,1.7,2.5,2.2,4c0.3,1,0.9,1.5,1.6,1.5c0.6,0,1.2-0.2,1.6-0.7c0.4-0.4,0.7-1,0.7-1.6c0-0.9-0.4-1.7-1.1-2.1
	c-1.4-0.8-2.9-1.3-4.5-1.4C331,77,332.8,75.2,334.3,73.3L334.3,73.3z M337.8,67.2h2.3c0.6,1.6,1.4,3.2,2.2,4.9h-7.2
	C336.1,70.5,337,68.9,337.8,67.2L337.8,67.2z M325,61.2c0-0.3-0.4-0.8-1.1-1.5c-1.4-1.3-2.3-1.9-2.7-1.9s-1.2,0.8-2.5,2.4h-3.5
	c-1.6-1-3.3-1.9-5-2.6c0.2,3.9,0.3,6.5,0.3,7.8c0,7.4-0.2,13.2-0.5,17.4c-0.4,4.5-1.3,8.9-2.8,13.1c0,0,0,0,0,0.1
	c0,0.2,0.1,0.3,0.4,0.3c0.1,0,0.1,0,0.2-0.1c1.4-1.7,2.7-3.5,3.7-5.5c1.2-2.5,2-5.1,2.4-7.8c0-0.2,0.1-0.6,0.2-1.2
	c0.1-0.6,0.1-1.1,0.2-1.4h5.1V90c0.1,0.4-0.2,0.8-0.6,0.8c-0.1,0-0.1,0-0.2,0c-0.6,0-2.2-0.1-4.7-0.2c-0.1,0-0.2,0.1-0.2,0.3
	c0,0.2,0.1,0.3,0.2,0.4c1,0.2,1.9,0.5,2.8,1c0.7,0.6,1,1.4,1.1,2.3c0.1,0.6,0.6,1.1,1.2,1c0,0,0,0,0.1,0c1.2,0.1,2.4-0.3,3.3-1
	c1-0.9,1.6-2.2,1.5-3.6l-0.1-25.6v-2.9C324.5,62,325,61.6,325,61.2L325,61.2z M319.2,79.1h-5c0.2-1.8,0.4-4.5,0.5-8.2h4.5
	L319.2,79.1z M319.2,69.6h-4.5c0.1-2.5,0.1-4.5,0.1-6.1v-2.1h4.4V69.6z M279.2,21.4c1.3,0,1.6-0.6,1.6-1.1v-0.9h9.2v0.8
	c0,0.4,0.2,1,1.2,1c1.4,0,1.7-0.6,1.7-1.2c-0.1-3.7-0.1-8.2-0.1-13.5V4c0.5-0.3,0.7-0.6,0.7-0.9c0-0.2-0.2-0.5-0.6-0.9
	c-1-0.9-1.3-1-1.5-1s-0.4,0.1-1.4,1.2h-8.9c-0.9-0.5-1.8-0.9-2.7-1.3c-0.1,0-0.2,0-0.3,0.1c0,0,0,0.1,0,0.1c0.1,2.1,0.1,4.7,0.1,7.6
	c0,4.5,0,8.4-0.1,11.5C277.9,20.8,278.1,21.4,279.2,21.4L279.2,21.4z M280.8,3.4h9.2v6.8h-9.2L280.8,3.4z M280.8,11.2h9.2v7.2h-9.2
	L280.8,11.2z M321.8,52.9h-9.5c-1.4,0-2.9-0.1-4.3-0.4l0.6,1.9c1.2-0.2,2.5-0.3,3.7-0.3h9.4c0,0.3,0,0.8-0.1,1.3
	c0,0.4-0.1,0.7-0.1,0.8c0,1,0.7,1.5,2.1,1.5c1.8,0,2.7-0.6,2.7-1.7v-1.8h8.8l-0.1,1.6c0,1,0.7,1.5,2.1,1.5c1.8,0,2.7-0.6,2.7-1.8
	v-1.3h14.6c0.4,0,0.7-0.2,0.7-0.5c0-0.3-0.5-0.9-1.6-1.7c-2.1-1.5-3.3-2.2-3.6-2.3c-0.4,0-1.5,1.1-3.3,3.2H340v-2.6
	c1.1-0.5,1.7-0.9,1.7-1.4c0-0.4-0.4-0.6-1.1-0.8c-1.8-0.3-3.7-0.6-5.5-0.7c0.2,1.5,0.3,3.1,0.3,4.6v0.8h-8.9v-2.6
	c1.1-0.5,1.7-1,1.7-1.4c0-0.4-0.3-0.6-0.8-0.8c-1.9-0.4-3.9-0.6-5.8-0.7c0.2,1.3,0.3,2.6,0.3,3.9L321.8,52.9z M251.8,21.3
	c1.8-0.5,3.5-1.2,5.1-2c1.6-0.9,3.1-2,4.3-3.3c0,0.8-0.1,1.8-0.1,2.9c0,1.5-0.1,2.2-0.1,2.4c0,0.4,0.2,1,1.2,1
	c1.3,0,1.6-0.6,1.6-1.1c0-0.2,0-1-0.1-2.5l-0.1-3.9c0.8,1.3,1.8,2.5,3,3.6c1.3,1,2.7,1.9,4.2,2.6c0.3,0.2,0.7,0.3,1,0.3
	c0.3,0,0.6-0.3,0.7-0.8c0.1-0.7,0.6-1.2,1.3-1.4c0.2,0,0.3-0.2,0.3-0.4c0-0.2-0.1-0.3-0.3-0.3c0,0,0,0,0,0l0,0
	c-1.9-0.1-3.7-0.6-5.4-1.4c-1.6-0.7-3-1.7-4.2-3h3.8v0c0,0.3,0.1,0.5,0.2,0.8c0.3,0.2,0.6,0.3,0.9,0.3c1.2,0,1.5-0.6,1.5-1.1
	l-0.1-5.3V7.7c0.4-0.3,0.6-0.5,0.6-0.8c0-0.2-0.2-0.5-0.6-0.8c-0.9-0.8-1.2-0.9-1.4-0.9c-0.1,0-0.4,0.1-1.2,0.9h-4.2v-2h9.2
	c0.4,0,0.5-0.2,0.5-0.4c0-0.2-0.1-0.4-0.8-0.9c-1.3-1-1.6-1.1-1.8-1.1c-0.2,0-0.5,0.1-1.6,1.5h-5.5V1.8c0.5-0.3,0.7-0.5,0.7-0.7
	c0-0.2-0.1-0.4-0.6-0.6c-0.8-0.2-1.7-0.3-2.6-0.4c-0.1,0-0.1,0-0.2,0.1c0,0-0.1,0.1-0.1,0.2c0.1,0.9,0.2,1.8,0.2,2.8h-7
	c-0.7,0-1.3-0.1-2-0.2c-0.1,0-0.1,0-0.2,0.1c0,0.1-0.1,0.1,0,0.2l0.2,0.9c0,0.1,0.1,0.2,0.2,0.2c0.6-0.1,1.2-0.1,1.8-0.1h7v2h-3.8
	c-0.8-0.4-1.6-0.7-2.3-1c-0.1,0-0.1,0-0.2,0c-0.1,0-0.1,0.1-0.1,0.2c0.1,0.9,0.1,2,0.1,3.4c0,2.1,0,3.9-0.1,5.4
	c0,0.3,0.1,0.9,1.1,0.9c1.2,0,1.5-0.6,1.5-1.1l2.4,0c-2.1,2.9-4.9,5.2-8.2,6.6c-0.1,0.1-0.2,0.2-0.2,0.3c0,0.1,0,0.2,0.1,0.3
	C251.5,21.2,251.6,21.3,251.8,21.3z M263.7,7.1h4.3v2.3h-4.3V7.1z M263.7,10.4h4.3V13h-4.3V10.4z M257.3,7.1h3.9v2.3h-3.9V7.1z
	 M257.3,13v-2.6h3.9V13H257.3z M317.8,139.5c-0.2,0-0.7,0.2-2.3,2h-4.1c-1,0-2.1-0.1-3.1-0.3l-0.3,0l0.5,1.8l0.1,0
	c0.9-0.1,1.9-0.2,2.8-0.2h8.7c0.6,0,0.7-0.4,0.7-0.5c0-0.3-0.3-0.7-0.9-1.2C318.4,139.7,318,139.5,317.8,139.5L317.8,139.5z
	 M322.2,21.8C322.2,21.8,322.2,21.8,322.2,21.8c3.1-0.8,5.8-2.5,7.9-4.9c0.9-1,1.6-2.2,2.1-3.5c0.5-1.2,0.8-2.4,1-3.6
	c0.5,2.7,1.5,5.3,3.1,7.5c1.1,1.4,2.4,2.6,3.8,3.6c0.4,0.4,1,0.6,1.6,0.7c0.4,0,0.5-0.5,0.6-0.6c0.2-0.8,0.7-1.4,1.5-1.7
	c0.2-0.1,0.3-0.2,0.2-0.4c0-0.1-0.1-0.3-0.2-0.3c-2.1-0.6-4.1-1.8-5.8-3.2c-2.1-2-3.6-4.5-4.2-7.3h9.2c0.2,0,0.5-0.1,0.5-0.4
	c0,0,0-0.1,0-0.1c0-0.2-0.1-0.4-0.8-1c-1.5-1.3-1.7-1.3-1.8-1.3c-0.2,0-0.5,0.1-1.8,1.8h-5.6c0.1-1.2,0.2-2.7,0.2-4.5
	c0.5-0.3,0.8-0.5,0.8-0.8c0-0.2-0.1-0.5-0.7-0.7c-0.9-0.2-1.9-0.4-2.8-0.5c-0.1,0-0.1,0-0.2,0.1c0,0-0.1,0.1-0.1,0.2
	c0.1,0.8,0.1,1.6,0.1,2.1c0,1.4-0.1,2.8-0.2,4.1h-6c-0.8,0-1.6-0.1-2.4-0.2c-0.1,0-0.1,0-0.2,0.1c0,0.1-0.1,0.1,0,0.2l0.3,0.9
	c0,0.1,0.1,0.2,0.2,0.2c0.7-0.1,1.4-0.1,2.1-0.1h6c-0.2,1.8-0.6,3.6-1.3,5.2c-1.5,3.4-4.1,6.2-7.4,7.8c-0.1,0.1-0.1,0.1-0.1,0.2
	c0,0.1,0,0.2,0.1,0.3C322,21.8,322.1,21.8,322.2,21.8z M328.7,63.3c0.3,1.2,0.9,1.8,1.7,1.8c0.6,0,1.1-0.3,1.5-0.7
	c0.5-0.5,0.8-1.3,0.8-2c0-1.9-2-3.3-6-4.3h-0.1c-0.2,0-0.3,0.1-0.3,0.2c0,0.1,0,0.1,0,0.2c0.5,0.6,1,1.3,1.4,2.1
	C328.2,61.4,328.5,62.3,328.7,63.3z M397,5.3c0.1,0,0.2,0,0.2,0l0.9-0.3c0.6-0.2,1-0.2,1.1,0c0.1,0.1,0.2,0.4,0.2,1.7V15
	c0.1,1,0,2-0.2,3c-0.1,0.2-0.3,0.3-0.5,0.3c-0.4,0.1-0.9,0.1-1.3,0.2c-0.3,0-0.5,0.3-0.4,0.5c0,0,0,0,0,0c0,0.5,0.3,0.5,0.5,0.5
	c2.2-0.1,4.7-0.1,7,0c0.1,0,0.4,0,0.4-0.5c0-0.5-0.3-0.5-0.4-0.6c-0.6-0.1-1-0.1-1.2-0.1c-0.3-0.1-0.5-0.2-0.6-0.4
	c-0.1-0.2-0.2-0.5-0.2-0.7c0-0.3,0-1.1,0-2.3V7.7c0-0.7,0-1.5,0-2.4c0-1.4,0.1-2.3,0.1-2.7c0-0.1,0-0.5-0.6-0.5c0,0-0.1,0-0.1,0
	c-1.7,0.8-3.4,1.5-4.9,2.1c-0.3,0.1-0.4,0.3-0.4,0.4c0,0.1,0,0.2,0,0.3C396.6,5.3,396.8,5.3,397,5.3z M413.3,20.1
	c1.6,0,3-0.8,3.8-2.2c1.2-2.1,1.7-4.4,1.6-6.8c0.1-2.1-0.3-4.2-1.2-6.1c-0.7-1.7-2.4-2.8-4.2-2.8c-1.6,0-3,0.8-3.8,2.2
	c-1.2,2.1-1.7,4.5-1.6,6.9c-0.1,2.1,0.3,4.2,1.2,6.1C409.8,19,411.4,20.1,413.3,20.1L413.3,20.1z M411.4,5.7c0.4-1.5,1-2.3,1.9-2.3
	c0.8,0,1.3,0.6,1.7,1.8c0.4,2,0.6,4,0.5,6c0,1.8-0.1,3.7-0.4,5.5c-0.4,1.5-1,2.3-1.8,2.3c-0.8,0-1.3-0.6-1.7-1.7c-0.5-2-0.6-4-0.6-6
	C410.9,9.3,411.1,7.5,411.4,5.7L411.4,5.7z M367,95.1c0,0.4,0.1,0.5,0.3,0.5c9.5-0.5,17-2,22.5-4.5c4.1,2.3,8.7,3.8,13.4,4.3
	c1.4,0.2,2.9,0.3,4.3,0.3c0.2,0,0.4-0.1,0.5-0.2c0.2-0.4,0.3-0.8,0.5-1.2c0.2-0.8,0.5-1.5,0.9-2.2c0.5-0.6,1.2-1,2-1.2
	c0.1-0.1,0.2-0.2,0.2-0.4c0-0.2-0.1-0.3-0.2-0.3c-2,0.1-3.9,0.2-5.8,0.2c-4.1,0.1-8.2-0.3-12.2-1.2c2.3-1.4,4.4-3,6.5-4.8
	c1.4-0.2,2.1-0.6,2.1-1.3c0-0.3-0.4-0.9-1.3-1.6c-1.7-1.4-2.7-2.1-3.1-2.1c-0.3,0-1.2,0.7-2.7,2h-10.2l0.4-0.5
	c1.2-0.1,1.8-0.4,1.8-0.9c0-0.3-0.3-0.6-0.9-0.8c-1.6-0.4-3.3-0.7-5-0.9c-0.6,1.3-1.3,2.6-2.3,3.7c-2.7,3.5-6,6.3-9.9,8.4
	c-0.1,0-0.1,0.1-0.1,0.2c0,0.3,0.1,0.5,0.4,0.5c0,0,0.1,0,0.1,0c4.9-1.3,9.4-3.8,13.2-7.2c1.7,2.1,3,3.6,4,4.6
	c-6,3.2-12.5,5.3-19.2,6.3C367,94.8,367,94.9,367,95.1L367,95.1z M383.1,83.1l0.5-0.5h11.2c-2,1.6-4.1,3.2-6.2,4.6
	C386.6,86.1,384.8,84.7,383.1,83.1L383.1,83.1z M385.4,70.9c0-0.6-1.9-1-5.6-1.4c0.1,0.8,0.2,1.6,0.2,2.4v2.4
	c-0.2,1.3,0.5,2.6,1.6,3.2c1.2,0.6,4.1,0.9,8.6,0.9c2.7,0.1,5.3-0.1,8-0.6c1.8-0.4,2.7-1.2,2.7-2.3c0-0.7-0.5-1.3-1.2-1.5
	c-0.5-0.2-0.9-0.7-0.9-1.3c-0.1-0.6-0.1-1.3-0.1-1.9c0-0.1-0.1-0.2-0.2-0.2c0,0,0,0,0,0c-0.1,0-0.3,0.1-0.3,0.2
	c-0.5,1.2-0.8,1.9-1,2.3c-0.3,0.6-0.8,1.1-1.4,1.4c-0.7,0.3-2.9,0.5-6.4,0.5c-1.4,0.1-2.9,0-4.3-0.2c-0.7-0.1-1.1-0.7-1-1.4v-1.4
	C384.9,71.7,385.4,71.4,385.4,70.9L385.4,70.9z M376.1,78.4c0.9-1.2,1.3-2.6,1.2-4.1c0-1.2-0.2-2.4-0.6-3.6c0-0.1-0.1-0.2-0.3-0.2
	s-0.3,0.1-0.3,0.2c-0.1,1.9-1.3,3.4-3.5,4.5c-0.5,0.2-1,0.5-1.4,0.9c-0.3,0.4-0.5,0.9-0.4,1.5c0,1.5,0.8,2.2,2.4,2.2
	C374.4,79.8,375.5,79.3,376.1,78.4L376.1,78.4z M421.9,22.1c0.1,0,0.1,0,0.2-0.1c0.8-0.8,1.6-1.6,2.2-2.6c0.7-1.1,1.2-2.4,1.5-3.7
	c0.3-1.5,0.5-3,0.6-4.5c0.1-1.7,0.1-4.1,0.1-7.5V2.9h12.6v15.8c0,0.1,0,0.2,0,0.2c-0.1,0-0.1,0-0.2,0c-1,0-2,0-3-0.1
	c-0.2,0-0.3,0.1-0.3,0.3c0,0,0,0,0,0c0,0.2,0.1,0.3,0.2,0.3c0.7,0.1,1.3,0.4,1.9,0.7c0.3,0.2,0.5,0.5,0.6,0.9c0,0.2,0.1,0.4,0.2,0.6
	c0.1,0.2,0.3,0.2,0.6,0.2c0.7,0,1.4-0.2,1.9-0.6c0.3-0.2,0.5-0.4,0.7-0.7c0.2-0.4,0.2-0.9,0.2-1.4l-0.1-13.3V3.3
	c0.4-0.3,0.6-0.6,0.6-0.8s-0.2-0.5-0.6-0.8c-1-0.8-1.3-0.9-1.5-0.9S440,0.9,439,1.9h-12.4c-0.8-0.4-1.6-0.8-2.6-1.3
	c-0.1-0.1-0.2,0-0.3,0.1c0,0,0,0.1,0,0.1c0.1,1.8,0.2,3.8,0.2,6.1c0,2.8-0.1,5.6-0.4,8.4c-0.2,2.2-0.9,4.4-2,6.3c0,0,0,0.1,0,0.1
	C421.5,21.9,421.6,22.1,421.9,22.1C421.8,22.1,421.9,22.1,421.9,22.1z M437.5,13c0-0.2-0.2-0.5-0.5-0.8c-0.9-0.7-1.1-0.8-1.3-0.8
	s-0.4,0.1-1.1,0.9h-4.1c-0.7-0.4-1.4-0.8-2.1-1.1c-0.1,0-0.1,0-0.2,0c-0.1,0-0.1,0.1-0.1,0.2c0,0.8,0.1,1.6,0.1,2.4l-0.1,4.5
	c0,0.3,0,0.6,0.2,0.8c0.3,0.2,0.6,0.3,0.9,0.2c0.3,0,0.7,0,1-0.2c0.3-0.2,0.5-0.5,0.4-0.9v-0.5h4.1v0.1c0,0.3,0.1,0.9,1.1,0.9
	c1.2,0,1.4-0.6,1.4-1.1l-0.1-3.3v-0.6C437.4,13.3,437.4,13.1,437.5,13L437.5,13z M434.5,16.7h-4.1v-3.4h4.1V16.7z M446.2,15.4
	c0.6-0.1,1.1-0.1,1.7-0.1h8l-0.1,5.7c0,0.4,0.2,1,1.2,1c1.3,0,1.6-0.7,1.6-1.2c0-0.3,0-1,0-2.1l0-1.1c0-1,0-1.7,0-2.3h7.9
	c0.2,0,0.5-0.1,0.5-0.4c0,0,0,0,0-0.1c0-0.2-0.1-0.4-0.8-1c-1.4-1.2-1.7-1.2-1.8-1.2c-0.2,0-0.5,0.1-1.8,1.7h-3.9c0-0.9,0-2.2,0-4
	V9.7h6c0.5,0,0.6-0.3,0.6-0.4c0-0.2-0.2-0.5-0.8-0.9c-1.2-0.9-1.6-1.1-1.7-1.1c-0.1,0-0.3,0-1.7,1.5h-2.4V4.9h7.2
	c0.4,0,0.5-0.2,0.5-0.4c0-0.2-0.1-0.4-0.8-1c-1.4-1.1-1.6-1.2-1.8-1.2c-0.2,0-0.5,0.1-1.7,1.6h-9.4c0.3-0.5,0.6-1,0.8-1.6
	c0.4,0,1.1-0.2,1.1-0.7c0-0.3-0.2-0.5-0.7-0.7c-0.8-0.3-1.7-0.6-2.6-0.9c-0.1,0-0.2,0-0.3,0.1c0,0,0,0,0,0c-0.1,0.9-0.4,1.8-0.7,2.6
	c-0.4,1.2-1,2.3-1.6,3.4c-0.7,1.2-1.4,2.2-2.4,3.2c-0.1,0.1-0.1,0.1-0.1,0.2c0,0.2,0.2,0.4,0.4,0.4c0,0,0,0,0.1,0c0.1,0,0.1,0,0.2,0
	c2.1-1.3,3.9-3,5.3-5.1h4v3.9h-3.6c-0.8-0.4-1.6-0.8-2.4-1.1c-0.1,0-0.1,0-0.2,0c-0.1,0-0.1,0.1-0.1,0.2c0.1,1,0.1,2.2,0.1,3.5v3
	h-1.8c-0.6,0-1.3-0.1-1.9-0.2c-0.1,0-0.2,0-0.2,0.1c0,0.1-0.1,0.1,0,0.2l0.3,0.9C446,15.4,446.1,15.4,446.2,15.4L446.2,15.4z
	 M452.3,9.7h3.6v4.6h-3.6V9.7z M483.1,140.1c0-0.3-0.3-0.7-0.9-1.2c-1.6-1.2-2-1.4-2.3-1.4s-0.7,0.2-2,1.7h-8.3
	c-1.2-0.7-2.5-1.3-3.8-1.9l-0.2-0.1l0,0.3c0.1,1.9,0.2,3.7,0.2,5.3l-0.2,7.8c0,0.6,0.3,1.2,1.7,1.2c1.5,0,2.2-0.5,2.2-1.6V150h8.7v0
	c0,0.7,0.3,1.4,1.7,1.4c1.5,0,2.3-0.5,2.3-1.6l-0.2-7.1v-1.3C482.7,140.9,483.1,140.5,483.1,140.1L483.1,140.1z M478.1,148.7h-8.7
	v-3.6h8.7L478.1,148.7z M478.1,143.9h-8.7v-3.5h8.7L478.1,143.9z M389.4,72.5c0.3,0.6,0.6,1.1,0.9,1.7c0.3,0.3,0.7,0.4,1,0.4
	c0.5,0,1-0.2,1.4-0.5c0.4-0.4,0.7-0.9,0.7-1.5c0-2.1-2.2-3.2-6.7-3.2c-0.3,0-0.4,0.1-0.4,0.3c0,0.1,0,0.1,0.1,0.2
	C387.7,70.5,388.7,71.4,389.4,72.5L389.4,72.5z M428.2,9.4c-0.4,0-0.8-0.1-1.1-0.2c-0.1,0-0.2,0-0.2,0.1c-0.1,0.1-0.1,0.1-0.1,0.2
	l0.2,0.9c0,0.1,0.1,0.2,0.2,0.2c0,0,0,0,0,0c0.3-0.1,0.6-0.1,1-0.1h10.3c0.4,0,0.5-0.2,0.5-0.4s-0.2-0.4-0.6-0.8
	c-1-0.8-1.3-0.9-1.4-0.9c-0.2,0-0.5,0.1-1.4,1.2h-1.9V6.9h3.9c0.4,0,0.5-0.2,0.5-0.4S438,6,437.5,5.6c-0.9-0.7-1.2-0.8-1.3-0.8
	c-0.2,0-0.5,0.1-1.3,1.1h-1.2V4.7c0.3-0.2,0.6-0.4,0.6-0.7c0-0.4-0.5-0.7-3-0.9c-0.1,0-0.1,0-0.2,0.1c0,0-0.1,0.1-0.1,0.2
	c0.1,0.9,0.1,1.5,0.1,1.8v0.8h-2.3c-0.4,0-0.8-0.1-1.1-0.2c-0.1,0-0.2,0-0.2,0.1c-0.1,0.1-0.1,0.1-0.1,0.2l0.3,0.9
	c0,0.1,0.1,0.2,0.3,0.1c0.3-0.1,0.6-0.1,1-0.1h2.2v2.6L428.2,9.4z M422.8,58.3c1.5-0.2,3-0.3,4.5-0.3h29.4c0.5,0,0.7-0.2,0.7-0.5
	s-0.6-1-1.7-1.9c-2.1-1.8-3.4-2.7-3.8-2.7c-0.4,0-1.7,1.3-3.7,3.9h-21.1c-1.6,0-3.3-0.1-4.9-0.4L422.8,58.3z M348.3,7.9
	c0.6,0,1.2-0.3,1.5-0.8c0.1-0.2,0.2-0.4,0.3-0.7l0.2,0.5c0,0.1,0.1,0.2,0.2,0.1c0.3-0.1,0.7-0.1,1-0.1h3.7c0.4,0,0.5-0.2,0.5-0.4
	s-0.2-0.4-0.6-0.8C354.4,5.1,354.2,5,354,5c-0.2,0-0.5,0.1-1.2,1h-1.3c-0.4,0-0.8-0.1-1.2-0.2h0c0.1-0.3,0.1-0.6,0.1-0.9
	c0,0,0-0.1,0-0.1h6v1.1l-0.1,3c0,0.3,0.1,0.6,0.2,0.8c0.3,0.2,0.6,0.3,1,0.3c1.3,0,1.5-0.8,1.5-1.2l-0.1-4h6.5
	c-0.1,0.6-0.2,1.1-0.3,1.6c-0.1-0.2-0.3-0.4-0.5-0.6c-0.9-0.6-1.1-0.7-1.3-0.7c-0.2,0-0.5,0.1-1.2,1h-1.4c-0.4,0-0.7-0.1-1.1-0.2
	c-0.1,0-0.2,0-0.3,0.1c0,0,0,0.1,0,0.1l0.3,0.9c0,0.1,0.1,0.2,0.3,0.1c0.3-0.1,0.6-0.1,0.9-0.1h3.8c0.2,0,0.3-0.1,0.4-0.2
	c0,0.2,0.2,0.3,0.4,0.2c0,0,0.1,0,0.1-0.1c0.5-0.3,1-0.7,1.5-1.1c0.2-0.2,0.4-0.3,0.6-0.3c0.3,0,0.6,0,0.9-0.1
	c0.2-0.1,0.4-0.3,0.4-0.6c0-0.2-0.1-0.4-0.7-1c-1.2-1.1-1.4-1.1-1.6-1.1s-0.4,0.1-1.3,1h-6.4V2.4h7.2c0.4,0,0.5-0.2,0.5-0.4
	c0-0.2-0.1-0.4-0.8-0.9c-1.3-0.9-1.5-1-1.7-1c-0.2,0-0.5,0.1-1.6,1.4h-10.6c-0.6,0-1.2-0.1-1.8-0.2c-0.1,0-0.2,0-0.2,0.1
	c0,0.1-0.1,0.1,0,0.2l0.3,0.9c0,0.1,0.1,0.2,0.2,0.1c0.5-0.1,1.1-0.1,1.7-0.1h4.4v1.3h-6c0-0.3-0.1-0.5-0.1-0.7
	c-0.1-0.1-0.2-0.2-0.4-0.2c-0.3,0-0.4,0.2-0.4,0.3c0,0.9-0.5,1.7-1.2,2c-0.3,0.1-0.6,0.3-0.8,0.5c-0.2,0.2-0.3,0.5-0.3,0.9
	c0,0.3,0.1,0.6,0.3,0.9C347.6,7.7,348,7.9,348.3,7.9L348.3,7.9z M374.2,6.7c0.4,0.6,0.7,1.2,1,1.9c0.1,0.4,0.3,0.8,0.6,1.2
	c0.2,0.3,0.6,0.4,1,0.4c0.4,0,0.7-0.1,1-0.4c0.3-0.3,0.5-0.7,0.5-1.2c0-0.7-0.3-1.3-0.8-1.7c-0.6-0.6-1.4-1.1-2.2-1.5
	c1-0.8,1.9-1.7,2.7-2.6c0.5-0.1,1.1-0.3,1.1-0.7c0-0.2-0.2-0.4-0.6-0.6c-0.3-0.2-1.1-0.4-2.4-0.9c-0.1,0-0.1,0-0.2,0
	c-0.1,0-0.1,0.1-0.1,0.1c-0.2,0.7-0.4,1.4-0.7,2.1c-0.3,0.7-0.6,1.4-1,2.1c-0.3-0.1-0.6-0.2-0.9-0.3c0,0-0.1,0-0.1,0
	c-0.2,0-0.3,0.2-0.3,0.3c0,0.1,0,0.2,0.1,0.2C373.4,5.7,373.9,6.2,374.2,6.7L374.2,6.7z M371.8,22c1.7-0.2,3.4-0.5,5-1.1
	c1.6-0.6,3-1.7,4-3.1c0.8-1.2,1.4-2.6,1.6-4.1c0.2,0.9,0.5,1.8,0.9,2.7c0.5,1.1,1.3,2.1,2.2,3c1.1,1,2.3,1.8,3.6,2.3
	c0.5,0.2,1,0.4,1.5,0.4c0.3,0,0.5-0.2,0.6-0.7c0.1-0.3,0.3-0.6,0.5-0.9c0.4-0.3,0.8-0.5,1.2-0.7c0.1-0.1,0.2-0.2,0.2-0.4
	c0-0.2-0.1-0.3-0.3-0.3c-2.3-0.2-4.6-1-6.5-2.2c-0.4-0.3-0.9-0.7-1.2-1.1c1.5-0.6,2.9-1.4,4.2-2.5c0.4,0,1.2,0,1.2-0.5
	c0-0.3-0.2-0.6-2.7-1.9c-0.1,0-0.2,0-0.3,0.1c-0.3,0.6-0.7,1.2-1.1,1.8c-0.6,0.8-1.3,1.5-2,2.2c-0.8-1.1-1.3-2.4-1.6-3.7
	c0.3-0.1,0.8-0.3,0.8-0.8c0-0.2-0.1-0.4-0.6-0.5c-0.3-0.1-1.2-0.2-2.6-0.3c-0.1,0-0.1,0-0.2,0.1c0,0-0.1,0.1-0.1,0.2
	c0,0.2,0,0.5,0,0.8c0,1.2-0.2,2.4-0.5,3.6c-0.3,1.1-0.8,2.2-1.5,3.1c-0.7,0.8-1.5,1.5-2.3,2c-1.4,0.8-2.8,1.4-4.3,1.8
	c-0.1,0.1-0.2,0.2-0.2,0.3c0,0.1,0,0.2,0.1,0.3C371.6,21.9,371.7,22,371.8,22L371.8,22z M376.8,11.3c-0.1,0-0.3,0.1-0.3,0.2
	c-0.1,0.5-0.4,1-0.7,1.4c-0.5,0.5-1,0.8-1.6,1.1c-0.3,0.1-0.6,0.3-0.9,0.6c-0.2,0.3-0.3,0.6-0.3,0.9c0,0.3,0.1,0.7,0.3,0.9
	c0.3,0.3,0.6,0.4,1,0.4c0.8,0,1.5-0.4,2-1c0.7-1.1,1-2.3,0.9-3.6c0-0.2,0-0.4,0-0.5C377.2,11.4,377.1,11.2,376.8,11.3L376.8,11.3z
	 M404.2,78.6c0.4,0.4,1,0.7,1.6,0.6c0.6,0,1.3-0.3,1.7-0.7c0.5-0.5,0.7-1.2,0.7-1.9c0-2.4-2.4-4.2-7.2-5.5h-0.1
	c-0.2,0-0.3,0.1-0.3,0.2c0,0.1,0,0.1,0.1,0.2c1.4,1.3,2.4,3.1,2.8,5C403.6,77.2,403.9,78,404.2,78.6L404.2,78.6z M364.4,7.1
	c-0.2,0-0.5,0.1-1.3,1h-2.4c-0.4,0-0.8-0.1-1.2-0.2c-0.1,0-0.2,0-0.2,0.1c-0.1,0.1-0.1,0.1-0.1,0.2l0.3,0.9c0,0.1,0.1,0.2,0.2,0.1
	c0,0,0,0,0,0c0.3-0.1,0.7-0.1,1-0.1h5c0.5,0,0.5-0.3,0.5-0.4c0-0.2-0.2-0.4-0.6-0.8C364.8,7.2,364.5,7.1,364.4,7.1z M354,7.1
	c-0.2,0-0.5,0.1-1.3,1h-2c-0.4,0-0.8-0.1-1.1-0.2c-0.1,0-0.2,0-0.2,0.1c-0.1,0.1-0.1,0.1-0.1,0.2l0.3,0.9c0,0.1,0.1,0.2,0.2,0.2
	c0,0,0,0,0,0c0.3-0.1,0.7-0.1,1-0.1h4.4c0.4,0,0.5-0.2,0.5-0.4c0-0.2-0.2-0.5-0.5-0.8C354.4,7.2,354.2,7.1,354,7.1L354,7.1z
	 M402.4,52.2H390V50c1.2-0.5,1.7-0.9,1.7-1.4c0-0.7-2.3-1.3-6.9-1.7c0.1,1,0.2,2.1,0.2,3.1v2.2h-13c-1.9-1.1-4-2.1-6-2.9
	c0.3,2.3,0.4,4.7,0.4,7c0,6.7,0,11.5-0.1,14.5c-0.1,3.3-0.4,6.3-0.7,9c-0.5,5-1.8,9.9-3.8,14.5c0,0,0,0,0,0.1c0,0.3,0.2,0.4,0.5,0.4
	c0.1,0,0.1,0,0.2-0.1c3.3-4.1,5.7-8.9,7.1-14c0.9-4,1.4-8.1,1.6-12.2h34.1c-0.2,1.1-0.5,2.1-0.9,3.1c0,0,0,0.1,0,0.2
	c0,0.2,0.1,0.3,0.3,0.3c0.1,0,0.1,0,0.2,0c1.1-0.4,2.2-0.9,3.2-1.5c0.6-0.3,1.3-0.4,2-0.4c1.1,0,1.6-0.3,1.6-0.9
	c0-0.5-0.4-1.1-1.3-1.8c-1.7-1.5-2.7-2.2-3.1-2.3c-0.4,0-1.2,0.7-2.5,2h-33.6c0.2-3.2,0.3-7.2,0.4-12.2v-1.8h38.7
	c0.5,0,0.8-0.2,0.8-0.5s-0.5-0.9-1.6-1.6c-2-1.4-3.2-2.1-3.6-2.1C405.4,49.1,404.3,50.1,402.4,52.2L402.4,52.2z M408.5,58.5
	c0-0.4-0.4-0.8-1.1-1.4c-1.4-1.1-2.3-1.7-2.7-1.7c-0.4,0-1.2,0.7-2.6,2.1h-6.5v-0.8c1.2-0.4,1.8-0.8,1.8-1.3c0-0.6-2.2-1.1-6.5-1.5
	c0.1,1,0.2,2.2,0.2,3.6h-6.8v-0.9c1.2-0.4,1.8-0.9,1.8-1.3c0-0.6-2.2-1.1-6.5-1.4c0.1,1,0.2,2.2,0.2,3.6h-3c-1.5,0-2.9-0.1-4.3-0.4
	l0.6,1.9c1.2-0.2,2.5-0.3,3.8-0.4h3v4.3h-3c-1.5,0-2.9-0.1-4.3-0.4l0.6,1.9c1.2-0.2,2.5-0.3,3.8-0.4h26c0,0.9,0.6,1.4,1.8,1.4
	c1.9,0,2.9-0.6,2.9-1.9l-0.1-2.6V60C408.1,59.2,408.5,58.8,408.5,58.5L408.5,58.5z M391.1,63.1h-6.8v-4.3h6.8V63.1z M402.7,63.1h-7
	v-4.3h7V63.1z M378.6,4.6c-0.2,0-0.3,0.1-0.3,0.3c0,0,0,0,0,0c0,0.1,0,0.2,0.1,0.3c0.5,0.4,1.1,0.8,1.5,1.3c0.4,0.6,0.8,1.2,1,1.8
	c0.1,0.4,0.3,0.7,0.6,1c0.2,0.2,0.6,0.4,0.9,0.4c0.3,0,0.7-0.1,0.9-0.4c0.3-0.3,0.4-0.7,0.4-1.1c0-0.6-0.3-1.2-0.8-1.6
	c-0.6-0.6-1.3-1-2-1.3c1-0.8,1.9-1.6,2.7-2.5c0.5-0.1,1.1-0.3,1.1-0.7c0-0.4-0.4-0.6-0.6-0.6c-0.8-0.3-1.6-0.6-2.4-0.9
	c-0.1,0-0.1,0-0.2,0c0,0-0.1,0.1-0.1,0.1c-0.2,0.7-0.4,1.3-0.7,1.9c-0.3,0.8-0.6,1.5-1,2.2C379.2,4.8,378.9,4.7,378.6,4.6
	C378.6,4.6,378.6,4.6,378.6,4.6L378.6,4.6z M384.4,5.1c0,0.1,0,0.2,0.1,0.2c1,0.8,1.8,1.8,2.4,3c0.2,0.5,0.4,0.9,0.7,1.3
	c0.2,0.3,0.6,0.4,0.9,0.4c0.3,0,0.7-0.1,0.9-0.4c0.3-0.3,0.5-0.7,0.4-1.1c0-1.2-1-2.3-3.1-3.2c1-0.8,1.9-1.7,2.8-2.6
	c0.5-0.1,1.1-0.3,1.1-0.7c0-0.4-0.4-0.6-0.6-0.6c-0.8-0.3-1.6-0.6-2.4-0.9c-0.1,0-0.1,0-0.2,0c-0.1,0-0.1,0.1-0.1,0.1
	c-0.2,0.7-0.4,1.4-0.7,2.1c-0.3,0.7-0.7,1.4-1.1,2.1c-0.2-0.1-0.5-0.1-0.9-0.2c0,0-0.1,0-0.1,0C384.6,4.8,384.5,4.9,384.4,5.1
	C384.4,5.1,384.4,5.1,384.4,5.1L384.4,5.1z M219.8,13.2c0.3,0,0.5-0.1,0.7-0.2c0.7-0.3,1.5-0.4,2.2-0.4c2.6-0.2,5.5-0.4,8.7-0.4
	c0.7,0,1.3,0,2,0.1c0.8,0,1.2,0,1.5,0c0.3,0,0.6-0.1,0.8-0.3c0.2-0.2,0.3-0.5,0.3-0.8c0-0.5-0.5-1-1.6-1.5c-0.4-0.2-0.7-0.2-1.1-0.2
	c-0.3,0-0.5,0.1-0.8,0.2c-0.5,0.2-1.1,0.3-1.7,0.3c-2.4,0.1-5.2,0.2-8.3,0.4c-1.1,0.1-2,0.1-2.4,0.1c-0.3,0-0.5,0-0.8-0.1
	c-0.4-0.2-0.7-0.4-1-0.7c-0.2-0.2-0.3-0.3-0.4-0.3c-0.2,0-0.5,0.1-0.5,0.8c0,0.5,0.2,1,0.5,1.4C218.6,12.7,219.2,13.2,219.8,13.2
	L219.8,13.2z M538.9,171.5h-11.8v1.1h12.8v-41.3h-1.1V171.5z M309.3,20.9c0-0.7,0-2.1-0.1-4.2h4.1c0.4,0,0.5-0.2,0.5-0.4
	c0-0.2-0.1-0.4-0.7-0.9c-1.2-1-1.4-1.1-1.6-1.1c-0.2,0-0.5,0.1-1.5,1.5h-0.9c0-1-0.1-3.1-0.1-6.1l0-1.6c0.6,1.6,1.4,3.1,2.3,4.5
	c1.2,1.8,2.8,3.3,4.6,4.5c0.3,0.3,0.7,0.5,1.2,0.5c0.3,0,0.5-0.2,0.6-0.6c0.1-0.4,0.3-0.8,0.6-1.1c0.3-0.3,0.6-0.5,1-0.6
	c0.2-0.1,0.3-0.2,0.2-0.4c0-0.1-0.1-0.2-0.2-0.2c-2.4-0.7-4.6-1.9-6.5-3.6c-1.4-1.3-2.6-2.9-3.4-4.7h8.6c0.4,0,0.5-0.2,0.5-0.4
	c0-0.2-0.1-0.4-0.8-1c-1.5-1.2-1.7-1.2-1.8-1.2c-0.2,0-0.5,0.1-1.6,1.6h-5.2V2c0.5-0.3,0.7-0.5,0.7-0.8c0-0.4-0.5-0.6-0.7-0.6
	c-0.8-0.2-1.7-0.3-2.6-0.3c-0.1,0-0.1,0-0.2,0.1c0,0-0.1,0.1-0.1,0.2c0.1,1.1,0.1,2.1,0.1,3.2v1.8h-6.3c-0.7,0-1.5-0.1-2.2-0.2
	c-0.1,0-0.2,0-0.2,0.1c0,0.1-0.1,0.1,0,0.2l0.3,0.9c0,0.1,0.1,0.2,0.2,0.2c0.7-0.1,1.3-0.1,2-0.1h5c-0.8,1.9-1.9,3.8-3.1,5.5
	c-1.4,2-3.2,3.9-5.2,5.4c-0.1,0.1-0.1,0.1-0.1,0.2c0,0.2,0.1,0.4,0.3,0.4c0,0,0,0,0,0c0,0,0.1,0,0.1,0l0,0c1.8-0.8,3.5-2,5-3.3
	c1.6-1.5,3.1-3.1,4.2-5c0,1.2,0,3.2-0.1,6.2h-2.6c-0.6,0-1.2-0.1-1.8-0.2c-0.1,0-0.1,0-0.2,0.1c-0.1,0.1-0.1,0.1,0,0.2l0.3,0.9
	c0,0.1,0.1,0.2,0.2,0.2c0.6-0.1,1.1-0.1,1.7-0.1h2.4c0,0.6,0,1.4-0.1,2.6c0,1,0,1.6,0,1.8c0,0.4,0.2,1,1.2,1
	C309,22.1,309.3,21.5,309.3,20.9z M317.8,161.2c0,0.6,0.2,1.3,0.5,1.8c0.3,0.5,0.8,0.7,1.4,0.7c0.5,0,1-0.2,1.4-0.6
	c0.5-0.5,0.7-1.1,0.7-1.8c0-2.2-1.8-4.6-5.4-7.2c-0.1,0-0.1-0.1-0.2-0.1c-0.4,0-0.5,0.3-0.5,0.4c0,0.1,0,0.1,0.1,0.2
	c0.8,1.4,1.4,3,1.8,4.6c-1.9,0.4-3.8,0.7-5.8,0.8c1.8-3.1,3.2-6.4,4.1-9.8h4.9c0.6,0,0.7-0.4,0.7-0.5c0-0.2-0.1-0.5-0.9-1.3
	c-1.5-1.3-2-1.5-2.2-1.5c-0.3,0-0.7,0.2-2.4,2.1h-6.1c-0.9,0-1.8-0.1-2.6-0.3l-0.3-0.1l0.6,1.8l0.1,0c0.8-0.1,1.6-0.2,2.3-0.2h1.6
	c-0.4,3.4-1,6.8-2,10c-0.4,0-0.8,0-1.4,0h-1.2l0.1,0.2c0.6,2.1,1.1,3.5,1.3,4c0.3,0.6,0.6,0.9,0.9,0.9c0.4,0,0.8-0.5,1.1-1.4
	c2.6-0.9,5.1-1.9,7.5-3.2C317.7,160.9,317.8,161,317.8,161.2z M298.7,61.2c-0.5,0-1.3,0.9-2.6,2.8h-0.5v-9.1
	c1.1-0.9,1.7-1.5,1.7-1.7c0-0.4-0.4-0.9-1.2-1.5c-1.6-1.3-2.6-1.9-2.9-1.9c-0.4,0-1.3,0.8-2.7,2.5H273c-1.3,0-2.5-0.2-3.7-0.5
	l0.6,2.1c1.1-0.3,2.2-0.4,3.2-0.4h4.3v10.6h-8.5c-1.4,0-2.7-0.1-4-0.4l0.6,1.9c1.1-0.2,2.3-0.3,3.5-0.3h8.5
	c-0.2,5.5-0.3,9.1-0.6,10.8h-6.9c-1.1,0-2.2-0.1-3.3-0.4l0.6,1.9c0.9-0.2,1.9-0.3,2.8-0.4h6.6c-0.4,3.4-1.5,6.7-3.2,9.7
	c-1.7,2.7-4.6,5.3-8.5,7.7c-0.1,0-0.1,0.1-0.1,0.2c0,0.3,0.1,0.4,0.3,0.4h0c3.6-1,6.9-2.7,9.8-5.1c2.6-2.3,4.6-5.2,5.6-8.5
	c0.5-1.5,0.8-2.9,1.1-4.4h9v0.9c0,0.5,0.1,1.1,0.5,1.5c0.5,0.4,1.2,0.6,1.9,0.5c1.8,0,2.7-0.7,2.7-2.1c0-0.5,0-1.9-0.1-4.2
	c-0.1-3.3-0.1-6.1-0.1-8.6h6c0.4,0,0.7-0.2,0.7-0.5c0-0.3-0.3-0.8-1-1.5C299.9,61.8,299.1,61.2,298.7,61.2z M290.7,75.9h-8.8
	c0.3-2.1,0.5-5.7,0.5-10.8h8.3L290.7,75.9z M290.7,64h-8.3c0-2.3,0-5.9,0.1-10.6h8.3L290.7,64z M343,167.7c-0.2-0.1-0.3-0.2-0.4-0.3
	c0,0-0.1-0.1-0.1-0.5v-3.5c0-0.2-0.1-0.3-0.3-0.3c0,0,0,0,0,0c-0.2,0-0.3,0.1-0.4,0.3c-0.4,1.4-0.6,2.5-0.8,3
	c-0.2,0.6-0.5,1.2-1,1.6c-0.3,0.2-1.3,0.5-3.9,0.5c-0.9,0.1-1.8,0-2.6-0.2c-0.3-0.1-0.5-0.5-0.5-1.1v-2.6c0.3,0.8,0.5,1.4,0.6,1.7
	c0.2,0.5,0.5,0.8,0.9,0.8c0.4,0,0.7-0.3,0.9-1.1c1.1-0.4,2.1-0.8,3.1-1.2c0.1,0.4,0.2,0.7,0.4,1c0.2,0.3,0.6,0.5,0.9,0.4
	c0.4,0,0.7-0.1,1-0.4c0.3-0.3,0.5-0.7,0.4-1.2c0-1.5-1.2-2.8-3.7-3.9c-0.1,0-0.2,0-0.3,0c0.3-0.5,0.6-1,0.9-1.5
	c0.4-0.1,1.2-0.3,1.2-0.8c0-0.3-0.2-0.6-0.5-0.7c-1.1-0.4-2.2-0.7-3.3-0.9l-0.2,0l0,0.2c-0.1,0.9-0.2,1.9-0.4,2.8
	c-0.3,1.4-0.6,2.6-0.9,3.6c-0.4,0-0.7,0-1,0V155h4c0.1,0.6,0.4,1.1,1.6,1.1c1.7,0,2.1-0.9,2.1-1.7l-0.2-8.9v-1.7
	c0.7-0.5,1.1-0.9,1.1-1.3c0-0.3-0.3-0.7-0.9-1.2c-1.5-1.2-2-1.3-2.2-1.3s-0.6,0.2-1.9,1.6h-7.3c0.9-0.7,1.7-1.5,2.4-2.4
	c1.2-0.2,1.7-0.5,1.7-1c0-0.4-0.6-0.9-4.7-1.9l-0.2,0l0,0.2c0,0.7-0.1,1.4-0.3,2.1c-0.2,1-0.4,2-0.8,3h-2.4c-0.6-0.3-1.8-1-3.6-1.9
	l-0.3-0.1l0,0.3c0.1,2.1,0.2,4.6,0.2,7.5l-0.1,7.8c0,0.4,0.1,0.8,0.3,1.1c0.4,0.3,0.9,0.4,1.3,0.3c0.5,0,1.1-0.1,1.5-0.4
	c0,0.2,0,0.5,0,0.8c0,2.6-0.7,5.2-2,7.4c-1.9,2.8-4.5,5.1-7.6,6.6c-0.1,0.1-0.1,0.1-0.1,0.3c0,0.2,0,0.3,0.2,0.4
	c0.1,0.1,0.1,0.1,0.2,0.1c0,0,0.1,0,0.1,0c3.2-0.7,6.2-2.2,8.7-4.4c2.5-2.5,4-5.8,4.3-9.3c0.7-0.3,1.1-0.7,1.1-1
	c0-0.4-0.3-0.6-0.8-0.8c-1.2-0.2-2.5-0.4-3.7-0.5c0.2-0.3,0.2-0.6,0.2-0.9h4.6v12.8c-0.1,1,0.2,2,0.8,2.8c0.7,0.7,2.3,1,4.8,1
	c2.2,0.1,4.4-0.1,6.5-0.5c1.3-0.3,2-1,2-2C343.8,168.4,343.5,167.9,343,167.7L343,167.7z M337.1,161c0,0.1,0,0.1,0.1,0.2
	c0.4,0.5,0.8,1.1,1,1.8c-0.8,0.1-1.7,0.2-2.5,0.2C336.1,162.5,336.6,161.8,337.1,161L337.1,161z M329,153.8h-4v-5h4V153.8z
	 M329,147.6h-4v-4.7h4V147.6z M332.4,142.9h4.6v4.7h-4.6V142.9z M332.4,148.8h4.6v5h-4.6V148.8z M275.6,155.4h22.8v-1.6h-22.8V155.4
	z M349.7,93.2c0.6,0,1.1-0.2,1.5-0.6c0.5-0.5,0.7-1.2,0.7-1.8c0-1.2-0.8-2.4-2.5-3.4c-2.4-1.3-5-2.1-7.7-2.3c1.9-1,3.7-2.3,5.3-3.7
	c0.6,0,1.2-0.1,1.7-0.2c0.3,0,0.5-0.3,0.5-0.5c0-0.5-1.7-1.6-5-3.1c-0.3,1.1-0.8,2.2-1.3,3.3c-0.6,1.4-1.4,2.7-2.1,4.1l-0.6,0v-6.6
	c1-0.5,1.5-0.9,1.5-1.3c0-0.3-0.3-0.6-0.8-0.7c-1.7-0.3-3.4-0.5-5.1-0.7c0.2,1.3,0.3,2.7,0.3,4v5.1c-2.5,0.7-4.8,1.3-6.6,1.7
	c-1.7,0.4-3.3,0.6-5,0.7c0.9,2.3,1.5,3.8,1.8,4.3c0.3,0.6,0.6,0.8,0.8,0.8c0.4,0,0.7-0.5,0.8-1.5c2.9-1.5,5.6-3.2,8.2-5.2v4.6
	c0,0.5-0.3,0.7-0.8,0.7c-1.7,0-3.4-0.1-5.1-0.2c-0.1,0-0.2,0.1-0.2,0.3c0,0.2,0.1,0.3,0.2,0.4c1,0.2,2,0.6,3,1.1
	c0.7,0.5,1.2,1.2,1.3,2c0,0.4,0.1,0.7,0.3,1c0.1,0.2,0.3,0.3,0.6,0.3c1.8,0.2,3.5-0.7,4.3-2.2c0.4-0.7,0.6-1.5,0.6-2.4l-0.1-5.5
	c2.9,1.5,5.4,3.6,7.3,6.3C348,92.7,348.8,93.1,349.7,93.2L349.7,93.2z M263.3,167.1c-0.3-0.1-0.5-0.3-0.8-0.5
	c-0.1-0.3-0.2-0.6-0.2-0.9v-5.5c0-0.2-0.1-0.2-0.3-0.2c-0.2,0-0.3,0.1-0.3,0.2c-0.6,2.3-1,3.9-1.3,4.7c-0.3,1-0.8,1.9-1.6,2.6
	c-0.8,0.5-2.9,0.8-6.2,0.8c-1.4,0.1-2.8,0-4.2-0.3c-0.6-0.2-0.9-0.8-0.9-1.9v-5.7c0.7,2.2,1.2,3.6,1.4,4.2c0.3,0.7,0.7,1,1.1,1
	c0.5,0,0.9-0.5,1.3-1.6c1.8-0.6,3.6-1.3,5.3-2.1c0.1,0.7,0.3,1.3,0.6,1.9c0.3,0.4,0.7,0.6,1.2,0.6c0.5,0,1-0.2,1.3-0.6
	c0.4-0.4,0.6-1,0.6-1.6c0-2.3-1.9-4.2-5.6-5.9c0,0-0.1,0-0.1,0c-0.2,0-0.3,0.1-0.3,0.3c0,0.1,0,0.1,0.1,0.2c0.7,0.9,1.3,2,1.7,3.1
	c-1.6,0.2-3.2,0.3-4.8,0.4c1.6-2.1,3.1-4.4,4.3-6.8c1.1-0.2,1.7-0.6,1.7-1.1c0-0.4-0.3-0.7-0.7-0.8c-1.7-0.6-3.3-1.1-5-1.5
	c-0.1,1.5-0.3,2.9-0.7,4.3c-0.5,2.2-1,4.2-1.5,5.9c-0.8,0-1.5,0-2-0.1v-13.3h6.8c0.1,1.2,0.8,1.8,2.2,1.8c2,0,3-0.8,3-2.3l-0.3-13.9
	v-2.7c1.1-0.7,1.7-1.3,1.7-2c0-0.4-0.4-1-1.3-1.6c-1.7-1.3-2.8-2-3.2-2c-0.4,0-1.4,0.9-2.9,2.6h-12.1c1.6-1.2,3-2.6,4.3-4.2
	c1.7-0.2,2.6-0.7,2.6-1.3c0-0.6-2.4-1.5-7.1-2.7c-0.1,1.1-0.2,2.2-0.5,3.4c-0.3,1.6-0.7,3.3-1.3,4.8h-4c-0.9-0.5-2.7-1.5-5.6-3.1
	c0.2,3.3,0.3,7.2,0.3,11.7l-0.2,12.2c-0.1,0.6,0.1,1.1,0.4,1.6c0.6,0.3,1.2,0.5,1.9,0.4c2,0,3-0.8,3-2.4v-0.2h7.6v20.1
	c0,2,0.4,3.4,1.2,4.1c1.1,1,3.5,1.5,7.3,1.5c5.1,0,8.4-0.2,10.1-0.7c1.9-0.5,2.9-1.5,2.9-2.9C264.3,168.1,263.9,167.5,263.3,167.1
	L263.3,167.1z M241.8,145.5h-6.7v-8.3h6.7V145.5z M241.8,135.8h-6.7V128h6.7V135.8z M246.6,128h7.6v7.8h-7.6L246.6,128z
	 M246.6,137.1h7.6v8.3h-7.6L246.6,137.1z M227.3,125.5c-1.8-1.5-2.8-2.3-3.2-2.3c-0.5,0-1.6,1.1-3.4,3.2h-6.5
	c-1.6,0-3.3-0.2-4.9-0.5l0.7,2.2c1.5-0.2,2.9-0.3,4.4-0.3h13.5c0.5,0,0.8-0.2,0.8-0.6C228.6,126.8,228.2,126.3,227.3,125.5
	L227.3,125.5z M224.3,156.7c0.1,1,0.3,1.9,0.7,2.7c0.4,0.6,1.1,1,1.9,0.9c0.8,0,1.5-0.3,2-0.9c0.7-0.7,1-1.7,1-2.6
	c0-3.4-2.8-7.1-8.3-10.9c-0.1,0-0.1-0.1-0.2-0.1c-0.3,0-0.5,0.1-0.5,0.3c0,0,0,0.1,0,0.1c1.4,2.3,2.3,4.9,2.9,7.5
	c-3.2,0.6-6.5,1.1-9.8,1.4c3-5,5.2-10.3,6.7-15.9h7.7c0.5,0,0.8-0.2,0.8-0.6c0-0.4-0.5-1-1.4-1.8c-1.8-1.5-2.8-2.3-3.2-2.3
	c-0.5,0-1.7,1.1-3.6,3.3h-9.6c-1.4,0-2.8-0.2-4.2-0.5l0.7,2.2c1.2-0.2,2.5-0.3,3.7-0.3h2.8c-0.6,5.5-1.6,10.9-3.2,16.1
	c-0.6,0-1.4,0.1-2.4,0.1h-1.5c1,3.4,1.7,5.4,2,6.2c0.4,0.9,0.7,1.3,1.2,1.3c0.6,0,1.1-0.7,1.5-2.2c4.2-1.4,8.2-3.1,12.1-5.2
	C224.2,156,224.2,156.4,224.3,156.7L224.3,156.7z M215.6,79.1c0.1,1.2,0,2.3-0.4,3.4c-0.2,0.3-0.6,0.5-0.9,0.4
	c-0.4,0-1.7-0.1-3.8-0.3c-0.1,0-0.3,0-0.3,0.4c0,0.2,0.1,0.3,0.2,0.4c0.8,0.2,1.5,0.5,2.3,0.8c0.5,0.3,0.8,0.8,0.9,1.3
	c0,0.2,0.1,0.5,0.2,0.7c0.2,0.1,0.5,0.2,0.7,0.2c1.2,0.1,2.3-0.4,3.1-1.2c1-1.3,1.5-3,1.4-4.7c0-1.9-0.3-3.9-1.1-5.7
	c-1-2.1-2.5-4-4.3-5.6c1-0.8,2-1.6,2.9-2.5h1c0.6,4.3,2.2,8.4,4.6,12.1c1.4,2.1,3.2,3.9,5.3,5.3c0.8,0.6,1.2,0.6,1.4,0.4
	c0.1-0.2,0.3-0.4,0.3-0.7c0.2-0.6,0.4-1.1,0.7-1.6c0.3-0.4,0.6-0.7,1-0.9c0.1-0.1,0.2-0.2,0.2-0.3c0-0.1-0.1-0.2-0.2-0.2
	c-2.4-0.7-4.5-1.8-6.4-3.5c-1-0.9-2-2-2.7-3.1c1.8-1,3.5-2.1,5.1-3.3c0.9,0,1.4-0.2,1.4-0.7c0-0.3-0.4-0.9-3.4-2.7
	c-0.1,0-0.2,0-0.2,0.1c0,0,0,0,0,0c-0.3,0.8-0.8,1.7-1.2,2.4c-0.7,1.1-1.5,2.1-2.4,3c-1.1-1.9-2-4-2.5-6.2h7.9
	c0.5,0,0.6-0.3,0.6-0.5c0-0.2-0.1-0.5-1-1.2c-0.1,0-0.1-0.1-0.2-0.1c0,0,0,0,0.1,0c0.9-0.5,1.7-0.9,2.1-1.2c0.4-0.3,0.9-0.4,1.5-0.4
	c1,0,1.5-0.3,1.5-0.8c0-0.3-0.3-0.7-1-1.3c-1.9-1.5-2.3-1.7-2.5-1.7s-0.6,0.2-1.8,1.5h-8.2v-2.2c0.7-0.2,1-0.5,1-0.9
	s-0.5-0.8-4.4-1.2c0,0-0.1,0-0.1,0c0,0-0.1,0.1,0,0.1c0,1,0.1,1.6,0.1,1.8v2.3H206c-0.1-0.6-0.2-1.1-0.3-1.7c0-0.1-0.2-0.2-0.3-0.2
	c-0.3,0-0.4,0.2-0.4,0.3c0,1.4-0.9,2.6-2.2,3.2c-0.4,0.2-0.7,0.4-1,0.7c-0.2,0.3-0.3,0.7-0.3,1.1c0,1.2,0.6,1.8,1.7,1.8
	c0.8,0,1.6-0.4,2-1.2c0.5-0.9,0.8-2,0.7-3h20.2c-0.1,0.9-0.3,1.7-0.6,2.5c0,0,0,0,0,0v0c-1.1-0.9-1.5-1-1.6-1c-0.2,0-0.7,0.2-2.1,2
	H208c-0.8,0-1.6-0.1-2.4-0.2c-0.1,0-0.1,0-0.1,0c0,0-0.1,0.1,0,0.2l0.3,1.2c0,0.1,0.1,0.1,0.2,0.1c0.7-0.1,1.4-0.2,2-0.2h4.1
	c-2.8,2.8-6.2,4.9-9.9,6.1c-0.1,0-0.2,0.1-0.2,0.2c0,0.1,0,0.2,0.1,0.3c0.1,0.1,0.2,0.1,0.3,0.1c3.6-0.6,7.1-1.8,10.3-3.6
	c0.3,0.4,0.5,0.7,0.7,1.1c-3.3,3.1-7.3,5.5-11.5,7c-0.1,0-0.2,0.1-0.2,0.3c0,0.1,0,0.2,0.1,0.3c0.1,0.1,0.2,0.1,0.3,0.1
	c2.2-0.3,4.3-0.8,6.4-1.5c2.2-0.8,4.4-1.8,6.4-3.1c0.2,0.5,0.3,1,0.4,1.3c-3.9,3.7-8.6,6.6-13.7,8.3c-0.1,0-0.2,0.1-0.2,0.3
	c0,0.1,0,0.2,0.1,0.3c0.1,0.1,0.2,0.1,0.3,0.1C206.7,83.6,211.4,81.8,215.6,79.1L215.6,79.1z M264,64.6c-0.8-0.3-1.6-0.5-2.4-0.5
	c2.5-4,4.6-8.2,6.2-12.7c1.3-0.2,1.9-0.6,1.9-1.2c0-0.7-2.3-1.6-7-2.9c-0.2,1.8-0.5,3.6-0.9,5.4c-0.9,3.6-2.1,7-3.6,10.4
	c-1.6,3.6-3.6,7-6,10.2c0,0,0,0.1,0,0.1c0,0.3,0.1,0.4,0.4,0.4c0,0,0.1,0,0.1,0c2.1-1.6,4-3.5,5.7-5.5V80c0,3.1-0.1,7.7-0.3,13.8
	c0,1.3,0.7,1.9,2.2,1.9c1.8,0,2.7-0.7,2.7-2.2V66.4c0.8-0.4,1.3-0.8,1.3-1.2C264.4,64.9,264.2,64.7,264,64.6L264,64.6z M372.3,147.2
	c-2.6-2-5.8-3-9-2.8c-3.1-0.1-6.1,0.8-8.8,2.4c-2,1.3-3.7,3-4.9,5.1c-1,1.7-1.6,3.6-1.6,5.5c0,2.9,0.7,5.2,2,6.7
	c0.7,0.9,1.7,1.4,2.8,1.5c1.2,0,2.3-0.6,3.1-1.5c1.6-1.8,2.9-3.9,4-6c1-1.6,1.7-3.4,2.3-5.2c0.5-1.2,0.7-2.5,0.8-3.9
	c0-1.1-0.5-2.1-1.2-2.8c0.3,0,0.7,0,1.1,0c0.3,0,0.6,0,0.9,0c2,0.1,4,0.8,5.7,1.9c2.1,1.4,3.1,3.7,3.1,6.6c0,1.5-0.2,3-0.7,4.4
	c-0.6,1.4-1.4,2.8-2.5,3.8c-2.6,2.4-5.7,4-9.2,4.7c-0.2,0-0.8,0.2-0.8,0.6c0,0.4,0.3,0.5,1,0.5c2.5-0.1,5-0.5,7.4-1.4
	c2-0.7,3.8-1.8,5.4-3.2c2.2-1.9,3.4-4.7,3.4-7.5C376.7,152.8,375.1,149.4,372.3,147.2z M360.1,150.7c-1.2,3.1-2.8,6.1-4.8,8.8
	c-1.3,1.8-2,2.2-2.3,2.2c-0.5,0-1-0.4-1.5-1.1c-0.6-1.2-0.9-2.5-0.9-3.8c0-1.1,0.2-2.3,0.6-3.4c1.5-3.9,5-6.6,9.1-7.2
	c0.4,0.4,0.6,0.9,0.6,1.4C360.8,148.7,360.6,149.7,360.1,150.7L360.1,150.7z M199.1,159.3c-1.8-1.4-3-2.2-3.4-2.2
	c-0.5,0-1.6,1-3.3,3.1h-21.3c-1.6,0-3.3-0.2-4.9-0.5l0.7,2.2c1.5-0.2,2.9-0.3,4.4-0.3h28.4c0.5,0,0.8-0.2,0.8-0.6
	S200.1,160.1,199.1,159.3L199.1,159.3z M196.5,20.7c0.2,0,0.3-0.1,0.5-0.1c3.8-1.4,7.3-3.7,9.9-6.8c0.2,0.2,0.5,0.6,1,1.4
	c0.3,0.4,0.7,0.7,1.2,0.7c0.3,0,0.6-0.1,0.9-0.4c0.2-0.3,0.4-0.6,0.4-1c-0.1-1.2-0.8-2.2-1.8-2.8c0.8-1.1,1.8-2.5,2.8-4.1
	c0.1-0.2,0.3-0.4,0.5-0.5c0.4-0.1,0.6-0.5,0.6-0.9c0-0.5-0.4-1-1.3-1.7c-0.3-0.2-0.6-0.4-1-0.4c-0.3,0-0.6,0.1-0.8,0.3
	c-0.1,0.1-0.3,0.2-0.5,0.3c-1.1,0.2-2.2,0.4-3.3,0.5c0.2-0.2,0.2-0.3,0.3-0.4c0.1-0.1,0.3-0.2,0.4-0.3c0.3-0.2,0.5-0.5,0.5-0.9
	c0-0.5-0.4-0.9-1.2-1.4c-0.7-0.4-1.4-0.7-2.2-0.7c-0.2,0-0.4,0.1-0.6,0.1c-0.2,0.1-0.4,0.2-0.4,0.5c0,0.2,0.2,0.3,0.3,0.4
	c0.3,0.1,0.5,0.3,0.7,0.5c0.1,0.1,0.1,0.1,0.1,0.2c-0.2,0.8-0.5,1.5-1,2.2c-0.8,1.3-1.6,2.5-2.5,3.7c-0.8,1.1-1.7,2.1-2.7,3.1
	c-0.1,0.1-0.2,0.3-0.2,0.5c0,0.2,0.2,0.4,0.4,0.4c0,0,0,0,0.1,0c0.1,0,0.3-0.1,0.4-0.1c1.2-0.7,2.3-1.5,3.2-2.4
	c1.3-1.3,2.4-2.6,3.5-4.1c0.4,0.1,0.7,0.2,1.1,0.2c0.4,0,0.8-0.1,1.2-0.2c0.1,0,0.4-0.1,0.9-0.2c0.5-0.1,0.9-0.2,1.2-0.2l0,0
	c-0.8,1.5-1.6,2.9-2.6,4.3c-0.9-0.4-1.9-0.6-2.9-0.8c-0.1,0-0.3-0.1-0.6-0.1h-0.1c-0.2,0-0.4,0.1-0.5,0.4c0,0,0,0,0,0.1
	c0,0.2,0.1,0.3,0.5,0.5c0.8,0.5,1.6,1,2.4,1.6c-1.2,1.6-2.6,3-4.1,4.3c-1.5,1.2-3,2.3-4.6,3.3c-0.3,0.1-0.4,0.3-0.4,0.5
	C196,20.6,196.2,20.7,196.5,20.7C196.4,20.7,196.4,20.7,196.5,20.7L196.5,20.7z M516.6,6.3c0-0.3-0.2-0.5-0.7-0.6
	c-0.9-0.2-1.7-0.3-2.6-0.4c-0.1,0-0.1,0-0.2,0.1c0,0-0.1,0.1-0.1,0.2c0.1,1.2,0.1,2.3,0.1,3.1v11h-15.1V7.1c0.4-0.1,0.8-0.4,0.8-0.8
	c0-0.2-0.1-0.5-0.6-0.6c-0.9-0.2-1.8-0.3-2.7-0.4c-0.1,0-0.1,0-0.2,0.1c0,0-0.1,0.1-0.1,0.2c0.1,1.2,0.1,2.4,0.1,3.5
	c0,5.6,0,9.6-0.1,11.9c0,0.7,0.4,1.1,1.2,1.1c1.3,0,1.6-0.7,1.6-1.2v-0.2h15.1V21c-0.1,0.5,0.3,1,0.9,1.1c0.1,0,0.2,0,0.2,0
	c1.3,0,1.6-0.6,1.6-1.2c-0.1-5.2-0.1-9.1-0.1-11.6V7.1C516.3,6.8,516.6,6.6,516.6,6.3L516.6,6.3z M495.1,155.4h22.8v-1.6h-22.8
	V155.4z M495.3,2.9c0.9-0.1,1.6-0.1,2.1-0.1h6.8v3.5h-2.1c-0.7-0.5-1.5-0.9-2.3-1.2c-0.1,0-0.1,0-0.2,0c-0.1,0-0.1,0.1-0.1,0.2
	c0.1,1.3,0.1,2.5,0.1,3.7l-0.1,8.5c0,0.3,0.1,0.9,1.1,0.9c1.2,0,1.4-0.7,1.4-1.1v-0.5h6.8v0.5c0,0.5,0.3,1,0.9,1c0.1,0,0.1,0,0.2,0
	c1.2,0,1.5-0.6,1.5-1.2l-0.1-7.9V7.8c0.5-0.3,0.7-0.6,0.7-0.9c0-0.2-0.2-0.5-0.6-0.8c-1-0.8-1.3-0.9-1.4-0.9s-0.4,0.1-1.3,1.1h-2.2
	V2.8h9.5c0.4,0,0.5-0.2,0.5-0.4c0-0.2-0.1-0.4-0.8-1c-1.4-1.2-1.7-1.3-1.9-1.3c-0.2,0-0.5,0.1-1.8,1.7h-14.7c-0.8,0-1.6-0.1-2.4-0.2
	c-0.1,0-0.1,0-0.2,0.1c0,0.1-0.1,0.1,0,0.2l0.3,0.9C495.1,2.9,495.1,2.9,495.3,2.9L495.3,2.9z M504.2,15.8h-2.1v-4.1h2.1V15.8z
	 M504.2,10.8h-2.1V7.3h2.1V10.8z M506.7,7.3h2.3v3.5h-2.3V7.3z M506.7,11.7h2.3v4.1h-2.3V11.7z M491.7,8.8c-2.1-0.4-4.1-1.2-5.9-2.3
	c-1.8-1.1-3.3-2.6-4.5-4.3c0.6-0.2,0.9-0.4,0.9-0.7c0-0.2-0.2-0.4-0.5-0.5c-0.3-0.1-1.2-0.4-3-0.9c-0.1,0-0.2,0-0.3,0.1
	c-0.4,1.3-1,2.5-1.8,3.6c-1.8,3-4.4,5.5-7.4,7.3c-0.1,0.1-0.1,0.1-0.1,0.2c0,0.2,0.1,0.4,0.3,0.4c0,0,0,0,0.1,0c0,0,0,0,0.1,0
	c4.6-1.5,8.5-4.7,11-8.8c1.1,2.2,2.7,4.2,4.5,5.9c1.1,1,2.2,1.8,3.4,2.5c0.3,0.2,0.7,0.4,1.1,0.4c0.2,0,0.5-0.1,0.6-0.6
	c0.1-0.8,0.7-1.5,1.5-1.7c0.2-0.1,0.3-0.3,0.3-0.5C491.9,9,491.8,8.9,491.7,8.8L491.7,8.8z M599.8,167.8c-5.4-0.4-9.7-1.5-13.1-3.4
	c-0.6-0.3-1.1-0.6-1.5-0.9c2.3-0.7,4.5-1.6,6.7-2.6c0.3,0,0.6,0,0.9,0c0.9,0,1.3-0.2,1.3-0.6c0-0.6-1.5-1.7-4.5-3.4
	c-0.5,1-1.1,1.8-1.9,2.6c-1.1,1.2-2.3,2.3-3.5,3.3c-2.2-1.7-3.9-3.8-5.2-6.2h19.2c0.4,0,0.6-0.2,0.6-0.5s-0.4-0.8-1.3-1.6
	c-1.7-1.4-2.7-2.2-3-2.2c-0.4,0-1.4,1-3.1,3.1h-5.1v-7.4h9.4c0.4,0,0.6-0.2,0.6-0.5s-0.4-0.8-1.3-1.5c-1.7-1.4-2.7-2.1-3-2.1
	c-0.4,0-1.4,1-2.9,3h-2.8v-2.8c0.9-0.5,1.4-0.9,1.4-1.3c0-0.6-2-1.1-6.1-1.5c0.2,1.7,0.2,2.9,0.2,3.6v1.9H575v-2.8
	c1-0.4,1.5-0.9,1.5-1.3c0-0.6-2-1.1-6.1-1.5c0.1,1.4,0.2,2.6,0.2,3.7v2h-3.1c-1.2,0-2.5-0.1-3.7-0.4l0.5,1.8c1-0.2,2.1-0.3,3.1-0.3
	h3.1v7.4h-8.3c0.7-5.1,1.1-10.3,1.1-15.5h27.8c0,0.5,0.1,0.9,0.4,1.3c0.4,0.3,1,0.5,1.5,0.4c1.9,0,2.9-0.5,2.9-1.5l-0.1-5.6v-1
	c0.9-0.6,1.4-1.1,1.4-1.6c0-0.3-0.4-0.8-1.1-1.5c-1.5-1.2-2.4-1.8-2.7-1.8s-1.2,0.8-2.5,2.4h-26.8c-1.8-1.1-3.7-2-5.7-2.8
	c0.2,2.3,0.2,5.4,0.2,9.2c0,8.1-0.2,14.3-0.6,18.6c-0.4,5.6-1.7,11.2-3.9,16.4c0,0,0,0,0,0.1c0,0.2,0.1,0.4,0.3,0.4c0,0,0.1,0,0.1,0
	c0,0,0.1,0,0.1,0c1.7-2.1,3.2-4.3,4.4-6.7c1.5-3.1,2.5-6.3,3-9.7h5.9v11.1c-1.6,0.1-3,0.1-4.4,0.1c-0.6,0-1.2,0-1.8-0.1
	c0.7,3,1.1,4.8,1.3,5.3c0.2,0.6,0.4,1,0.7,1c0.6,0,1.1-0.6,1.3-1.7c3.9-0.9,6.9-1.8,9.1-2.5c2.7-0.9,5.4-2,8-3.3
	c0.1,0,0.1-0.1,0.1-0.2c0-0.3-0.1-0.5-0.3-0.4c-3.4,0.7-6.6,1.2-9.8,1.5v-10.8h5.2c1.7,4.1,4.2,7.8,7.3,10.9
	c2.6,2.4,5.7,4.1,9.1,5.2c0.6,0.2,1.3,0.3,2,0.4c0.6,0,0.9-0.5,1.1-1.6c0.1-0.7,0.4-1.4,0.8-1.9c0.5-0.5,1.2-0.9,2-1.1
	c0.1,0,0.2-0.2,0.2-0.3C600,167.8,599.9,167.8,599.8,167.8z M563.5,134.2V132h27.7v6.6h-27.8C563.5,137.7,563.5,136.2,563.5,134.2z
	 M575,155.3v-7.4h6.8v7.4H575z M541.4,19.1c-2.1-0.1-4.2-0.6-6.1-1.6c-0.1-0.1-0.2-0.1-0.3-0.2c0.9-0.3,1.8-0.7,2.7-1.1
	c0.1,0,0.3,0,0.4,0c0.7,0,0.8-0.3,0.8-0.5s-0.2-0.6-1.9-1.6h3.6c0.4,0,0.5-0.2,0.5-0.4c0-0.2-0.1-0.4-0.7-0.9
	c-1.2-1-1.4-1.1-1.6-1.1c-0.2,0-0.5,0.1-1.6,1.5h-2.1V10h4.2c0.4,0,0.5-0.2,0.5-0.4c0-0.2-0.2-0.5-0.7-0.9c-1.2-1-1.4-1-1.6-1
	c-0.2,0-0.5,0.1-1.5,1.4h-1v-1c0.4-0.3,0.6-0.5,0.6-0.7c0-0.4-0.5-0.7-3.1-0.9c-0.1,0-0.1,0-0.2,0.1c0,0-0.1,0.1-0.1,0.2
	c0.1,0.8,0.1,1.4,0.1,1.7v0.7h-2.8v-1c0.3-0.2,0.7-0.4,0.7-0.7c0-0.4-0.5-0.7-3.1-0.9c-0.1,0-0.1,0-0.2,0.1c0,0-0.1,0.1-0.1,0.2
	c0.1,0.7,0.1,1.2,0.1,1.7v0.7H526c-0.6,0-1.1-0.1-1.7-0.2c0,0-0.1,0-0.1,0c0-0.8,0.1-1.7,0.1-2.7h12.8c0,0.2,0.1,0.4,0.2,0.6
	c0.2,0.2,0.6,0.3,0.9,0.3c1.3,0,1.6-0.5,1.6-0.9l0-2.7V3.1c0.4-0.3,0.7-0.6,0.7-0.9c0-0.2-0.2-0.5-0.6-0.9c-1-0.8-1.3-0.9-1.4-0.9
	s-0.4,0.1-1.3,1.1h-12.6c-0.9-0.5-1.8-0.9-2.7-1.3c-0.1,0-0.1,0-0.2,0c-0.1,0-0.1,0.1-0.1,0.2c0.1,1.1,0.1,2.6,0.1,4.3
	c0,3.8-0.1,6.8-0.3,8.8c-0.2,2.7-0.8,5.3-1.8,7.7c0,0,0,0.1,0,0.1c0,0.2,0.1,0.4,0.3,0.4c0,0,0,0,0.1,0c0.1,0,0.2,0,0.2-0.1
	c0.8-1,1.5-2.1,2.1-3.2c0.7-1.4,1.2-2.9,1.4-4.5h2.4V19c-0.9,0.1-1.8,0.1-2.7,0c-0.1,0-0.1,0-0.2,0.1c0,0.1-0.1,0.1,0,0.2
	c0.4,1.5,0.5,2.3,0.6,2.5c0,0.2,0.2,0.6,0.6,0.6c0.4,0,0.7-0.3,0.8-0.9c1.8-0.4,3.2-0.8,4.2-1.2c1.3-0.4,2.6-1,3.8-1.6
	c0.1-0.1,0.2-0.2,0.2-0.3c0,0,0-0.1,0-0.1c0.3,0.3,0.5,0.6,0.8,0.8c1.3,1.1,2.8,2,4.4,2.5c0.3,0.1,0.7,0.2,1,0.2
	c0.4,0,0.6-0.3,0.7-0.9c0.1-0.3,0.2-0.6,0.4-0.8c0.2-0.2,0.5-0.4,0.8-0.4c0.2,0,0.3-0.2,0.2-0.3C541.7,19.3,541.6,19.1,541.4,19.1
	C541.4,19.1,541.4,19.1,541.4,19.1z M524.3,3.3V2.5h12.8v2.7h-12.8C524.3,4.8,524.3,4.2,524.3,3.3L524.3,3.3z M527.3,13.2h-3.5
	c0.2-1,0.3-2.2,0.4-3.6l0.1,0.5c0,0.1,0.1,0.2,0.2,0.1c0.5-0.1,1-0.1,1.5-0.1h1.3L527.3,13.2z M529.8,10h2.8v3.1h-2.8V10z
	 M532.9,18.1c-1.5,0.3-3,0.5-4.4,0.7v-4.7h2.1c0.6,1.4,1.4,2.8,2.4,4C533,18.1,533,18.1,532.9,18.1L532.9,18.1z M533.9,16.6
	c-0.8-0.7-1.6-1.5-2.1-2.5h4.4c-0.2,0.4-0.5,0.7-0.8,1C535,15.7,534.5,16.1,533.9,16.6L533.9,16.6z M464.2,157
	c0-0.3-0.2-0.5-0.4-0.5c0,0-0.1,0-0.1,0c-1.3,0.7-2.7,1.3-4.2,1.9V149h4.6c0.6,0,0.7-0.4,0.7-0.5c0-0.2-0.1-0.5-0.9-1.2
	c-1.4-1.3-1.9-1.5-2.1-1.5c-0.3,0-0.7,0.2-2,2h-0.3v-8.1c0.9-0.4,1.3-0.7,1.3-1.1c0-0.4-0.6-0.9-5.1-1.3l-0.2,0l0,0.2
	c0.1,1.5,0.2,3,0.2,4.5v5.9h-1.9c-0.7,0-1.4-0.1-2.1-0.3l-0.3-0.1l0.5,1.8l0.1,0c0.6-0.1,1.2-0.2,1.8-0.2h1.8v10.9
	c-0.8,0.2-1.3,0.4-1.7,0.5c-0.9,0.3-1.9,0.5-2.9,0.7l-0.2,0l0.1,0.2c0.4,0.7,0.8,1.7,1.4,3c0.1,0.3,0.3,0.6,0.3,0.7
	c0.4,0.8,0.7,1.2,1,1.2c0.6,0,0.9-0.6,0.9-1.8c3.4-2,6.6-4.4,9.5-7.2C464.2,157.2,464.2,157.1,464.2,157L464.2,157z M442.8,155.7
	c-1.8-1.5-4.1-2.3-6.5-2.2c-2.3,0-4.5,0.8-6.3,2.2c0.4-0.5,0.9-1,1.4-1.5c1.2-1.3,2-2.2,2.5-2.8c1.5-1.8,3.2-3.6,4.9-5.2
	c0.4-0.3,0.9-0.6,1.4-0.9c0.4-0.2,0.7-0.6,0.7-1.1c0-0.6-0.3-1.1-0.7-1.4c-0.9-0.9-2.1-1.4-3.3-1.5c-0.4,0-0.8,0.2-1.1,0.5
	c-0.5,0.4-1,0.7-1.7,0.9c-2,0.7-4,1.2-6.1,1.4c-0.4,0-0.9-0.3-1.4-1c-0.4-0.6-0.6-0.7-0.8-0.7c-0.2,0-0.4,0.3-0.5,0.5
	c-0.1,0.3-0.2,0.7-0.2,1c0.1,1.1,0.7,2.1,1.4,2.8c0.6,0.9,1.9,1.2,2.9,0.6c0.2-0.1,0.3-0.2,0.4-0.4c0.8-0.4,1.5-0.8,2-1
	c1.2-0.6,2.5-1.1,3.8-1.5c0,0,0.1,0,0.1,0c0.1,0,0.1,0,0.1,0.1c0,0,0,0.1-0.4,0.6c-2,2.6-3.8,5-5.6,7.1c-1.6,1.9-3.9,4.5-6.9,7.6
	c-0.5,0.5-0.7,1.1-0.7,1.7c0,0.6,0.2,1.1,0.7,1.4c0.3,0.3,0.7,0.5,1.1,0.5c0.6,0,1.2-0.5,1.9-1.5c1.1-1.7,2.5-3.2,4.1-4.5
	c1.6-1.3,3.6-2,5.7-2c1.4-0.1,2.9,0.4,4,1.3c1.1,1.1,1.8,2.6,1.7,4.2c0.1,1.5-0.4,3-1.3,4.3c-0.6,0.8-1.4,1.3-2.3,1.7
	c-0.4-1.1-1-2.1-1.8-2.9c-1.1-1.2-2.6-1.9-4.2-1.9c-1.1,0-2.2,0.3-3.1,0.9c-0.9,0.6-1.4,1.6-1.3,2.7c0,1.4,0.7,2.7,1.9,3.5
	c1.6,0.8,3.3,1.2,5.1,1.1c2.6,0.1,5.1-0.7,7.2-2.2c2.4-1.6,3.8-4.3,3.7-7.2c0-1-0.2-1.9-0.6-2.8
	C444.2,157.2,443.5,156.4,442.8,155.7L442.8,155.7z M433.3,167.9c-1.1,0.1-2.3-0.2-3.3-0.7c-0.6-0.3-1-1-1-1.7c0-0.4,0.1-0.7,0.3-1
	c0.4-0.4,1-0.6,1.5-0.6c0.8,0.1,1.6,0.4,2.2,1c0.8,0.8,1.3,1.8,1.6,2.9C434.2,167.8,433.8,167.9,433.3,167.9L433.3,167.9z
	 M490.4,19.8c-1.2-1-1.5-1.1-1.6-1.1c-0.2,0-0.5,0.1-1.7,1.5h-5.2v-6.1h5.7c0.4,0,0.5-0.2,0.5-0.4c0-0.2-0.1-0.4-0.7-0.9
	c-1.1-1-1.4-1.1-1.5-1.1c-0.2,0-0.5,0.1-1.5,1.5h-2.5V8.7c0.5-0.3,0.8-0.5,0.8-0.8c0-0.3-0.3-0.7-3.4-1c-0.1,0-0.2,0.1-0.2,0.2
	c0,0,0,0,0,0.1c0.1,0.8,0.2,1.6,0.2,2.4v10.7h-2.9v-7.8c0.5-0.2,0.7-0.5,0.7-0.8c0-0.4-0.5-0.7-3.2-1c-0.1,0-0.1,0-0.2,0.1
	c0,0-0.1,0.1-0.1,0.2c0.1,0.8,0.1,1.5,0.1,2.3v7h-2.3c-0.6,0-1.2-0.1-1.7-0.2c-0.1,0-0.2,0.1-0.3,0.2c0,0,0,0.1,0,0.1l0.3,0.9
	c0,0.1,0.1,0.2,0.2,0.2h0c0.5-0.1,1-0.1,1.5-0.1h19.1c0.4,0,0.5-0.2,0.5-0.4C491.1,20.6,491,20.4,490.4,19.8L490.4,19.8z
	 M463.4,86.8c0-0.3-0.6-1-1.7-1.9c-2.3-1.9-3.6-2.8-4-2.8c-0.4,0-1.8,1.4-4,4.1h-32.1c-1.9,0-3.7-0.1-5.5-0.4l0.6,1.9
	c2.1-0.2,3.8-0.3,5.2-0.3h41C463.2,87.3,463.4,87.2,463.4,86.8L463.4,86.8z M416.1,141.9c-2.2-1.8-2.8-2-3-2s-0.6,0.2-2.1,1.7h-9.6
	v-2.5c0.8-0.2,1.2-0.6,1.2-1c0-0.5-0.6-1-5.2-1.4l-0.2,0l0,0.2c0.1,1.2,0.1,1.9,0.1,2.2v2.6h-10c-0.1-0.7-0.2-1.2-0.3-1.6
	c0-0.2-0.2-0.3-0.3-0.3c-0.3,0-0.4,0.2-0.4,0.3c0.1,1.7-0.9,3.2-2.4,3.8c-0.9,0.3-1.5,1.2-1.6,2.1c0,0.5,0.2,1.1,0.5,1.5
	c0.4,0.4,0.9,0.7,1.5,0.7c0.9,0,1.7-0.4,2.2-1.2c0.7-1.1,1-2.4,0.9-3.7v-0.4h23.9c-0.1,0.8-0.3,1.6-0.6,2.4c0,0.1,0,0.1,0,0.2
	c0,0.2,0.1,0.3,0.3,0.3c0,0,0.1,0,0.1,0c-0.5,0.5-1,1-1.5,1.5h-12.7c-0.8,0-1.6-0.1-2.4-0.3c0.1-0.1,0.1-0.3,0.1-0.4
	c0-0.3-0.2-0.6-0.7-0.8c-0.5-0.3-1.9-0.8-4.1-1.6l-0.2-0.1l0,0.2c-0.2,1.4-0.6,2.8-1.1,4.1c-0.7,1.9-1.6,3.7-2.6,5.4
	c-1.1,1.9-2.5,3.7-4.1,5.3c-0.1,0.1-0.1,0.1-0.1,0.2c0,0.2,0.2,0.5,0.4,0.5c0,0,0.1,0,0.1,0c0,0,0.1,0,0.2,0c1.6-1,3.1-2.2,4.5-3.5
	v4.6c0,3.6-0.1,6.9-0.3,10.1c0,0.4,0.1,0.9,0.4,1.2c0.4,0.3,0.9,0.5,1.5,0.4c1.7,0,2.1-1,2.1-1.8v-15.4c0.7-0.3,1.1-0.7,1.1-1
	c0-0.3-0.2-0.5-0.4-0.6c-0.6-0.2-1.1-0.3-1.7-0.4c1.4-1.8,2.5-3.7,3.5-5.8c0.4-0.1,0.8-0.2,1.2-0.3c0,0,0.1,0,0.1-0.1l0.5,1.5l0.1,0
	c0.7-0.1,1.3-0.2,2-0.2h5.4c-0.1,1.6-0.2,3.3-0.5,4.9h-2.5c-1.3-0.7-2.6-1.3-3.9-1.9l-0.2-0.1l0,0.3c0.1,1.9,0.2,4.2,0.2,6.8
	c0,3-0.1,7.1-0.2,12.4c0,0.6,0.3,1.3,1.7,1.3c0.5,0,1.1-0.1,1.6-0.3c0.4-0.3,0.7-0.8,0.6-1.4v-0.7h10.5v0.6
	c-0.1,0.8,0.4,1.5,1.2,1.7c0.2,0,0.4,0,0.6,0c1.9,0,2.2-1,2.2-1.8c-0.1-4.3-0.2-8.5-0.2-12.3v-2.4c0.7-0.5,1.1-0.9,1.1-1.3
	c0-0.3-0.3-0.7-0.9-1.2c-1.5-1.3-2-1.4-2.2-1.4s-0.6,0.2-2.1,1.7h-5.6c1.2-1.5,2.3-3.1,3.2-4.9h7.8c0.6,0,0.7-0.4,0.7-0.5
	c0-0.3-0.3-0.7-1-1.2c-0.6-0.5-1.2-1-1.9-1.4c0.4-0.2,0.9-0.4,1.3-0.5c0.5-0.2,0.7-0.3,0.7-0.3c0.4-0.1,0.8-0.1,1.3-0.1
	c1.2,0,1.8-0.3,1.8-0.9C417.4,143.2,417.3,142.9,416.1,141.9z M409.5,168.6H399v-7h10.5V168.6z M409.5,154.5v5.9H399v-5.9H409.5z
	 M485.9,152.6c-1.8-1.5-2.2-1.6-2.4-1.6c-0.3,0-0.8,0.3-2.5,2.3h-15.4c-1.1,0-2.2-0.1-3.3-0.3l-0.3,0l0.5,1.8l0.1,0
	c1-0.1,2-0.2,3-0.2h1.8c-0.3,0.7-0.7,1.4-1.1,2.1c-2,2.8-4.5,5.2-7.4,7.1c-0.1,0.1-0.1,0.1-0.1,0.2c0,0.2,0.1,0.5,0.4,0.5
	c0,0,0.1,0,0.1,0c0,0,0.1,0,0.1,0c3.3-1.1,6.3-2.9,8.8-5.2h1.7c-2.3,3.7-5.5,6.8-9.4,8.9c-0.1,0-0.2,0.1-0.2,0.2
	c0,0.1,0.1,0.2,0.1,0.3c0.1,0.1,0.2,0.2,0.4,0.1c2.6-0.7,5.1-1.8,7.3-3.4c2.4-1.6,4.5-3.7,6-6.2h1.7c-1.2,2.4-2.7,4.5-4.6,6.4
	c-2.2,2.3-4.8,4.3-7.7,5.8c-0.1,0.1-0.1,0.1-0.1,0.2c0,0.1,0.1,0.2,0.1,0.3c0.1,0.1,0.2,0.2,0.4,0.2c7.7-2.2,13-6.5,15.9-12.9h1.2
	c-0.1,2.1-0.3,4.2-0.7,6.3c-0.1,0.7-0.3,1.4-0.6,2.1c-0.2,0.4-0.6,0.6-1,0.6c-0.9,0-2.5-0.1-4.4-0.3c-0.1,0-0.2,0-0.2,0
	c-0.1,0.1-0.1,0.2-0.1,0.3c0,0.2,0.1,0.4,0.2,0.5c0.9,0.3,1.7,0.6,2.5,1.1c0.5,0.3,0.8,0.7,0.9,1.3c0.1,0.3,0.2,0.6,0.3,0.9
	c0.2,0.2,0.4,0.3,0.7,0.3c0.9,0,1.9-0.2,2.7-0.6c0.9-0.5,1.5-1.3,1.9-2.3c0.7-1.6,1.2-4.7,1.5-9.2c1-0.8,1.1-1.1,1.1-1.3
	c0-0.3-0.3-0.7-0.9-1.2c-1.5-1.2-1.9-1.3-2.1-1.3c-0.2,0-0.6,0.2-1.9,1.6h-11.6c0.5-0.6,1-1.1,1.4-1.6c0.9,0,1.3-0.3,1.3-0.8
	c0-0.2-0.2-0.6-1.6-1h15.6c0.6,0,0.7-0.4,0.7-0.6C486.9,153.8,486.8,153.4,485.9,152.6L485.9,152.6z M240.7,149.5
	c-2-0.4-4-0.6-6-0.8c0,0.5,0.1,1,0.1,1.6c0.1,4.1-1,8.1-3.2,11.6c-2.4,3.9-6.4,7.3-11.9,10.4c-0.1,0-0.1,0.1-0.1,0.2
	c0,0.4,0.1,0.6,0.4,0.6c5.7-1.4,10.1-3.7,13.4-6.8c3.7-3.6,5.9-8.4,6.7-14.4c1.1-0.5,1.6-0.9,1.6-1.4
	C241.8,150,241.4,149.7,240.7,149.5L240.7,149.5z M148.9,56.5c0,0-0.1,0.1-0.1,0.1c-0.2,1.3-0.5,2.7-0.9,3.9
	c-0.8,2.4-1.9,4.6-3.4,6.6c0,0,0,0.1,0,0.1c0,0.2,0.1,0.4,0.3,0.4c0,0,0,0,0.1,0c0.1,0,0.1,0,0.2-0.1c2.1-1.5,4-3.5,5.4-5.7h11.7
	c-0.1,8.6-0.4,14.6-1,17.8c-0.1,0.8-0.3,1.5-0.6,2.2c-0.1,0.2-0.5,0.4-1.6,0.4c-0.7,0-2.1-0.1-4.1-0.2c-0.1,0-0.3,0.1-0.3,0.4
	c0,0.3,0.1,0.3,0.2,0.4c1,0.2,1.9,0.6,2.8,1c0.5,0.4,0.9,1,0.9,1.6c0,0.2,0.1,0.5,0.2,0.6c0.1,0.1,0.3,0.2,0.6,0.2
	c2,0,3.8-1.3,4.5-3.2c0.6-2,1-4.1,1.1-6.2c0.3-3.1,0.5-8,0.6-14.3c0.7-0.4,1-0.7,1-1c0-0.3-0.3-0.6-0.8-1.1
	c-1.4-1.1-1.8-1.2-1.9-1.2c-0.2,0-0.6,0.2-1.9,1.6H151c0.4-0.6,0.7-1.2,0.9-1.8c0.4-0.1,1.4-0.2,1.4-0.9c0-0.3-0.3-0.5-0.9-0.7
	c-1.1-0.4-2.3-0.7-3.5-1C149,56.4,149,56.5,148.9,56.5L148.9,56.5z M153.8,15.8c0.1,0,0.1,0,0.6-0.3c2.9-1.6,5.6-3.5,7.9-5.9
	c0.1,0.4,0.1,0.7,0.1,1.1l0,5.4c0,0.7-0.1,1.4-0.2,2.1c-0.1,0.2-0.1,0.4-0.1,0.6c0,0.6,0.2,1.2,0.5,1.6c0.3,0.4,0.7,0.6,1.2,0.6
	c0.3,0,0.5-0.1,0.7-0.3c0.3-0.3,0.4-0.6,0.4-1l0-5.3v-3.4c0-0.8,0-0.7,0-0.7c0.1-0.2,0.1-0.4,0.1-0.6c0-0.4-0.4-0.9-1.4-1.6
	c0.4-0.5,1.5-1.6,3.1-3.4c0.1-0.1,0.2-0.2,0.4-0.3c0.8-0.3,0.9-0.7,0.9-1c0-0.5-0.4-1-1.1-1.5c-0.4-0.3-0.8-0.5-1.3-0.7
	c-0.6-0.4-1.4-0.4-2.1-0.1c-0.1,0.1-0.4,0.2-0.4,0.5c0,0.2,0.1,0.3,0.5,0.5c0.6,0.4,0.7,0.6,0.7,0.6c-0.1,0.3-0.2,0.6-0.3,0.9
	c-0.8,1.3-1.7,2.5-2.8,3.7c-2.2,2.6-4.7,5-7.4,7.1c-0.4,0.3-0.5,0.4-0.5,0.6C153.2,15.5,153.4,15.8,153.8,15.8
	C153.7,15.8,153.7,15.8,153.8,15.8z M148,82.2c1.5,0,1.8-0.8,1.8-1.4v-1.3h7v0.5c-0.1,0.6,0.2,1.1,0.8,1.2c0.2,0,0.3,0,0.5,0
	c1.5,0,1.8-0.7,1.8-1.3l0-3.8v-0.6c0.5-0.3,0.8-0.6,0.8-0.9s-0.2-0.5-0.7-0.6c-1-0.2-2-0.3-3-0.4c-0.1,0-0.2,0.1-0.2,0.2
	c0,0,0,0,0,0c0.1,0.7,0.1,1.4,0.1,2.1v2.6h-2V72h6c0.5,0,0.6-0.3,0.6-0.5c0-0.3-0.2-0.6-0.8-1c-1.2-1.1-1.6-1.2-1.8-1.2
	c-0.2,0-0.6,0.2-1.8,1.7h-2.2v-3.6h5.1c0.5,0,0.6-0.3,0.6-0.5c0-0.3-0.2-0.6-0.8-1c-1.2-1-1.6-1.1-1.8-1.1c-0.2,0-0.6,0.2-1.7,1.6
	h-4.5c0.4-0.5,0.7-0.9,0.8-1.2c0.3-0.1,1.1-0.2,1.1-0.8c0-0.3-0.2-0.5-0.7-0.7c-1-0.3-2-0.6-3-0.8c0,0-0.1,0-0.1,0
	c0,0-0.1,0.1-0.1,0.1c0,1-0.3,1.9-0.7,2.8c-0.5,1.5-1.4,2.9-2.4,4.2c0,0-0.1,0.1-0.1,0.2c0,0.1,0,0.4,0.4,0.4c0,0,0.1,0,0.1,0
	c1.4-0.8,2.7-1.8,3.8-3.1h0.9V71h-3.2c-0.9,0-1.8-0.1-2.6-0.2c-0.1,0-0.1,0-0.1,0.1c0,0-0.1,0.1,0,0.2l0.4,1.2
	c0,0.1,0.1,0.1,0.2,0.1c0.7-0.1,1.5-0.2,2.3-0.2h3.2v6.4h-2v-2.9c0.5-0.3,0.8-0.6,0.8-0.9c0-0.3-0.2-0.5-0.7-0.6c-1-0.2-2-0.3-3-0.4
	c0,0-0.1,0-0.1,0c0,0,0,0.1,0,0.1c0.1,0.9,0.1,1.9,0.1,2.8l-0.1,4.5C146.8,81.6,147,82.2,148,82.2L148,82.2z M111.2,5.2
	c0.3,0.1,0.7,0.2,1,0.1c0.2,0,0.6,0,1.2-0.1c0.6-0.1,1.7-0.1,3.5-0.3c0.8-0.1,1.4-0.1,1.7-0.1c0.1,0,0.7,0,1.8-0.1
	c0.5,0.1,1-0.3,1.1-0.9c0-0.1,0-0.1,0-0.2c0-0.4-0.2-0.7-0.5-0.9c-0.6-0.3-1.4-0.5-2.1-0.5c-0.3,0-0.7,0.1-1,0.3
	c-0.2,0.1-0.4,0.2-0.7,0.2c-0.6,0.1-1.5,0.3-2.7,0.4c-0.8,0.1-1.7,0.2-2.5,0.2c-0.3,0-0.7,0-1-0.2c-0.3-0.1-0.5-0.3-0.8-0.5
	C110,2.4,110,2.4,110,2.4c-0.1,0-0.4,0.1-0.4,0.6c0,0.5,0.2,1,0.6,1.4C110.4,4.7,110.8,5,111.2,5.2L111.2,5.2z M0,157.3h1.1v-40.2
	h11.8v-1.1H0V157.3z M184.8,163.6c-0.2,0-0.3,0.1-0.3,0.3c0,0.2,0,0.3,0.1,0.3c3.6,1.9,6.7,4.6,9,7.9c0.9,1.3,1.9,2,2.9,2
	c0.7,0,1.3-0.3,1.8-0.7c0.6-0.6,1-1.4,0.9-2.2C199.3,167.1,194.5,164.6,184.8,163.6L184.8,163.6z M80.4,19c0.2,0,0.4-0.1,0.6-0.2
	c2-1,3.6-2.5,4.8-4.4c0.8-1.4,1.5-2.9,1.9-4.4c0.1-0.3,0.2-0.5,0.3-0.7c0.2-0.2,0.4-0.5,0.4-0.8c0-0.5-0.3-1-0.8-1.2
	c-0.8-0.5-1.7-0.9-2.6-0.9c-0.2,0-0.5,0.1-0.7,0.2C84.2,6.8,84,6.9,84,7.1s0.2,0.3,0.4,0.4c0.7,0.3,1,0.6,1,0.9
	c0,0.5-0.1,1.1-0.3,1.6c-0.4,1.4-0.9,2.7-1.6,4c-0.9,1.5-2,2.9-3.3,4c-0.2,0.2-0.3,0.3-0.3,0.5C80,18.8,80.2,19,80.4,19
	C80.4,19,80.4,19,80.4,19z M199.5,128.9c0.5,0,0.8-0.2,0.8-0.6c0-0.4-0.5-1-1.4-1.8c-1.9-1.6-3-2.4-3.4-2.4c-0.5,0-1.7,1.1-3.5,3.4
	h-6.6v-4.7c1.2-0.4,1.8-0.9,1.8-1.5c0-0.7-2.4-1.3-7.2-1.7c0.2,1.7,0.2,3.5,0.2,5.1v2.8h-7.7c-1.6,0-3.2-0.2-4.8-0.5l0.7,2.2
	c1.4-0.2,2.9-0.3,4.3-0.3h7.5v5.4h-3.7c-2.1-1-4-1.9-5.6-2.6c0.1,2.9,0.2,5.7,0.2,8.5l-0.2,16.3c0,1,0.7,1.5,2.1,1.5c2,0,3-0.7,3-2
	v-0.8h14.1v0.3c0,1.2,0.7,1.7,2,1.8c2.2,0,3.4-0.7,3.4-2.1l-0.2-15.2v-3c1-0.7,1.4-1.3,1.4-1.7s-0.4-1-1.2-1.6
	c-1.5-1.2-2.5-1.8-2.9-1.8c-0.4,0-1.4,0.8-2.8,2.5h-4.5v-5.4L199.5,128.9z M190.2,153.9h-14.1v-5.5h14.1V153.9z M190.2,147.1h-14.1
	V142h14.1V147.1z M190.2,135.7v5h-14.1v-5H190.2z M167.7,151.8c-1.5-0.7-3-1.3-4.6-1.8c-0.2,2.1-0.5,3.6-0.7,4.7
	c-0.5,2.7-1.2,5.3-2.1,7.9c0,0,0,0,0,0.1c0,0.3,0.2,0.4,0.5,0.4c0.1,0,0.2,0,0.2-0.1c2.3-2.8,4.3-5.8,5.9-9.1c1.1-0.1,1.7-0.5,1.7-1
	C168.6,152.5,168.3,152.2,167.7,151.8L167.7,151.8z M169.6,73.4c-0.1,0-0.1,0-0.1,0.1c0,0-0.1,0.1,0,0.2l0.4,1.2
	c0,0.1,0.1,0.1,0.2,0.1c0.7-0.1,1.4-0.2,2.1-0.2h6.7c-0.4,2.5-1.2,5-2.3,7.3h-0.4c-1.5,0-3.1-0.1-4.9-0.2c-0.1,0-0.2,0.1-0.2,0.2
	c0,0,0,0,0,0c0.2,1.1,0.4,2.3,0.7,3.4c0.2,0.8,0.5,1.1,0.9,1.1c0.3,0,0.6-0.3,0.9-1.1c6-0.5,11.9-1.5,17.7-2.9l0,0.1
	c0.3,0.9,0.7,1.7,1.2,2.5c0.3,0.5,0.8,0.7,1.4,0.7c0.5,0,1-0.2,1.3-0.6c0.4-0.5,0.6-1.1,0.5-1.7c-0.1-1.3-0.8-2.6-1.9-3.4
	c-1.9-1.5-4-2.7-6.4-3.4c-0.2-0.1-0.5,0-0.5,0.3c0,0.1,0,0.2,0.1,0.2c1.4,1.1,2.6,2.5,3.5,4.1c-3.4,0.3-7.6,0.4-12.4,0.5
	c2-2.2,3.7-4.7,5-7.3h14.9c0.5,0,0.6-0.3,0.6-0.5c0-0.2-0.1-0.5-1-1.2c-1.7-1.4-2.1-1.6-2.3-1.6c-0.1,0-0.4,0-2.4,2.3h-20.8
	C171.3,73.6,170.4,73.6,169.6,73.4L169.6,73.4z M173.5,69.4c0.7-0.1,1.4-0.2,2.1-0.2h19c0.5,0,0.6-0.3,0.6-0.5c0-0.2-0.1-0.5-1-1.2
	c-1.7-1.3-2.1-1.5-2.3-1.5c-0.2,0-0.7,0.3-2.3,2.1h-13.9c-0.9,0-1.7-0.1-2.6-0.2c-0.1,0-0.1,0-0.1,0.1c0,0,0,0.1,0,0.2l0.4,1.2
	C173.4,69.4,173.4,69.4,173.5,69.4L173.5,69.4z M173.3,19.1c0.2,0,0.4-0.1,0.6-0.1c1.4-0.5,2.8-1.1,4-1.9c2.1-1.2,4-2.7,5.6-4.5
	c0.8,0.5,1.5,1.1,2.1,1.7c1,1.1,1.9,2.2,2.7,3.4c0.3,0.6,1,0.9,1.6,0.9c0.3,0,0.6-0.1,0.9-0.4c0.3-0.3,0.4-0.7,0.4-1.1
	c0-0.8-0.7-1.8-2-2.8c-0.7-0.6-1.5-1-2.3-1.4c-0.8-0.4-1.7-0.8-2.6-1.2c1.1-1.3,2.1-2.6,3-4c0.3-0.4,0.4-0.5,0.4-0.5
	c0.6-0.2,0.9-0.5,0.9-0.9c0-0.4-0.3-0.8-1.1-1.5c-1-0.8-1.7-0.8-2.2-0.4c-0.2,0.2-0.5,0.3-0.8,0.3c-1.9,0.3-3.6,0.5-5.1,0.7
	c-1.1,0.1-1.6,0.1-1.7,0.1c-0.2,0-0.5,0-0.7-0.1c-0.3-0.2-0.6-0.4-0.8-0.7c-0.2-0.3-0.3-0.4-0.5-0.4c-0.2,0-0.5,0.1-0.5,0.8
	c0,0.6,0.2,1.2,0.5,1.6c0.6,0.8,1.2,1.2,1.7,1.2c0.3,0,0.7-0.1,0.9-0.3c0.3-0.2,0.6-0.3,1-0.3c1.9-0.4,3.8-0.7,5.5-0.9l0,0
	c-1.4,2.2-2.9,4.3-4.7,6.1c-1.1,1.1-2.2,2.1-3.3,3c-1.2,1-2.5,1.8-3.9,2.5c-0.2,0.1-0.3,0.3-0.3,0.5C172.9,18.9,173,19.1,173.3,19.1
	C173.3,19.1,173.3,19.1,173.3,19.1L173.3,19.1z M169.9,62.3c0.7-0.1,1.4-0.2,2.1-0.2h5.6c0,0.6,0,1.2,0,1.8c0,0.7,0,1.1,0,1.1
	c0,0.5,0.3,1.2,1.5,1.2c1.3,0,1.9-0.4,1.9-1.3v-2.8h5.1c0,0.5,0,1.1,0,1.8c0,0.6,0,1,0,1.1c0,0.5,0.3,1.2,1.5,1.2c1.4,0,2-0.4,2-1.3
	c0-0.1,0-0.5,0-1c0-0.8,0-1.5,0-1.8h8.6c0.5,0,0.6-0.3,0.6-0.5c0-0.2-0.1-0.5-1-1.2c-1.7-1.5-2.2-1.7-2.4-1.7
	c-0.2,0-0.7,0.3-2.4,2.3h-3.4v-2.2c0.6-0.2,0.8-0.5,0.8-0.8c0-0.2-0.1-0.5-0.7-0.7c-0.3-0.1-1.5-0.3-3.5-0.5c0,0-0.1,0-0.1,0
	c0,0-0.1,0.1,0,0.1c0.1,0.9,0.1,1.8,0.1,2.6v1.4h-5.1v-2.1c0.7-0.3,1-0.6,1-0.9c0-0.3-0.2-0.5-0.7-0.6c-0.4-0.1-1.6-0.3-3.6-0.5
	c0,0-0.1,0-0.1,0c0,0-0.1,0.1,0,0.1c0.1,0.9,0.1,1.8,0.1,2.6v1.5h-5.6c-0.9,0-1.7-0.1-2.6-0.3c-0.1,0-0.1,0-0.1,0.1c0,0,0,0.1,0,0.2
	l0.4,1.2C169.8,62.3,169.8,62.3,169.9,62.3L169.9,62.3z M146.1,75c0-1.3-0.3-2.6-0.8-3.7c-0.8-1.5-1.9-2.8-3.2-3.9
	c1.6-2.2,3-4.5,4.2-7c0.2,0,0.5-0.1,0.7-0.2c0.2-0.1,0.3-0.3,0.3-0.5c0-0.3-0.2-0.6-0.8-1.1c-1.3-1.2-1.6-1.4-1.8-1.4
	s-0.5,0.1-1.5,1.3h-2.8c-1-0.5-2.1-1-3.3-1.5c-0.1,0-0.1,0-0.2,0c0,0-0.1,0.1-0.1,0.1c0.1,2.1,0.2,6.1,0.2,12L137,85.3
	c0,0.6,0.2,1.2,1.3,1.2c1.6,0,2-0.8,2-1.5l0-4.6v-3.7c0.4,0.1,0.7,0.3,1,0.6c0.3,0.4,0.4,0.8,0.5,1.3c0,0.4,0.3,0.8,0.7,0.9
	c0,0,0.1,0,0.1,0c0.9,0,1.7-0.3,2.4-0.9C145.8,77.5,146.2,76.3,146.1,75z M142.7,75.9c-0.2,0.1-0.4,0.1-0.5,0.1
	c-0.6,0-1.3,0-1.9-0.1V59.5h2.7c-0.4,2.7-1.1,5.4-2.1,7.9c0,0.1,0,0.1,0,0.2c0.6,0.8,1.2,1.7,1.6,2.7c0.4,1.1,0.6,2.2,0.5,3.3
	C143.1,75.3,142.9,75.8,142.7,75.9L142.7,75.9z M167.6,163.8c0-0.4-0.1-0.6-0.4-0.5c-2.3,0.5-4.9,1-7.9,1.5v-17.8h7.9
	c0.5,0,0.8-0.2,0.8-0.6c0-0.4-0.4-0.9-1.3-1.6c-1.6-1.4-2.6-2-3-2c-0.5,0-1.5,1-3,2.9h-1.4v-8.3h6.2c0.5,0,0.8-0.2,0.8-0.6
	s-0.4-0.9-1.1-1.5c-1.5-1.3-2.5-1.9-2.9-1.9c-0.5,0-1.4,0.9-2.7,2.6h-6.7c-0.9,0-1.8-0.1-2.7-0.4c3.6-3.1,6.7-6.7,9.1-10.8
	c1.7,1.6,3.1,3.6,3.9,5.8c0.3,0.7,0.6,1.4,1.1,2.1c0.4,0.4,0.9,0.6,1.5,0.6c0.6,0,1.1-0.2,1.5-0.6c0.5-0.5,0.7-1.2,0.7-1.8
	c-0.1-1.4-0.8-2.8-1.9-3.6c-1.9-1.5-4.1-2.6-6.4-3.1l0.4-0.6c1.5-0.1,2.2-0.5,2.2-1.1c0-0.8-2.3-1.8-6.9-3.1
	c-0.5,2.1-1.2,4.2-2.2,6.2c-2.3,4.9-5.4,9.3-9.1,13.2c0,0-0.1,0.1-0.1,0.1c0,0.3,0.1,0.5,0.4,0.5c0,0,0.1,0,0.1,0
	c1.8-1,3.6-2.2,5.2-3.5l0.6,1.8c0.8-0.2,1.7-0.3,2.6-0.3h1.4v8.2h-4.9c-1.2,0-2.5-0.2-3.7-0.5l0.7,2.2c1.1-0.2,2.2-0.3,3.3-0.3h4.7
	v18.5c-0.3,0-1.6,0.2-3.7,0.4c-2,0.2-3.5,0.3-4.7,0.3h-0.7c1,3,1.6,4.9,1.9,5.6c0.4,0.9,0.8,1.4,1.2,1.4c0.5,0,0.9-0.7,1.3-2.2
	c6.2-1.6,12.1-3.9,17.7-6.9C167.5,164,167.6,163.9,167.6,163.8z M139.5,14.9c0.5,0.7,1,1.5,1.4,2.3c0.4,0.8,0.9,1.2,1.4,1.2
	c0.4,0,0.8-0.1,1.1-0.4c0.3-0.3,0.5-0.8,0.4-1.2c-0.2-1.1-0.8-2-1.6-2.7c1.9-1.2,3.8-2.6,5.6-4c0.3-0.3,0.7-0.5,1.1-0.6
	c0.9-0.1,1.1-0.6,1.1-0.9c0-0.5-0.5-1.2-1.4-2.1c-0.4-0.4-0.9-0.6-1.5-0.7c-0.3,0-0.6,0.2-0.9,0.4c-0.2,0.1-0.4,0.2-0.7,0.2
	c-0.4,0-4.4,0.4-10.3,1c-0.8,0.1-1.5,0.1-1.9,0.1c-0.4,0-0.8-0.1-1.2-0.3c-0.3-0.2-0.5-0.4-0.7-0.6c-0.2-0.2-0.4-0.3-0.5-0.3
	c-0.3,0-0.4,0.3-0.4,0.4c-0.1,0.2-0.1,0.5-0.1,0.7c0.1,0.7,0.4,1.3,0.9,1.8c0.4,0.6,1,1,1.8,1.1c0.3,0,0.6-0.1,0.8-0.3
	c0.5-0.3,1-0.4,1.5-0.5c3.6-0.6,6.8-1,9.4-1.3c0.5,0,0.8-0.1,1.1-0.1l0,0c-1.4,1.8-3,3.5-4.6,5c-1-0.7-2.1-1.3-3.2-1.7
	c-0.4-0.2-0.7-0.3-1.1-0.3c-0.4,0-0.5,0.2-0.5,0.4c0,0.2,0.1,0.4,0.3,0.5C137.7,12.9,138.7,13.9,139.5,14.9z M148,159.7
	c0,1.9,0.6,2.8,1.9,2.8c0.7,0,1.3-0.3,1.8-0.8c0.6-0.7,0.9-1.6,0.8-2.5c0-1.3-0.3-2.6-1-3.7c-1.2-1.8-2.6-3.4-4.2-4.8
	c-0.1,0-0.1-0.1-0.2-0.1c-0.2,0-0.3,0.1-0.3,0.3c0,0,0,0.1,0,0.1c0.4,1.1,0.7,2.2,0.9,3.4C148,156.2,148.1,157.9,148,159.7
	L148,159.7z M38.9,144v-0.3c6.6-1.5,9.9-5,9.9-10.3c0.1-2.8-1-5.5-3-7.4c-2.3-2.1-5.3-3.2-9.2-3.2c-3.2-0.1-6.2,0.9-8.8,2.8
	c-2.6,2-3.8,4-3.8,6.2c0,1.3,0.9,2,2.8,2c1.1,0,2.2-0.2,3.1-0.7c0.9-0.5,1.5-1.4,1.5-2.5c0-1.1,0.1-2.1,0.5-3.1
	c0.8-1.8,2.7-2.9,4.6-2.8c1.6,0,3,0.9,3.7,2.3c2.1,4.3,2,9.4-0.4,13.5c-1.1,1.6-3,2.6-4.9,2.5l-2.4-0.2c-0.6,0-1,0.5-1.2,1.4
	c-0.1,0.2-0.1,0.4-0.1,0.6c0,0.4,0.2,0.6,0.7,0.6c0.3,0,1.2,0,2.8-0.2c0.2,0,0.5,0,0.6,0c2.3-0.1,4.4,1.1,5.6,3
	c1.3,2.1,1.9,4.6,1.8,7c0.1,2.8-0.4,5.6-1.5,8.1c-1.2,2.4-2.9,3.6-5.2,3.6c-2.2,0-3.8-1.2-4.7-3.6c-0.7-1.7-1.1-2.7-1.2-2.8
	c-0.5-1.1-1.5-1.8-2.7-1.9c-1.1,0-2.1,0.2-3.1,0.7c-0.8,0.4-1.3,1.1-1.3,2c0,1.8,1.3,3.5,4,5.2c2.8,1.6,5.9,2.4,9.1,2.4
	c3.5,0.2,7-1,9.8-3.2c2.9-2.4,4.3-5.8,4.3-10.2C50.3,149.3,46.5,145.5,38.9,144z M127.6,166c-1.7-0.2-2.8-0.3-3.2-0.4
	c-0.8-0.1-1.6-0.5-2-1.2c-0.3-0.7-0.5-1.4-0.6-2.1c-0.1-0.9-0.1-2.9-0.1-6.1v-19.3c0-1.8,0-3.9,0.1-6.4c0.1-3.7,0.1-6.1,0.2-7.2
	c0-0.5-0.3-0.7-1-0.7c-4.6,2.2-9,4-13.1,5.5c-0.4,0.1-0.7,0.3-0.7,0.6c0,0.2,0,0.4,0.1,0.5c0.1,0.5,0.3,0.8,0.6,0.8
	c0.2,0,0.3,0,0.5-0.1l2.4-0.7c0.7-0.2,1.4-0.3,2.2-0.4c0.7,0,1.2,0.2,1.4,0.6c0.4,0.6,0.6,2.1,0.6,4.7v22.1c0,4.6-0.2,7.3-0.6,8.2
	c-0.3,0.7-1,1.1-1.7,1.2c-1.2,0.2-2.3,0.4-3.5,0.4c-0.4,0-0.6,0.3-0.6,0.9c0,0.6,0.2,0.9,0.6,0.9c2.9-0.1,6-0.2,9.4-0.2
	c3.2,0,6.3,0.1,9.1,0.2c0.4,0,0.5-0.3,0.5-0.9C128.2,166.3,128,166,127.6,166L127.6,166z M174.7,162.8c-0.9,1.5-2,2.8-3.3,3.9
	c-2.9,2.6-6.2,4.8-9.8,6.6c-0.1,0.1-0.1,0.1-0.1,0.2c0,0.4,0.1,0.6,0.4,0.6c5.8-0.9,11.4-3,16.2-6.3h0.6c1.2,0,1.8-0.3,1.8-0.9
	C180.6,166.3,178.6,164.9,174.7,162.8L174.7,162.8z M108.7,10.7c0.3,0,0.6-0.1,0.8-0.2c0.3-0.2,0.7-0.3,1-0.4c1-0.2,2.4-0.4,4.3-0.6
	c0.1,0.2,0.1,0.4,0.1,0.6c0,0.4-0.1,0.8-0.2,1.2c-0.4,1.4-1,2.8-1.7,4.1c-0.9,1.6-2.1,3-3.4,4.2c-0.6,0.5-0.7,0.7-0.7,0.8
	c0,0.2,0.2,0.4,0.4,0.4c0,0,0,0,0.1,0c0.2,0,0.3-0.1,0.5-0.2c1.9-1,3.5-2.3,4.8-4c1.1-1.4,2-3,2.6-4.7c0.1-0.3,0.3-0.7,0.4-1
	c0.1-0.1,0.2-0.3,0.2-0.5c-0.1-0.5-0.3-0.9-0.7-1.1c0.7,0,1.5,0,2.5,0c1,0,1.9,0.1,2.9,0.2c0.4,0.1,0.8,0.1,1.2,0.1
	c0.1,0,0.2,0,0.3,0c0.3,0,0.7-0.2,0.7-0.9c0-0.5-0.2-0.9-0.6-1.1c-0.7-0.4-1.5-0.6-2.3-0.7c-0.3,0-0.7,0.1-1,0.2
	c-0.3,0.1-0.5,0.2-0.8,0.2c-0.5,0.1-2,0.2-4.4,0.4c-1.4,0.1-3.1,0.3-5,0.5c-0.9,0.1-1.6,0.1-2,0.1c-0.6-0.1-1.1-0.3-1.5-0.7
	c-0.3-0.3-0.4-0.3-0.5-0.3c-0.2,0-0.5,0.1-0.5,0.8c0,0.5,0.3,1,0.7,1.4C107.7,10.3,108.2,10.7,108.7,10.7z M77,5.3
	c0-0.3-0.1-0.7-0.4-0.9c0,0-0.1-0.2-0.7-0.7c-0.5-0.5-1.1-0.8-1.7-1c-0.1,0-0.3,0-0.8,0.4c-0.3,0.1-0.7,0.2-1,0.2l-9,0.8
	c-0.9,0.1-1.6,0.1-2,0.1c-0.2,0-0.4,0-0.6-0.1c-0.3-0.2-0.6-0.4-0.8-0.6C59.6,3.1,59.5,3,59.3,3c-0.3,0-0.5,0.3-0.5,0.9
	c0.1,0.6,0.3,1.2,0.7,1.7c0.4,0.6,1,1,1.7,1.1c0.3,0,0.7-0.2,1-0.4c0.8-0.3,1.7-0.5,2.5-0.6c1.3-0.2,2.8-0.4,4.3-0.6
	c0.4,0,1.6-0.1,3.7-0.3c0.1,0,0.1,0,0.2,0c0,0,0,0.1-0.1,0.1c-1,1.2-2.1,2.3-3.3,3.3c0-0.1,0.1-0.3,0.1-0.4c0.1-0.1,0.1-0.3,0.1-0.4
	c0-0.4-0.2-0.7-0.6-0.8c-0.8-0.3-1.6-0.4-2.4-0.4c-0.4,0-0.8,0.1-1.1,0.3c-0.4,0.3-0.5,0.5-0.5,0.7c0,0.1,0,0.4,0.5,0.4
	c0.9,0.1,1,0.3,1,0.3c0,0.1,0.1,0.3,0.1,0.5v0.3c0,1.7-0.4,3.4-1.1,5c-0.9,2.4-2.4,4.5-4.3,6.2c-0.3,0.3-0.4,0.4-0.4,0.6
	c0,0.2,0.1,0.4,0.3,0.4c0,0,0,0,0.1,0c0.3,0,0.6-0.1,0.8-0.3c1.2-0.6,2.3-1.4,3.2-2.4c1-1.1,1.9-2.3,2.5-3.6
	c0.7-1.5,1.2-3.2,1.4-4.8c1.8-0.9,3.6-1.9,5.3-3.1c0.4-0.3,0.8-0.5,1.2-0.5C76.8,6,77,5.6,77,5.3L77,5.3z M62.6,162.6
	c-0.8,0-1.5,0.3-2,0.8c-1.3,1.1-1.3,3.1-0.2,4.3c0.6,0.6,1.4,1,2.3,1c0.8,0,1.5-0.3,2-0.8c0.7-0.6,1-1.4,1-2.3
	c0-0.8-0.3-1.5-0.8-2.1C64.3,163,63.5,162.6,62.6,162.6z M100.8,9.5c-0.1,0-0.3,0.1-0.7,0.4c-1.2,0.9-2.4,1.8-3.7,2.6
	c-1.3,0.7-2.6,1.4-4,1.9c-0.1,0.1-0.2,0.1-0.4,0.1v-0.1v-1.7c0.1-2.9,0.1-4.6,0.1-5.3c0-0.2,0-0.3,0.1-0.4c0.2-0.2,0.4-0.5,0.4-0.8
	c0-0.5-0.4-0.9-1-1.4c-1.3-0.8-2.3-1.1-3-0.6c-0.2,0.1-0.4,0.3-0.4,0.5c0,0.1,0.1,0.3,0.4,0.4c0.4,0.1,0.7,0.4,1,0.7
	c0.1,0.5,0.2,1,0.1,1.5l0,0c0,2,0,4.1,0,6.4c0,0.5,0,0.9-0.1,1.4c0,0.1-0.1,0.3-0.1,0.5c0.1,0.6,0.3,1.1,0.7,1.5
	c0.3,0.5,0.8,0.8,1.3,0.8c0.3,0,0.6-0.2,0.7-0.4c0.1-0.2,0.2-0.3,0.4-0.4c3.9-2.3,6.7-4.6,8.3-6.8c0.1-0.1,0.2-0.3,0.2-0.5
	C101.3,9.7,101.1,9.5,100.8,9.5C100.9,9.5,100.8,9.5,100.8,9.5L100.8,9.5z M96.4,166c-1.7-0.2-2.8-0.3-3.2-0.4
	c-0.8-0.1-1.6-0.5-2-1.2c-0.3-0.7-0.5-1.4-0.6-2.1c-0.1-0.9-0.1-2.9-0.1-6.1v-19.3c0-1.8,0-3.9,0.1-6.4c0.1-3.7,0.1-6.1,0.1-7.2
	c0-0.5-0.3-0.7-1-0.7c-4.6,2.2-9,4-13.1,5.5c-0.4,0.1-0.7,0.3-0.7,0.6c0,0.2,0,0.4,0.1,0.5c0.1,0.5,0.3,0.8,0.6,0.8
	c0.2,0,0.3,0,0.5-0.1l2.4-0.7c0.7-0.2,1.4-0.3,2.2-0.4c0.7,0,1.2,0.2,1.4,0.6c0.4,0.6,0.6,2.1,0.6,4.7v22.1c0,4.6-0.2,7.3-0.6,8.2
	c-0.3,0.7-1,1.1-1.7,1.2c-1.2,0.2-2.3,0.4-3.5,0.4c-0.4,0-0.6,0.3-0.6,0.9c0,0.6,0.2,0.9,0.6,0.9c2.9-0.1,6-0.2,9.4-0.2
	c3.2,0,6.3,0.1,9.1,0.2c0.4,0,0.5-0.3,0.5-0.9C97,166.3,96.8,166,96.4,166z"/>
</svg>
